<?xml version="1.0" encoding="utf-8"?>
<!-- Generator: Adobe Illustrator 16.0.4, SVG Export Plug-In . SVG Version: 6.00 Build 0)  -->
<!DOCTYPE svg PUBLIC "-//W3C//DTD SVG 1.1//EN" "http://www.w3.org/Graphics/SVG/1.1/DTD/svg11.dtd">
<svg version="1.1" id="Layer_1" xmlns="http://www.w3.org/2000/svg" xmlns:xlink="http://www.w3.org/1999/xlink" x="0px" y="0px"
	 width="91.6px" height="84.9px" viewBox="0 0 91.6 84.9" enable-background="new 0 0 91.6 84.9" xml:space="preserve">
<path d="M42.1,35c-1.2,0-1.9,0.7-1.9,1.9c0,1.2,0.7,1.9,1.9,1.9c1.2,0,1.9-0.7,1.9-1.9C43.9,35.7,43.2,35,42.1,35z M91.4,37.9
	c-2.7-8-23.1-4.7-30-9.6C54.5,23.4,53.9-0.1,45.5,0C37,0.1,39.3,19.8,32.6,24.8c-6.8,5.1-29.9,7.9-32.4,15.9
	c-2.5,8.1,22.1,7.1,24.8,15.1c2.7,8-8.6,23.4-1.7,28.3c6.9,4.9,16.9-15.2,25.4-15.3c8.5-0.1,18.8,15,25.5,9.9
	c6.8-5.1-10.9-17.6-8.4-25.7C68.4,45,94.1,45.9,91.4,37.9z M46.6,57.7c-5.4,0-5.1-5.2-5.1-5.2H51C51,52.5,51.5,57.7,46.6,57.7z
	 M45.5,41.4c-7.4,0-10.8-1.5-10.2-4.5c0.2-3.1,3.6-4.6,10.2-4.6c6.6-0.1,9.9,1.4,10.1,4.6C56.2,40.1,52.9,41.5,45.5,41.4z
	 M51.3,35.4c-0.9,0-1.4,0.5-1.4,1.4c0,0.9,0.5,1.4,1.4,1.4c0.9,0,1.4-0.5,1.4-1.4C52.7,36,52.1,35.4,51.3,35.4z"/>
</svg>
