<?xml version="1.0" encoding="utf-8"?>
<!-- Generator: Adobe Illustrator 16.0.4, SVG Export Plug-In . SVG Version: 6.00 Build 0)  -->
<!DOCTYPE svg PUBLIC "-//W3C//DTD SVG 1.1//EN" "http://www.w3.org/Graphics/SVG/1.1/DTD/svg11.dtd">
<svg version="1.1" id="Layer_1" xmlns="http://www.w3.org/2000/svg" xmlns:xlink="http://www.w3.org/1999/xlink" x="0px" y="0px"
	 width="95.5px" height="79px" viewBox="0 0 95.5 79" enable-background="new 0 0 95.5 79" xml:space="preserve">
<path d="M55.2,39.3c-1.6,0.1-2.5,1.1-2.4,2.7c0.1,1.6,1.1,2.5,2.7,2.4c1.6-0.1,2.5-1.1,2.4-2.7C57.9,40.1,56.8,39.2,55.2,39.3z
	 M74.3,36.7c0.9-0.6,1.1-1.6,0.4-2.5c-0.6-0.9-1.6-1.1-2.5-0.4c-0.9,0.6-1,1.6-0.4,2.5C72.4,37.3,73.4,37.4,74.3,36.7z M44.3,24.2
	c-1.2-0.5-2.2,0-2.6,1.2c-0.5,1.2,0,2.2,1.2,2.6c1.2,0.5,2.2,0,2.6-1.2C46,25.6,45.5,24.6,44.3,24.2z M37,39.8
	c-0.7,0.5-0.8,1.3-0.3,2c0.5,0.7,1.3,0.8,2,0.3c0.7-0.5,0.8-1.3,0.3-2C38.5,39.4,37.7,39.3,37,39.8z M21.1,24.9
	c-2,0.7-2.7,2.5-1.9,4.4c0.7,2,2.5,2.8,4.4,1.9c2-0.7,2.7-2.5,1.9-4.4C24.8,24.8,23.1,24.1,21.1,24.9z M60.2,19
	c-1.1,1-1.2,2.4-0.1,3.5c1,1.1,2.4,1.2,3.5,0.1c1.1-1,1.2-2.4,0.1-3.5C62.7,18,61.3,18,60.2,19z M91.2,2.5C80.1-5.3,72.7,7.6,57,7.6
	c-19.1,0-40.5-16.9-54.1,9c-10.5,19.8,8.9,36.6,34.6,41c-0.4,7.1-0.6,15.5-0.7,17.7c-2.4,0.6-5.2,2.2-4,3.4c0.7,0.7,8.4,0.4,9.2,0
	c0.8-0.4-0.2-1.7-0.7-2.3C41,73.5,40.9,65,41,58.1c2.8,0.3,5.6,0.5,8.5,0.6c-0.3,6.5-0.4,14.8-0.6,16.6c-2.4,0.6-5.2,2.2-4,3.4
	c0.7,0.7,8.4,0.4,9.2,0c0.8-0.4-0.2-1.7-0.7-2.3c-0.3-2.4-0.4-11.1-0.3-17.7c3-0.2,5.9-0.6,8.6-1.3c-0.3,6.5-0.5,16-0.6,17.9
	c-2.4,0.6-5.2,2.2-4,3.4c0.7,0.7,8.4,0.4,9.2,0c0.8-0.4-0.2-1.7-0.7-2.3c-0.3-2.7-0.4-13.4-0.3-20C93.7,46.4,101.4,9.6,91.2,2.5z
	 M76.8,15.3c3.1-2.4,6.5-2,8.8,1.2c2.4,3.1,2,6.5-1.2,8.8c-3.1,2.4-6.5,2-8.8-1.2C73.2,21,73.7,17.6,76.8,15.3z M78.1,31.5
	c2.3,3.1,1.8,6.5-1.4,8.8c-3.1,2.3-6.5,1.8-8.8-1.4c-2.3-3.1-1.8-6.5,1.4-8.8C72.5,27.8,75.9,28.3,78.1,31.5z M23,40.4
	c-5.3,1.2-10.3-2-12.3-7.5c-2.9-7-0.2-13.1,6.9-15.8c7-2.9,13.1-0.2,15.8,6.9C36.2,30.8,34.3,37.7,23,40.4z M40.6,44.9
	c-2.5,1.9-5.2,1.4-7-1.1c-1.9-2.5-1.4-5.2,1.1-7c2.5-1.9,5.2-1.4,7,1.1C43.6,40.4,43.2,43.1,40.6,44.9z M40.7,32.9
	c-4.2-1.5-5.9-5.2-4.2-9.3c1.5-4.2,5.2-5.9,9.3-4.2c4.2,1.5,5.9,5.2,4.2,9.3C48.6,32.9,44.9,34.5,40.7,32.9z M53,50.7
	c-4.1-0.4-6.8-3.8-7-8.2c-0.4-5.6,3-9.3,8.6-9.5c5.6-0.4,9.3,3,9.5,8.6C64.5,47,61.6,51.5,53,50.7z M55.4,27.1
	c-3.7-3.9-3.6-8.7,0.4-12.3c3.9-3.7,8.7-3.6,12.3,0.4c3.7,3.9,3.6,8.7-0.4,12.3C63.8,31.2,59,31.1,55.4,27.1z M81.8,21.5
	c0.9-0.7,1-1.6,0.3-2.5c-0.7-0.9-1.6-1-2.5-0.3c-0.9,0.7-1,1.6-0.3,2.5C79.9,22,80.9,22.1,81.8,21.5z"/>
</svg>
