<?xml version="1.0" encoding="utf-8"?>
<!-- Generator: Adobe Illustrator 16.0.4, SVG Export Plug-In . SVG Version: 6.00 Build 0)  -->
<!DOCTYPE svg PUBLIC "-//W3C//DTD SVG 1.1//EN" "http://www.w3.org/Graphics/SVG/1.1/DTD/svg11.dtd">
<svg version="1.1" id="Layer_1" xmlns="http://www.w3.org/2000/svg" xmlns:xlink="http://www.w3.org/1999/xlink" x="0px" y="0px"
	 width="98.2px" height="111px" viewBox="0 0 98.2 111" enable-background="new 0 0 98.2 111" xml:space="preserve">
<g>
	<path d="M39.7,73.9c0-0.1-0.1-0.2-0.1-0.3c-0.4,0.9-1.8,1.1-2.2-0.1c-0.2-0.5,0-0.9,0.2-1.1c-1.4-0.1-2.9,1-2.3,3
		C36.2,78.4,40.7,77.1,39.7,73.9z"/>
	<path d="M55.9,69c-0.4,0.9-1.8,1.1-2.2-0.1c-0.2-0.5,0-0.9,0.2-1.1c-1.4-0.1-2.9,1-2.3,3c0.9,3.1,5.4,1.8,4.4-1.4
		C56,69.2,55.9,69.1,55.9,69z"/>
	<path d="M95.8,23.6C89.2,9.3,67.5,0,49.1,0S9,9.3,2.4,23.6C-4.3,37.9,4,47.2,15.1,51.1c11.1,4,12.4,2.1,13,4.5
		c0.5,2.4-8.8,13.9-8.8,25.6c0,12,4.2,29.7,29.8,29.7c24,0,29.8-17.7,29.8-29.7c0-11.7-9.3-23.2-8.8-25.6c0.5-2.4,1.9-0.5,13-4.5
		S102.4,37.9,95.8,23.6z M61.8,64.6c1.9,2.1,4.9,6.5,1.8,9.1C64.2,70.7,63.4,67.9,61.8,64.6z M50,14.6c0.8-1,4-0.3,5.2-0.7
		c1.2-0.4,1.9-3.4,3-3c1.2,0.4,0,3.8,0.7,4.9c0.7,1,3.6,1.6,3.6,2.9c0,1.3-3.5-0.1-4.2,1c-0.8,1.1,1,3.7-0.2,4.1
		c-1.2,0.4-1.8-2.3-3-2.7c-1.2-0.4-3.5,2-4.2,1c-0.7-1,1.6-2.7,1.7-4C52.6,16.7,49.2,15.7,50,14.6z M47.1,72.4
		c-3.3-11.1,10.8-14.7,13.9-4.3C64,78.4,50.2,82.7,47.1,72.4z M39.3,33.5c0.5-1.5,4.2-1.8,5.3-2.7c1.1-0.9,1-4.7,2.3-4.7
		c1.3,0.1,1.1,4.6,2.2,5.7c1,1,4.3,0.6,4.6,2.2c0.3,1.6-3.7,1.1-4.2,2.6c-0.5,1.5,2.2,4.2,1,5.1c-1.1,0.9-2.6-2.1-3.9-2.2
		c-1.3-0.1-3.2,3.7-4.2,2.7c-1-1,0.9-3.9,0.6-5.5C42.7,35.1,38.8,35,39.3,33.5z M44.1,72.8c2.9,9.6-10,13.6-12.9,4
		C28.2,66.5,41.3,63.2,44.1,72.8z M17.2,41.6c-0.7,1.3-3.2-1.1-4.5-0.6c-1.3,0.4-1.6,4.6-2.9,4s-0.5-4-1.4-5.3
		c-0.9-1.4-4.6,0-4.7-1.6c-0.1-1.6,3.2-3.2,4-4.5c0.7-1.3-0.8-4.8,0.5-5.2c1.3-0.4,2.8,3.9,4.1,4.5c1.3,0.6,4.2-1,5.1,0.4
		c0.9,1.4-3.1,2.4-3,4C14.5,38.8,17.9,40.3,17.2,41.6z M24.9,22c-1-0.8,0.7-3.1,0.4-4.3c-0.4-1.2-3.9-1.2-3.5-2.5
		c0.4-1.2,3.7-1.5,4.7-2.3c1-0.7,0.8-3.8,2-3.8c1.2,0,1.2,3.6,2.2,4.4c1,0.8,3.9,0.4,4.3,1.6c0.4,1.2-3.4,1-3.8,2.2
		c-0.4,1.2,2.1,3.2,1.1,4c-1,0.7-2.4-1.6-3.6-1.6C27.5,19.7,25.9,22.8,24.9,22z M26.2,45.7c0-1,2.1-2,2.6-2.8c0.5-0.8-0.5-3,0.4-3.2
		c0.8-0.3,1.7,2.4,2.6,2.7c0.9,0.3,2.8-0.7,3.3,0.2c0.6,0.8-2,1.5-2,2.5c0,1,2.3,1.9,1.8,2.7c-0.5,0.8-2.1-0.6-2.9-0.3
		c-0.8,0.3-1.1,2.9-2,2.5c-0.9-0.3-0.3-2.5-0.9-3.3C28.6,45.8,26.2,46.7,26.2,45.7z M28.7,74.9c0.3,3.3,1.2,5.6,3.2,7.4
		C28,82.1,28.1,77.4,28.7,74.9z M51.8,99.5c-21,3.6-19.3-10-18.1-11.5c2.3-2.8,16.9-3.6,18.4-3.8c0.4,1.6,0.9,3.8,1.1,4.1
		c0.3,0.4,4.8-0.6,5.2-0.9c0.3-0.2,0-2.6-0.2-4.1c2.4-0.3,5-1.2,6.9-0.6C66.9,83.3,73.2,95.9,51.8,99.5z M81.8,40.9
		c-0.3,1.4-3.4,0.2-4.4,1.1c-1.1,0.9,0,4.9-1.4,4.8c-1.5,0-1.8-3.5-3.1-4.4c-1.3-0.9-4.3,1.7-5,0.2c-0.6-1.5,2-4.2,2.2-5.6
		c0.3-1.4-2.4-4.1-1.3-5c1.1-0.9,3.9,2.6,5.4,2.7c1.5,0,3.7-2.5,5-1.5c1.3,0.9-2.1,3.4-1.5,4.8C78.4,39.4,82.1,39.5,81.8,40.9z
		 M81.6,21.3c-0.3,1,1.6,2.5,0.9,3.1c-0.7,0.6-1.8-1.2-2.7-1.2c-0.9,0-1.9,2.4-2.6,1.8c-0.7-0.6,0.4-2.4,0.2-3.4
		c-0.3-1-2.8-0.9-2.6-1.8c0.3-1,2.6-1.3,3.3-1.9c0.7-0.6,0.4-3,1.3-3c0.9,0,1,2.8,1.7,3.4c0.7,0.6,2.8,0.2,3.1,1.2
		C84.5,20.4,81.8,20.3,81.6,21.3z M91.6,33.6c-0.2,0.7,1.1,1.8,0.6,2.2c-0.5,0.4-1.3-0.9-1.9-0.9c-0.6,0-1.4,1.7-1.9,1.3
		c-0.5-0.4,0.3-1.8,0.1-2.4c-0.2-0.7-2.1-0.6-1.9-1.3c0.2-0.7,1.9-0.9,2.4-1.4c0.5-0.4,0.3-2.1,1-2.1c0.6,0,0.7,2,1.2,2.5
		c0.5,0.4,2,0.1,2.2,0.8C93.7,33,91.7,32.9,91.6,33.6z"/>
</g>
</svg>
