<?xml version="1.0" encoding="utf-8"?>
<!-- Generator: Adobe Illustrator 16.0.4, SVG Export Plug-In . SVG Version: 6.00 Build 0)  -->
<!DOCTYPE svg PUBLIC "-//W3C//DTD SVG 1.1//EN" "http://www.w3.org/Graphics/SVG/1.1/DTD/svg11.dtd">
<svg version="1.1" id="Layer_1" xmlns="http://www.w3.org/2000/svg" xmlns:xlink="http://www.w3.org/1999/xlink" x="0px" y="0px"
	 width="82.4px" height="137px" viewBox="0 0 82.4 137" enable-background="new 0 0 82.4 137" xml:space="preserve">
<path d="M81.3,5.2c-1-0.2-1.9,1.1-1.9,1.9c0,0.5,0.3,1.4-0.2,1.6c-0.6,0.3-1.4-0.1-1.9-0.5c-0.6-0.5-0.2-1.6-0.3-2.3
	c0-0.8-0.9-2-1.9-1.9c-1,0.2-1.3,1.7-1.1,2.4c0.2,0.6,0.9,1.4,0.5,1.9c-0.5,0.8-1.7,1.2-2.4,1C71.5,9,71.6,8,71.4,7.4
	C71.1,6.6,69.9,5.6,69,6c-0.9,0.5-0.9,2-0.4,2.6c0.5,0.8,1.5,1.5,1.4,2.5c-0.1,1.1-0.1,2.1-0.8,2.9c-0.5,0.6-1.5,0-2.2,0
	c-0.8-0.1-2.1,0.9-2,2.1c0.2,1.2,1.6,1.8,2.4,1.6c0.7-0.2,1.7-0.5,1.9,0.2C72,26.2,71,35.3,67.7,44c-6.5-13.8-15.8-25.1-25.2-26.9
	c-0.1-1.2-0.1-2.4,0-3.5c0.8,0.4,1.5,0.8,2.3,1.1c0.8,0.3,1.7-0.2,1.9-1s-0.2-1.8-0.9-2.1c-1-0.4-2-0.7-3-1c0.1-0.8,0.3-1.6,0.5-2.5
	c1,0,2.1,0.1,3.1,0c0.9-0.1,1.5-0.9,1.3-1.7c-0.2-0.8-0.9-1.6-1.7-1.6c-0.6,0-1.3,0.1-1.9,0.2c0.2-0.6,0.4-1.3,0.6-2
	c0.4-1.2-0.2-2.5-1.3-2.9c-1.1-0.4-2.4,0.3-2.8,1.6C40,4,39.4,6,39.1,7.8c-1-0.1-2-0.3-3.1-0.3c-0.9,0-1.5,0.8-1.4,1.6
	c0.1,0.8,0.8,1.6,1.6,1.7c0.8,0,1.7,0,2.5-0.1c-0.2,2-0.1,4,0,6.2C29.8,18,21.1,30.2,14.4,43.2c-3.1-8.5-4-17.3-1.4-25.4
	c0.2-0.7,1.2-0.4,1.9-0.2c0.8,0.2,2.2-0.4,2.4-1.6c0.1-1.2-1.2-2.1-2-2.1c-0.7,0-1.7,0.5-2.2,0c-0.6-0.8-0.7-1.8-0.8-2.9
	c-0.1-0.9,0.9-1.7,1.4-2.5C14.2,8,14.2,6.5,13.3,6c-0.9-0.4-2.1,0.5-2.3,1.3C10.8,8,10.9,9,10.3,9.3c-0.8,0.3-2-0.2-2.4-1
	C7.5,7.7,8.1,7,8.3,6.4c0.3-0.8-0.1-2.2-1.1-2.4C6.3,3.7,5.4,5,5.4,5.8C5.3,6.6,5.7,7.6,5.1,8.1C4.6,8.6,3.7,9,3.2,8.7
	C2.7,8.4,3,7.6,3,7C3,6.2,2,5,1.1,5.2C0.1,5.4-0.1,6.8,0,7.6C0.2,9.1,0.3,9.8,0.2,11c-0.1,0.7,0.1,1.1,0,1.9
	c-0.6,14.2,2.9,28,9.7,39.9C5.4,63.1,2.7,72.1,2.7,74.5c0,6.2,14.3,1.6,14.3,8.7c0,7.1-15.4-2.5-12.6,7.4c1.8,6.4,8.6,14.8,19,19.8
	c-4.5,3.8-9.2,8.1-11.2,9.9c-2.6-1.6-6.3-2.5-6.3-0.6c0,1.2,6.7,7.5,7.8,7.8c1.1,0.4,1.2-1.6,1.4-2.5c2.6-3.3,7.9-8.6,12.6-12.8
	c4.6,1.7,9.8,2.7,15.5,2.7c2.6,0,5-0.2,7.3-0.5c-0.6,6.5-1,14.8-1.2,18c-2.9,0.7-6.2,2.7-4.8,4c0.8,0.8,10,0.5,11.1,0
	c1-0.5-0.3-2-0.8-2.8c-0.5-4.7-0.5-13.4,0-20.1c12.8-3.2,21.1-12.8,21.9-32.1c0.3-8.2-1.5-18-4.8-27.6c7.2-12.2,11-26.4,10.4-41.1
	c0-0.8,0.1-1.1,0-1.9c-0.1-1.2,0-1.8,0.2-3.3C82.4,6.8,82.2,5.4,81.3,5.2z M33,32.9c-1.8,0.3-3.1-0.7-3.4-2.5
	c-0.3-1.8,0.7-3.1,2.5-3.4c1.8-0.3,3.1,0.7,3.4,2.5C35.8,31.4,34.8,32.7,33,32.9z M47.8,33.1c-2.5,0.4-4.3-1-4.6-3.5
	c-0.4-2.5,1-4.3,3.5-4.6c2.5-0.4,4.3,1,4.6,3.5C51.7,31,50.3,32.8,47.8,33.1z"/>
</svg>
