<?xml version="1.0" encoding="utf-8"?>
<!-- Generator: Adobe Illustrator 16.0.4, SVG Export Plug-In . SVG Version: 6.00 Build 0)  -->
<!DOCTYPE svg PUBLIC "-//W3C//DTD SVG 1.1//EN" "http://www.w3.org/Graphics/SVG/1.1/DTD/svg11.dtd">
<svg version="1.1" id="Layer_1" xmlns="http://www.w3.org/2000/svg" xmlns:xlink="http://www.w3.org/1999/xlink" x="0px" y="0px"
	 width="102.6px" height="217.8px" viewBox="0 0 102.6 217.8" enable-background="new 0 0 102.6 217.8" xml:space="preserve">
<path d="M71.5,209.2c-0.3-5.3-1.9-33-0.9-46.3c0.1-1.4,0-2.8-0.1-4.9c-0.3-5.4-0.6-8.1-0.6-21.6c0-4.3-0.4-17.2-0.4-17.2
	c20.8-7.9,33.4-29.2,33-57.5c0.1-35.8-19.9-60.9-50-61.6C22.4-1.4,0.6,23.4,0,60.8c-0.9,30.7,13.4,53.3,35.8,59.7
	c0,0,0.3,8.3,0.3,18.5c0,9.6,0.4,19.6,0.4,20c0,2.2,0.3,3.6,0.3,5c0,12.7-0.5,40.1-0.8,45.3c-5.5,1.3-21,5.1-18.5,7.6
	c1.6,1.6,28.3,0.9,30.3,0c1.9-0.9-0.5-3.8-1.5-5.2c-0.6-5.8-0.8-33.6-0.7-44.5c2.4,0.1,5.2-0.1,8.2-0.2c2.9-0.1,5.7-0.1,8.1-0.3
	c0.2,10.6,0,39.1-0.6,45c-1,1.4-3.5,4.3-1.5,5.2c2,0.9,28.7,1.6,30.3,0C92.5,214.3,77.1,210.5,71.5,209.2z M58.8,20.6
	c3.5-0.1,5.1,1.5,5.1,5.1c0.2,3.6-1.4,5.2-5.1,5.1c-3.7,0.1-5.3-1.5-5.1-5.1C53.7,22.1,55.3,20.5,58.8,20.6z M40.3,20.6
	c3.5-0.1,5.1,1.5,5.1,5.1c0.2,3.6-1.4,5.2-5.1,5.1c-3.7,0.1-5.3-1.5-5.1-5.1C35.1,22.1,36.8,20.5,40.3,20.6z M59.3,81
	c0.1,2.2-0.1,4.5-0.6,6.8c-0.1,0.4-0.5,0.8-0.8,0.9c-2.3,0.4-4.6,0.5-7,0.3c-0.4,0-0.8-0.4-0.9-0.8c-0.7-2.3-1.1-4.6-1.1-6.9
	c0-0.1,0-0.2,0.1-0.3c-5.9-0.6-11.6-2.3-16.3-5.5c0,0.1-0.1,0.1-0.1,0.2c-1.7,1.5-3.6,2.9-5.6,3.9c-0.4,0.2-0.9,0.2-1.2-0.1
	c-1.8-1.5-3.3-3.3-4.7-5.1c-0.2-0.3-0.2-0.8,0-1.2c1.2-1.9,2.7-3.5,4.2-4.9c-0.5-0.7-1-1.5-1.4-2.3c-2.6-4.9-4.3-10.8-4.3-16.4
	c-0.9,0.2-1.7,0.5-2.6,0.8c-2,0.7-2.8-2.5-0.9-3.1c3.3-1.1,6.8-1.8,10.3-1.9c2.1,0,2.1,3.2,0,3.2c-1.2,0-2.4,0.1-3.6,0.3
	c-0.2,4.8,1,10,3.2,14.3c5.6,11.1,17.3,15.4,29.3,15c11.3-0.4,21.4-5.5,24.4-17c1.2-4.6,1.6-9.8,0.8-14.5c-1.4,0.3-2.8,0.7-4.1,1.2
	c-1.9,0.8-2.8-2.3-0.9-3.1c3.6-1.5,7.8-2,11.6-1.2c2,0.5,1.2,3.6-0.9,3.1c-0.9-0.2-1.7-0.3-2.6-0.3c0.9,5.7,0.5,12.1-1.4,17.6
	c0,0.1-0.1,0.2-0.1,0.3c1.8,1.1,3.4,2.5,4.9,4c0.3,0.3,0.4,0.8,0.2,1.2c-1,2.1-2.3,4.1-3.7,5.9c-0.2,0.3-0.8,0.4-1.2,0.3
	c-2.1-0.6-4-1.5-5.7-2.6C72.2,77.5,66.1,80.2,59.3,81z"/>
</svg>
