<?xml version="1.0" encoding="utf-8"?>
<!-- Generator: Adobe Illustrator 16.0.4, SVG Export Plug-In . SVG Version: 6.00 Build 0)  -->
<!DOCTYPE svg PUBLIC "-//W3C//DTD SVG 1.1//EN" "http://www.w3.org/Graphics/SVG/1.1/DTD/svg11.dtd">
<svg version="1.1" id="Layer_1" xmlns="http://www.w3.org/2000/svg" xmlns:xlink="http://www.w3.org/1999/xlink" x="0px" y="0px"
	 width="100.3px" height="73.9px" viewBox="0 0 100.3 73.9" enable-background="new 0 0 100.3 73.9" xml:space="preserve">
<path d="M91.2,69.9c5-13.8-0.3-26.8-4.7-33.5c8.6-10,13.4-21.2,10.3-27.3c-6.3-12.4-83.8-12.4-94,1.1c-6.7,8.8-0.5,20.4,10.4,29.6
	c-3.7,7.2-6.7,18.6-2.5,30.1c-2.5,0.5-10.2,1.9-9,3.5c0.7,0.9,13.3,0.2,14.1-0.3c0.8-0.4-0.1-1.2-0.5-1.9c-4.1-11.4-1.8-22.7,1-28.9
	c3.3,2.5,6.9,4.8,10.7,6.7c-1.1,5.3-1.4,16,0.3,20.9c-2.5,0.5-10.2,1.9-9,3.5c0.7,0.9,13.3,0.2,14.1-0.3c0.8-0.4-0.1-1.2-0.5-1.9
	c-2.2-5.2-2.5-15.8-1.8-20.7c3.9,1.8,7.9,3.2,11.8,4.2c-0.2,0.3-0.4,0.6-0.5,0.9c-2.3,4.6,1,9.5,2.4,8.8c1.5-0.5,1.1-4,2.3-6.8
	c0.2-0.7,0.6-1.3,0.9-1.9c1.6,0.2,3.2,0.3,4.7,0.3c1.5,0,3.1-0.1,4.6-0.4c0.4,0.6,0.7,1.3,1,2c1.2,2.9,0.9,6.3,2.4,6.8
	c1.4,0.6,4.7-4.2,2.4-8.8c-0.2-0.4-0.5-0.8-0.8-1.2c3.7-1.2,7.3-3,10.8-5.3l-0.4,0.6c0.8,4.2,0.6,16.1-1.7,21.6
	c-0.4,0.7-1.3,1.4-0.5,1.9c0.9,0.4,13.4,1.2,14.1,0.3c1.2-1.6-6.6-3.1-9-3.5c1.8-5.2,1.4-17.3,0.1-21.9c1.9-1.2,3.4-2.7,4.6-4.4
	c1.6-1.4,3.1-2.8,4.5-4.3c3.4,5.2,7.7,18.1,2.8,31.9c-0.4,0.7-1.3,1.4-0.5,1.9c0.9,0.4,13.4,1.2,14.1,0.3
	C101.4,71.9,93.6,70.4,91.2,69.9z M18.2,26.5c-5.6,0.1-9.8-4-9.8-9.5c0-5.5,4.1-9.7,9.5-9.8c5.4-0.1,9.6,4,9.8,9.5
	C27.9,22.2,23.9,26.4,18.2,26.5z M38.9,25.5c-5.6,0.1-9.8-4-9.8-9.5c0-5.5,4.1-9.7,9.5-9.8c5.4-0.1,9.6,4,9.8,9.5
	C48.6,21.3,44.5,25.5,38.9,25.5z M59.6,25.3c-5.6,0.1-9.8-4-9.8-9.5c0-5.5,4.1-9.7,9.5-9.8c5.4-0.1,9.6,4,9.8,9.5
	C69.3,21,65.2,25.2,59.6,25.3z M80.3,25.7c-5.6,0.1-9.8-4-9.8-9.5c0-5.5,4.1-9.7,9.5-9.8c5.4-0.1,9.6,4,9.8,9.5
	C90,21.5,85.9,25.6,80.3,25.7z M18,12.6c-2.4,0-4.2,1.9-4.2,4.3c0,2.4,1.8,4.2,4.3,4.2c2.5,0,4.3-1.9,4.2-4.3
	C22.3,14.3,20.4,12.5,18,12.6z M59.4,11.4c-2.4,0-4.2,1.9-4.2,4.3c0,2.4,1.8,4.2,4.3,4.2c2.5,0,4.3-1.9,4.2-4.3
	C63.6,13.1,61.8,11.3,59.4,11.4z M80.1,11.8c-2.4,0-4.2,1.9-4.2,4.3c0,2.4,1.8,4.2,4.3,4.2c2.5,0,4.3-1.9,4.2-4.3
	C84.3,13.6,82.5,11.8,80.1,11.8z M38.7,11.6c-2.4,0-4.2,1.9-4.2,4.3c0,2.4,1.8,4.2,4.3,4.2c2.5,0,4.3-1.9,4.2-4.3
	C42.9,13.4,41.1,11.6,38.7,11.6z"/>
</svg>
