<?xml version="1.0" encoding="utf-8"?>
<!-- Generator: Adobe Illustrator 16.0.4, SVG Export Plug-In . SVG Version: 6.00 Build 0)  -->
<!DOCTYPE svg PUBLIC "-//W3C//DTD SVG 1.1//EN" "http://www.w3.org/Graphics/SVG/1.1/DTD/svg11.dtd">
<svg version="1.1" id="Layer_1" xmlns="http://www.w3.org/2000/svg" xmlns:xlink="http://www.w3.org/1999/xlink" x="0px" y="0px"
	 width="82.4px" height="140px" viewBox="0 0 82.4 140" enable-background="new 0 0 82.4 140" xml:space="preserve">
<path d="M81.3,8c-1-0.2-1.9,1.1-1.9,1.9c0,0.5,0.3,1.4-0.2,1.6c-0.6,0.3-1.4-0.1-1.9-0.5c-0.6-0.5-0.2-1.6-0.3-2.3
	c0-0.8-0.9-2-1.9-1.9c-1,0.2-1.3,1.7-1.1,2.4c0.2,0.6,0.9,1.4,0.5,1.9c-0.5,0.8-1.7,1.2-2.4,1c-0.6-0.2-0.5-1.3-0.7-1.9
	c-0.2-0.8-1.4-1.7-2.3-1.3c-0.9,0.5-0.9,2-0.4,2.6c0.5,0.8,1.5,1.5,1.4,2.5C70,15,69.9,16,69.2,16.8c-0.5,0.6-1.5,0-2.2,0
	c-0.8-0.1-2.1,0.9-2,2.1c0.2,1.2,1.6,1.8,2.4,1.6c0.7-0.2,1.7-0.5,1.9,0.2c2.7,8.4,1.6,17.6-1.8,26.5c-6.5-12.9-15.1-25.3-23.8-27.2
	c0.4-2,0.7-4.7,1-8C45.6,4,44.9,1.1,42.7,0.4c-2.2-1.5-3,1.4-2.8,11c0,3.5,0.1,6.3,0.2,8.3c-1.3,0.1-2.6,0.4-3.9,0.9
	c0-1.7-0.3-4.1-0.8-7.1c-1-6.4-2.2-8.5-4.3-8.6c-2.2-0.7-2.3,1.8-0.1,9.4c1,3.5,1.8,6.1,2.5,7.7C26.3,26,19.4,35,14.3,45.7
	c-3-8.4-3.8-17.1-1.3-25c0.2-0.7,1.2-0.4,1.9-0.2c0.8,0.2,2.2-0.4,2.4-1.6c0.1-1.2-1.2-2.1-2-2.1c-0.7,0-1.7,0.5-2.2,0
	c-0.6-0.8-0.7-1.8-0.8-2.9c-0.1-0.9,0.9-1.7,1.4-2.5c0.5-0.7,0.5-2.2-0.4-2.6c-0.9-0.4-2.1,0.5-2.3,1.3c-0.2,0.6-0.1,1.7-0.7,1.9
	c-0.8,0.3-2-0.2-2.4-1c-0.4-0.6,0.3-1.3,0.5-1.9c0.3-0.8-0.1-2.2-1.1-2.4c-1-0.2-1.9,1.1-1.9,1.9c-0.1,0.8,0.3,1.8-0.3,2.3
	c-0.5,0.5-1.4,0.8-1.9,0.5C2.7,11.2,3,10.4,3,9.8C3,9,2.1,7.8,1.1,8c-1,0.2-1.1,1.6-1.1,2.5c0.1,1.5,0.3,2.1,0.2,3.3
	c-0.1,0.7,0.1,1.1,0,1.9C-0.4,29.9,3.2,43.8,10,55.7c-3.5,9.8-5.6,20.1-5.2,28.6c0.9,20.5,10.2,30,24.3,32.7
	c-0.4,6.9-1.3,13.8-2.9,20.7c-0.2,1.3,0.4,2.3,1.9,2.3c0.5,0,3.1-0.1,3.8,0c1.4,0.2,2.9-0.4,3.2-1.3c0.3-0.9-2.9-2.1-2.9-2.1
	c0,0,3.7-0.9,3.6-1.8c-0.1-0.9-1.3-1.6-2.7-1.5c0,0-1.4,0.1-1.5,0.2c0.6-5.4,0.9-10.7,0.9-16c1.8,0.2,3.7,0.3,5.7,0.3
	c6.3,0,12-1.3,17-3.3c4.2,4.8,8,10,11.5,15.5c0.7,1.1,1.9,1.3,3,0.3c0.4-0.4,2.1-2.3,2.7-2.7c1.1-0.9,1.8-2.3,1.4-3.2
	c-0.4-0.9-3.5,0.6-3.5,0.6c0,0,2-3.3,1.2-3.8c-0.7-0.6-2-0.2-2.9,0.8c0,0-0.9,1.1-1,1.2c-2.9-3.6-5.8-7-9-10.2
	c10.1-5.1,16.7-13.3,18.5-19.6c2.8-9.9-12.6-0.2-12.6-7.4c0-7.1,14.3-2.5,14.3-8.7c0-2.3-2.6-10.9-6.8-20.8
	C79,44.4,82.7,30.2,82.1,15.6c0-0.8,0.1-1.1,0-1.9c-0.1-1.2,0-1.8,0.2-3.3C82.4,9.6,82.3,8.2,81.3,8z M40.3,37.7
	c-9.6,0-14.1-1.2-13.3-5.2c0.3-4,7.6-6.7,13.3-6.7c6.7,0,13,2.5,13.2,6.7C54.3,36.7,49.9,37.9,40.3,37.7z M35.4,29
	c-1.7,0-2.9,1.1-2.8,2.8c0,1.7,1.2,2.8,2.8,2.8c1.6,0,2.7-1.1,2.8-2.8C38.3,30.1,37.2,29,35.4,29z M46.5,30c-1.1,0-1.8,0.7-1.8,1.8
	c0,1.1,0.7,1.9,1.8,1.8c1.1,0,1.8-0.7,1.8-1.8C48.4,30.7,47.6,30,46.5,30z"/>
</svg>
