<?xml version="1.0" encoding="utf-8"?>
<!-- Generator: Adobe Illustrator 16.0.4, SVG Export Plug-In . SVG Version: 6.00 Build 0)  -->
<!DOCTYPE svg PUBLIC "-//W3C//DTD SVG 1.1//EN" "http://www.w3.org/Graphics/SVG/1.1/DTD/svg11.dtd">
<svg version="1.1" id="Layer_1" xmlns="http://www.w3.org/2000/svg" xmlns:xlink="http://www.w3.org/1999/xlink" x="0px" y="0px"
	 width="160.2px" height="100.3px" viewBox="0 0 160.2 100.3" enable-background="new 0 0 160.2 100.3" xml:space="preserve">
<path d="M158.9,61.7c0.6-0.1,1.4-0.9,1.2-1.5c-0.2-0.7-1.3-0.8-1.9-0.6c-0.5,0.2-0.9,0.8-1.4,0.6c-0.6-0.3-1-1.1-0.9-1.7
	c0.1-0.5,0.9-0.5,1.3-0.7c0.5-0.2,1.1-1.2,0.8-1.8c-0.4-0.6-1.5-0.5-2-0.1c-0.5,0.4-1,1.2-1.7,1.2c-0.8,0-1.5,0.1-2.2-0.3
	c-0.4-0.3-0.2-1.1-0.2-1.6c0-0.6-0.8-1.5-1.7-1.3c-0.8,0.2-1.2,1.3-0.9,1.9c0.2,0.5,0.5,1.2,0,1.4c-6.2,2.8-13.5,2.7-20.6,0.7
	c-1.2-6.1-3-12.5-5.5-18.6c9.5-1.7,18.6-5.9,26.3-12.4c0.4-0.4,0.7-0.5,1.1-0.8c0.6-0.6,1.1-0.8,2-1.4c0.5-0.3,1.2-1.1,0.9-1.7
	c-0.3-0.6-1.5-0.6-1.9-0.3c-0.3,0.2-0.6,0.8-1,0.6c-0.4-0.2-0.6-0.8-0.6-1.4c0.1-0.6,0.8-0.8,1.2-1.2c0.5-0.4,0.8-1.5,0.2-2
	c-0.6-0.5-1.6,0-1.9,0.5c-0.3,0.4-0.4,1.1-0.9,1.2c-0.7,0.1-1.5-0.4-1.7-1c-0.2-0.5,0.5-0.9,0.8-1.3c0.3-0.5,0.3-1.6-0.3-1.9
	c-0.7-0.3-1.5,0.4-1.7,1c-0.2,0.7-0.2,1.5-0.8,1.9c-0.6,0.4-1.3,0.9-2,0.8c-0.5,0-0.7-0.8-1-1.3c-0.3-0.5-1.5-0.8-2.1-0.2
	c-0.6,0.6-0.3,1.8,0.2,2.1c0.4,0.3,1.1,0.7,0.8,1.2c-4.3,6.4-11.7,10.3-19.9,12C112.6,15.4,98.1,0,75.9,0C56,0,43.7,15,36.9,33.2
	c-7.3-1.9-13.8-5.7-17.8-11.5c-0.3-0.4,0.3-0.9,0.8-1.2c0.5-0.3,0.8-1.5,0.2-2.1c-0.6-0.6-1.8-0.3-2.1,0.2c-0.3,0.4-0.5,1.2-1,1.3
	c-0.7,0-1.4-0.4-2-0.8c-0.6-0.4-0.6-1.3-0.8-1.9c-0.2-0.6-1-1.3-1.7-1c-0.6,0.3-0.6,1.5-0.3,1.9c0.3,0.4,0.9,0.8,0.8,1.3
	c-0.2,0.6-1,1-1.7,1c-0.5-0.1-0.6-0.8-0.9-1.2c-0.3-0.5-1.3-1-1.9-0.5c-0.5,0.5-0.2,1.6,0.2,2c0.4,0.4,1.2,0.6,1.2,1.2
	c0,0.5-0.1,1.2-0.6,1.4c-0.4,0.2-0.7-0.4-1-0.6c-0.5-0.3-1.6-0.4-1.9,0.3c-0.3,0.7,0.4,1.4,0.9,1.7c0.9,0.6,1.4,0.8,2,1.4
	c0.4,0.4,0.6,0.5,1.1,0.8C17.6,33,26,37.1,34.9,38.9C33,45.2,31.6,51.7,30.8,58c-7,1.9-14,2-20.1-0.8c-0.5-0.2-0.2-0.9,0-1.4
	c0.2-0.5-0.1-1.7-0.9-1.9c-0.9-0.2-1.6,0.7-1.7,1.3c0,0.5,0.2,1.3-0.2,1.6c-0.6,0.4-1.4,0.4-2.1,0.3c-0.7,0-1.1-0.8-1.7-1.2
	c-0.4-0.4-1.6-0.5-2,0.1c-0.4,0.6,0.2,1.6,0.8,1.8C3.3,58,4.1,58,4.2,58.5c0.1,0.6-0.3,1.4-0.9,1.7c-0.4,0.2-0.9-0.4-1.4-0.6
	c-0.5-0.3-1.6-0.1-1.9,0.6c-0.2,0.7,0.6,1.5,1.2,1.5c0.6,0.1,1.3-0.1,1.7,0.4c0.3,0.4,0.5,1.1,0.2,1.5c-0.2,0.3-0.8,0-1.2,0
	c-0.6,0-1.6,0.5-1.5,1.2c0.1,0.7,1.1,1,1.7,1c1.1,0,1.6,0,2.4,0.2C5.1,66,5.4,66,5.9,66.1c8.2,1.3,16.5,0.7,24.2-1.5
	c-1.3,16.6,0.9,30.2,5.1,31.8c12.8,4.7,81.1,6.2,91.7-1.1c3.9-2.7,5.3-15.4,3.1-30.6c7.7,2.3,15.9,2.8,24.2,1.5
	c0.6-0.1,0.8,0,1.4-0.1c0.9-0.2,1.3-0.1,2.4-0.2c0.6,0,1.6-0.3,1.7-1c0-0.7-0.9-1.3-1.5-1.2c-0.4,0-1,0.3-1.2,0
	c-0.3-0.4-0.1-1,0.2-1.5C157.6,61.6,158.4,61.8,158.9,61.7z M68.9,11.6c7,0.3,7.1,7.6,6,7.2c-0.6-0.3-2.3-3.6-5.5-3.4
	c-3.2,0.1-4.8,3.1-6.1,3.4C61.5,19.1,61.9,11.5,68.9,11.6z M83.7,26.9c0,0,0.5,5.7-4.9,5.7c-6,0-5.6-5.7-5.6-5.7H83.7z M78.3,71.8
	c0,0-14.9-8.8-8.3-12.6c6.7-3.7,8.4,1.8,8.4,1.8s4.6-5.2,8.9-0.8S78.3,71.8,78.3,71.8z M93,18.7c-1.3-0.3-2.9-3.3-6.1-3.4
	c-3.3-0.1-4.9,3.1-5.5,3.4c-1.1,0.5-1-6.9,6-7.2C94.4,11.5,94.8,19.1,93,18.7z"/>
</svg>
