<?xml version="1.0" encoding="utf-8"?>
<!-- Generator: Adobe Illustrator 16.0.4, SVG Export Plug-In . SVG Version: 6.00 Build 0)  -->
<!DOCTYPE svg PUBLIC "-//W3C//DTD SVG 1.1//EN" "http://www.w3.org/Graphics/SVG/1.1/DTD/svg11.dtd">
<svg version="1.1" id="Layer_1" xmlns="http://www.w3.org/2000/svg" xmlns:xlink="http://www.w3.org/1999/xlink" x="0px" y="0px"
	 width="83.1px" height="144.5px" viewBox="0 0 83.1 144.5" enable-background="new 0 0 83.1 144.5" xml:space="preserve">
<path d="M16.9,111.7c-1.6-0.3-2.9,0.7-3.1,2.3c-0.3,1.6,0.7,2.9,2.3,3.1c1.6,0.3,2.9-0.7,3.1-2.3C19.4,113.2,18.5,111.9,16.9,111.7z
	 M78.8,42.5c-3.1-8.5-8.7-14.1-15.4-17.6c0.2-1.4,0.5-2.7,0.8-3.9c0.8,0.7,1.6,1.3,2.5,1.9c0.9,0.6,2.1,0.2,2.5-0.7
	c0.4-0.9,0.2-2.2-0.6-2.8c-1.1-0.7-2.2-1.3-3.3-2c0.4-0.9,0.8-1.9,1.2-2.9c1.3,0.3,2.5,0.6,3.8,0.8c1.1,0.2,2-0.7,2-1.7
	c0-1-0.7-2.1-1.7-2.3c-0.8-0.1-1.6-0.2-2.4-0.3c0.4-0.7,0.8-1.5,1.2-2.3C70.3,7.5,70,5.8,68.8,5c-1.2-0.8-3-0.3-3.8,1.2
	c-1.5,2.6-2.6,4.8-3.4,7c-1.2-0.4-2.4-0.8-3.6-1.1c-1.1-0.2-2,0.6-2.1,1.6c-0.1,1,0.6,2.2,1.5,2.4c1,0.2,2,0.4,3.1,0.5
	c-0.6,2.1-1,4.2-1.4,6.4c-5.3-1.9-11.1-2.6-16.8-2.5c0-2.6-0.1-5.1-0.4-7.5c1,0,2.1,0,3.1-0.1c1-0.1,1.8-1.2,1.9-2.2
	c0.1-1-0.7-1.9-1.8-1.9c-1.3,0.1-2.5,0.3-3.8,0.5c-0.5-2.2-1.2-4.6-2.3-7.4c-0.6-1.6-2.3-2.4-3.6-1.8c-1.3,0.6-1.9,2.2-1.4,3.7
	c0.3,0.8,0.6,1.7,0.9,2.4c-0.8-0.1-1.6-0.1-2.4-0.1c-1,0-1.9,1-2,2c-0.2,1,0.6,2,1.7,2c1.3,0,2.6-0.1,3.9-0.2c0.3,1.1,0.6,2.1,0.8,3
	c-1.2,0.5-2.4,0.9-3.6,1.4c-0.9,0.4-1.3,1.7-1,2.7c0.3,1,1.4,1.6,2.4,1.1c1-0.4,1.9-1,2.8-1.5c0.1,1.3,0.2,2.7,0.2,4.1
	c-10,1.1-18.9,4.9-23.2,9.7c-13.5,15.2-22.2,80.2-3.3,96c-0.1,4.3,0.2,8.7,0.7,13.1c-0.1,0-1.1-0.1-1.1-0.1c-1-0.1-1.9,0.4-2,1.1
	c-0.1,0.7,2.7,1.4,2.7,1.4c0,0-2.4,0.9-2.2,1.5c0.2,0.7,1.3,1.1,2.4,0.9c0.5-0.1,2.4,0,2.8,0c1.1,0,1.6-0.8,1.4-1.7
	c-1.1-4.8-1.8-9.6-2.1-14.5c1.7,0.9,3.6,1.5,5.7,1.7c0.1,3.2,0.3,6.4,0.6,9.7c-0.1,0-1.1-0.1-1.1-0.1c-1-0.1-1.9,0.4-2,1.1
	c-0.1,0.7,2.7,1.4,2.7,1.4c0,0-2.4,0.9-2.2,1.5c0.2,0.7,1.3,1.1,2.4,0.9c0.5-0.1,2.4,0,2.8,0c1.1,0,1.6-0.8,1.4-1.7
	c-1-4.2-1.7-8.5-2-12.8c2-0.2,3.8-1,5.6-2.1c0,3.9,0.2,7.8,0.7,11.8c-0.1,0-1.1-0.1-1.1-0.1c-1-0.1-1.9,0.4-2,1.1
	c-0.1,0.7,2.7,1.4,2.7,1.4c0,0-2.4,0.9-2.2,1.5c0.2,0.7,1.3,1.1,2.4,0.9c0.5-0.1,2.4,0,2.8,0c1.1,0,1.6-0.8,1.4-1.7
	c-1.3-5.5-2-11.1-2.2-16.7c7.7-6.4,14-18.7,20.8-21.8C60.2,100.2,95.2,88,78.8,42.5z M7.8,115c0,0,7.9-13.6,19.8-0.6
	C27.6,114.5,19.4,125.5,7.8,115z"/>
</svg>
