<?xml version="1.0" encoding="utf-8"?>
<!-- Generator: Adobe Illustrator 16.0.4, SVG Export Plug-In . SVG Version: 6.00 Build 0)  -->
<!DOCTYPE svg PUBLIC "-//W3C//DTD SVG 1.1//EN" "http://www.w3.org/Graphics/SVG/1.1/DTD/svg11.dtd">
<svg version="1.1" id="Layer_1" xmlns="http://www.w3.org/2000/svg" xmlns:xlink="http://www.w3.org/1999/xlink" x="0px" y="0px"
	 width="65.4px" height="127px" viewBox="0 0 65.4 127" enable-background="new 0 0 65.4 127" xml:space="preserve">
<g>
	<path d="M33.2,38.6c1.4-0.1,2-1.4,1.8-3.1c-0.2-1.8-1-2.9-2.4-2.7c-1.4,0.1-2,1.4-1.8,3.1C31,37.6,31.9,38.7,33.2,38.6z"/>
	<path d="M40.4,37.4c1.1-0.1,1.8-1,1.6-2.6s-1-2.4-2.1-2.3c-1.1,0.1-1.8,1-1.6,2.6C38.5,36.7,39.3,37.5,40.4,37.4z"/>
	<path d="M64,92.7c-3-5.2-10.8-0.8-16.4,4.3c-1.2-3.3-2.4-6.6-2.9-8.9C55.5,83.1,64.6,70.5,63,49.6C60.9,20.7,28.1-0.4,27.1,0
		c-1.7,0.6,1.1,5.3-0.4,18.2C25.2,31,1.9,31.8,0.1,58.5C-1,75,6.9,87.2,28.3,90c-1,2-2.7,5.2-4.2,8.3c-6.1-5.1-15.7-10-18.4-4.1
		c-4.3,9.4,5.1,3.8,5.7,2.2c0,0-2.8,8,3.8,2.3c0,0-1,5.4,3.2,1.9c0,0,2.2,0.2,4.2,1.1c-1.5,3.2-2.5,5.9-2.1,6.3
		c0.2,0.2,1.3,0.5,3,0.8c-0.5,2.5-1.3,7.4-1.3,8.1c-0.1,1.5,1.3,5,1.3,5s-2.6,2.9-2.7,3.5c-0.2,0.5,0,0.9,0.4,0.9l7.1,0
		c0.4,0,0.4-0.4,0.3-0.9c-0.6-2.9-3.5-7.5-3.5-8.6c0-0.7,0.1-5,0.3-7.7c2.6,0.4,5.9,0.8,9.3,1.1c-0.5,2.6-1.2,6.9-1.2,7.5
		c-0.1,1.5,1.3,5,1.3,5s-2.6,2.9-2.7,3.5c-0.2,0.5,0,0.9,0.4,0.9l7.1,0c0.4,0,0.4-0.4,0.3-0.9c-0.6-2.9-3.5-7.5-3.5-8.6
		c0-0.7,0.1-4.5,0.3-7.2c3.2,0.3,6.4,0.4,9,0.4c0.3,2.7,0.6,6.2,0.6,6.9c0,1.1-2.6,5.8-3.1,8.7c-0.1,0.5-0.1,0.9,0.3,0.8l7.1-0.4
		c0.4,0,0.5-0.4,0.3-0.9c-0.2-0.6-2.9-3.3-2.9-3.3s1.2-3.5,1-5c0-0.6-0.9-4.3-1.5-6.9c1.9-0.1,3.2-0.4,3.6-0.9
		c0.8-1-0.2-4.5-1.6-8.5c1.6-0.7,2.9-0.9,2.9-0.9c4.5,3.1,3-2.2,3-2.2c7.1,5.1,3.6-2.6,3.6-2.6C59.3,96.9,69.1,101.6,64,92.7z
		 M35.9,28.4c7.3-0.8,10.7,1.1,11.2,5.8c0.5,4.7-2.5,7.2-9.8,7.9c-7.3,0.7-10.7-1.3-11.2-5.8C25.7,31.8,28.6,29.2,35.9,28.4z
		 M35.1,78.2c-2.2,0.4-6.9,1.1-8.7,1.3c-0.2-2.1,0.3-4-0.4-4.7c-1.3-1.2-4.4-1.1-5.2,0.1c-0.7,1-0.6,2.4-0.6,4.1
		c-9.2-2.8-10-12.9-11.1-23c-0.1-0.8,4.1-2.5,7.5-3.6c0.4,2,0.1,3.3,1.6,3.8c1.5,0.5,3-0.4,4.2-1.4c1-0.8,0.3-1.6-0.1-4
		c3.7-0.8,12.4-2.3,16.2-2.9c0.4,2.1-0.3,2.9,1.2,3.8c0.5,0.3,3.3-0.2,4.4-1.1c0.8-0.8,0.4-1.1,0-3.3c3.6-0.2,7.7,0.1,7.8,0.9
		c1.9,9.3,5.1,19-2.2,25c-0.6-1.8-1.1-3.2-1.9-3.6c-1.5-0.7-3.7,0.9-4.2,2.4c-0.4,1.3,0.6,2,1,3.8C42.8,76.5,37.3,77.8,35.1,78.2z"
		/>
</g>
</svg>
