<?xml version="1.0" encoding="utf-8"?>
<!-- Generator: Adobe Illustrator 16.0.4, SVG Export Plug-In . SVG Version: 6.00 Build 0)  -->
<!DOCTYPE svg PUBLIC "-//W3C//DTD SVG 1.1//EN" "http://www.w3.org/Graphics/SVG/1.1/DTD/svg11.dtd">
<svg version="1.1" id="Layer_1" xmlns="http://www.w3.org/2000/svg" xmlns:xlink="http://www.w3.org/1999/xlink" x="0px" y="0px"
	 width="111.4px" height="119.4px" viewBox="0 0 111.4 119.4" enable-background="new 0 0 111.4 119.4" xml:space="preserve">
<g>
	<circle cx="44.5" cy="25.6" r="4.3"/>
	<circle cx="66.8" cy="25.6" r="4.3"/>
	<path d="M108.1,102.7l-3-23.9L95.1,45.4c0-0.4,0-0.8,0-1.2c0-7.9-1.801-15.4-5-21.8c2.5-1.3,4.199-3.9,4.199-6.9
		c0-4.3-3.5-7.8-7.8-7.8c-2.2,0-4.2,0.9-5.6,2.3C74.2,3.8,65.6,0,56.3,0C46.6,0,37.8,4,31,10.7c-1.399-1.8-3.6-3-6.1-3
		c-4.3,0-7.8,3.5-7.8,7.8c0,3.4,2.199,6.3,5.199,7.4C19.9,27.8,18.3,33.3,17.7,39.2L7.9,80.8L3.2,103c-1.2,0.8-3.9,2.9-3.1,4.601
		c0.8,0.3,1.699,0.899,3.1-1.101c-0.2,1.3-0.2,2.601,0.9,3c0.8,0,1.699-0.1,2-2.3c0.1,1,0.3,2.4,1.6,2.3c0.6-0.1,1.6-0.6,1.1-3.3
		c0.801,0.2,1.7,0,2.101-0.6c0.5-0.801,0.1-2-0.9-2.601c-0.5-0.3-1-0.399-1.5-0.3L12,81.1L20,60C24.1,72.3,32.8,81.9,43.7,86.2
		c-0.3,4.3-1.4,21.9-2,27.7c-8.3-6.2-15.9,5.5-15.9,5.5h21.4l-0.7-32.2c3.101,0.9,6.4,1.4,9.7,1.4c2.9,0,5.7-0.4,8.5-1.101
		l-0.6,31.9H85.5c0,0-7.6-11.7-15.899-5.5c-0.601-5.601-1.7-22.3-2-27.2c11.1-3.9,20.1-13.2,24.5-25.3l8.399,18.2l2.3,22.699
		c-0.5,0-1,0.101-1.5,0.301c-1,0.6-1.399,1.8-0.899,2.6c0.399,0.7,1.3,0.9,2.1,0.6c-0.5,2.7,0.5,3.2,1.101,3.301
		c1.3,0.1,1.5-1.301,1.6-2.301c0.2,2.2,1.1,2.301,2,2.301c1.1-0.301,1.1-1.7,0.9-3c1.399,2.1,2.3,1.5,3.1,1.199
		C112,105.6,109.3,103.5,108.1,102.7z M45.3,13.2c4.9,0,9,2.9,10.9,7c1.9-4.1,6.1-7,10.9-7c6.6,0,12,5.4,12,12s-5.4,12-12,12
		c-4.9,0-9-2.9-10.9-7c-1.9,4.1-6.1,7-10.9,7c-6.6,0-12-5.4-12-12S38.7,13.2,45.3,13.2z M24.7,55.9c3,1.3,6,2.399,8.9,3.3L33.5,61.7
		l2.3-1.9c1.7,0.5,3.4,0.801,5,1.2l0.4,4l2.9-3.399C45,61.7,45.8,61.8,46.6,61.9l2.1,6.399l3.9-6c0.8,0,1.699,0,2.5,0l2.6,6.2
		l3.7-6.5c1.6-0.2,3.1-0.399,4.6-0.6l3.9,4.7l1.6-5.801c1.8-0.399,3.4-0.899,5-1.3L79,61.1l0.8-3.2c3.4-1.2,6.101-2.3,8-3
		C56.3,91.7,24.7,55.9,24.7,55.9z"/>
</g>
</svg>
