<?xml version="1.0" encoding="utf-8"?>
<!-- Generator: Adobe Illustrator 16.0.4, SVG Export Plug-In . SVG Version: 6.00 Build 0)  -->
<!DOCTYPE svg PUBLIC "-//W3C//DTD SVG 1.1//EN" "http://www.w3.org/Graphics/SVG/1.1/DTD/svg11.dtd">
<svg version="1.1" id="Layer_1" xmlns="http://www.w3.org/2000/svg" xmlns:xlink="http://www.w3.org/1999/xlink" x="0px" y="0px"
	 width="98.7px" height="120.1px" viewBox="0 0 98.7 120.1" enable-background="new 0 0 98.7 120.1" xml:space="preserve">
<g>
	<path fill="#1D1D1B" d="M39.1,44.6c-1.7,0-2.6,1.3-2.6,2.9c0,1.6,0.7,2.9,2.6,2.9c2,0,2.6-1.3,2.6-2.9
		C41.7,45.9,40.9,44.6,39.1,44.6z"/>
	<path fill="#1D1D1B" d="M46.3,55.1c-1.7,0-2.6,1.3-2.6,2.9c0,1.6,0.7,2.9,2.6,2.9c2,0,2.6-1.3,2.6-2.9
		C48.9,56.4,48.1,55.1,46.3,55.1z"/>
	<path fill="#1D1D1B" d="M60.3,54.4c-1.7,0-2.6,1.3-2.6,2.9c0,1.6,0.7,2.9,2.6,2.9c2,0,2.6-1.3,2.6-2.9C63,55.7,62.1,54.4,60.3,54.4
		z"/>
	<path fill="#1D1D1B" d="M91.8,3.5c-7-5.1-14-4.4-17.4,0.3c-1.7,2.3-2.5,4.8-2.2,7.3c-5.9-2.3-13.1-3.5-21.6-3.5
		c-10.6,0-19.3,2-25.9,5.6c0.4-3-0.2-6.3-2.5-8.6C18.3,0.5,11.3,0.9,5.1,7C-1,13.1-1.4,20.1,2.6,24.2c2.6,2.6,5.7,4,9.3,3
		c-1.4,3.5-2.1,7.4-2.1,11.6c0,13.1,6.9,23.1,20,27.9c-2,8.2-5,22.2-5.1,24.1c-0.2,4.9,5.2,15.5,5.2,15.5s-10.3,9.1-11.1,10.9
		c-0.6,1.5-0.2,2.8,1.4,2.8l28.7,0c1.6,0,1.6-1.1,1.1-2.7c-2.5-9.1-14.1-23.4-14.3-26.8c-0.1-2.1,0.4-13.4,1.1-21.8
		c4.1,0.8,8.7,1.3,13.7,1.3c6,0,11.4-0.7,16.1-1.9c0.7,8.4,1.2,20.2,1.1,22.4c-0.1,3.4-11.8,17.7-14.3,26.8
		c-0.4,1.6-0.5,2.7,1.1,2.7l28.7,0c1.6,0,2.1-1.3,1.4-2.8c-0.8-1.8-11.1-10.9-11.1-10.9s5.4-10.7,5.2-15.5c-0.1-2-3.3-17.1-5.3-25.1
		c11.6-5.1,17.8-14.7,17.8-27c0-5.6-1.2-10.6-3.7-14.8c3.3,0.1,6.9-0.9,9-3.9C100.4,15.4,98.8,8.6,91.8,3.5z M17.3,17.5
		c-4.8,4.8-10.6-1-5.7-5.8C16.4,6.9,22.2,12.7,17.3,17.5z M65.9,27.5c3,0,4.6,1.9,4.6,4.7c0,2.9-1.6,4.7-4.6,4.7
		c-3,0-4.6-1.9-4.6-4.7C61.3,29.4,62.9,27.5,65.9,27.5z M37.9,26.8c3,0,4.6,1.9,4.6,4.7c0,2.8-1.6,4.7-4.6,4.7c-3,0-4.6-1.9-4.6-4.7
		C33.2,28.6,34.9,26.8,37.9,26.8z M68.8,62.1c-7.3,3.7-25.5,3.7-32.8,0c-9.7-4.9-9.8-10.7-7.1-16.3c2.8-5.6,23.5-5,23.5-5
		s20.7-0.5,23.5,5C78.6,51.4,78.5,57.3,68.8,62.1z M83.5,17.2c-5.5-4-0.7-10.6,4.8-6.6C93.8,14.6,89,21.2,83.5,17.2z"/>
	<path fill="#1D1D1B" d="M53,44.6c-1.7,0-2.6,1.3-2.6,2.9c0,1.6,0.7,2.9,2.6,2.9c2,0,2.6-1.3,2.6-2.9C55.6,45.9,54.7,44.6,53,44.6z"
		/>
	<path fill="#1D1D1B" d="M66.3,44.6c-1.7,0-2.6,1.3-2.6,2.9c0,1.6,0.7,2.9,2.6,2.9c2,0,2.6-1.3,2.6-2.9C68.9,45.9,68,44.6,66.3,44.6
		z"/>
</g>
</svg>
