<?xml version="1.0" encoding="utf-8"?>
<!-- Generator: Adobe Illustrator 16.0.4, SVG Export Plug-In . SVG Version: 6.00 Build 0)  -->
<!DOCTYPE svg PUBLIC "-//W3C//DTD SVG 1.1//EN" "http://www.w3.org/Graphics/SVG/1.1/DTD/svg11.dtd">
<svg version="1.1" id="Layer_1" xmlns="http://www.w3.org/2000/svg" xmlns:xlink="http://www.w3.org/1999/xlink" x="0px" y="0px"
	 width="97.8px" height="107.6px" viewBox="0 0 97.8 107.6" enable-background="new 0 0 97.8 107.6" xml:space="preserve">
<path d="M37.8,21.4c-7.1,7.1,10.8,19,10.8,19s15.3-10.1,11.9-17.1c-3.4-7.1-10.8,0-10.8,0S44.8,14.4,37.8,21.4z M36.8,70.1
	c0,1.4,0.9,2.3,2.3,2.3c1.4,0,2.3-0.9,2.3-2.3c0-1.4-0.9-2.3-2.3-2.3C37.7,67.8,36.8,68.7,36.8,70.1z M49.4,70
	c0,2.1,1.4,3.5,3.4,3.4c2,0,3.4-1.4,3.4-3.4c0.1-2.1-1.3-3.4-3.4-3.4C50.6,66.5,49.3,67.9,49.4,70z M26.9,94.2
	c-0.3,3.1-0.6,6-0.7,8.3c-3.3,0.8-8,3-6.5,4.5c0.9,0.9,12.3,0.6,13.5,0c1.1-0.6-0.3-2.3-0.9-3.1c-0.3-3.1-0.5-6.3-0.4-9.5
	c5.8,0.2,12.7,0.4,21,0.5c5.1,0.1,9.7,0.2,13.7,0.2c-0.3,2.8-0.5,5.3-0.6,7.4c-3.3,0.8-8,3-6.5,4.5c0.9,0.9,12.3,0.6,13.5,0
	c1.1-0.6-0.3-2.3-0.9-3.1c-0.3-2.9-0.4-5.9-0.4-8.9c29.3-0.6,26.2-7.7,26.2-57.5c0-19.1-23-37.6-48-37.6C26.1,0,0,16.5,0,38.7
	C0,84.2,1.6,92.6,26.9,94.2z M30.4,70.1c0.3-5.2,5.7-7.7,16.4-7.4c10.7,0,16.2,2.5,16.5,7.4c0.9,5-4.6,7.4-16.5,7.3
	C34.9,77.7,29.4,75.3,30.4,70.1z M49.1,11.1c16.9-0.1,27,7.2,26.1,18.8C75,41.6,64.9,49,49.1,48.9c-15.8,0.3-25.8-7-26.1-19
	C22.2,18,32.2,10.8,49.1,11.1z"/>
</svg>
