<?xml version="1.0" encoding="utf-8"?>
<!-- Generator: Adobe Illustrator 16.0.4, SVG Export Plug-In . SVG Version: 6.00 Build 0)  -->
<!DOCTYPE svg PUBLIC "-//W3C//DTD SVG 1.1//EN" "http://www.w3.org/Graphics/SVG/1.1/DTD/svg11.dtd">
<svg version="1.1" id="Layer_1" xmlns="http://www.w3.org/2000/svg" xmlns:xlink="http://www.w3.org/1999/xlink" x="0px" y="0px"
	 width="99.1px" height="82.1px" viewBox="0 0 99.1 82.1" enable-background="new 0 0 99.1 82.1" xml:space="preserve">
<path d="M43.1,27.1c2.8,0,4.9-2,4.7-4.7c-0.1-2.7-2.1-4.7-4.7-4.7c-2.6,0-4.6,2-4.7,4.7C38.2,25.1,40.2,27.2,43.1,27.1z M60.4,22.4
	c-0.1-2.3-1.8-4-4-4c-2.2,0-3.9,1.7-4,4c-0.1,2.3,1.6,4,4,4C58.8,26.4,60.6,24.7,60.4,22.4z M98.6,32c-3-19.6-22.1-32.3-49-32
	c-26.9-0.3-46,12.3-49,32c-2.9,14.6,6.8,25,25.8,29.3c0.8,5.9,0.8,11.7,0.2,17.4c-0.6,0.8-1.9,2.4-0.9,2.9c1.1,0.5,10.8,0.9,11.7,0
	c1.4-1.4-2-3.5-5.1-4.2c-0.2-4-0.8-9.4-1.6-15.2c5,0.8,10.5,1.3,16.6,1.3c0.5,5.2,0.5,10.2,0,15.3c-0.6,0.8-1.9,2.4-0.9,2.9
	c1.1,0.5,10.8,0.9,11.7,0c1.4-1.4-2-3.5-5.1-4.2c-0.2-3.7-0.7-8.6-1.4-13.9c5.9,0,11.3-0.4,16.3-1.2c0.7,5.6,0.7,11.1,0.1,16.5
	c-0.6,0.8-1.9,2.4-0.9,2.9c1.1,0.5,10.8,0.9,11.7,0c1.4-1.4-2-3.5-5.1-4.2c-0.3-4.1-0.8-9.8-1.7-15.9C91.5,57.3,101.6,46.8,98.6,32z
	 M51.2,22.4C51.5,16.5,56,12,61.7,12c5.7,0,10.2,4.5,10.4,10.4c0.3,6-4.2,10.5-10.4,10.4C55.4,32.9,50.9,28.4,51.2,22.4z M24.4,22.4
	c0.3-7.1,5.7-12.5,12.4-12.5c6.8,0,12.1,5.3,12.4,12.5c0.4,7.1-5,12.5-12.4,12.4C29.4,34.9,24,29.6,24.4,22.4z M84.6,37
	c-2.6,0.5-5.2,0.9-7.8,1.3c0.1,0.3,0.2,0.7,0.2,1.2c0.2,2.4-0.6,3.5-2.6,3.7c-2,0.3-3.1-0.6-3.6-2.9c-0.1-0.5-0.2-0.8-0.2-1.2
	c-3.6,0.5-7.3,0.8-10.9,1.1c0.1,0.4,0.2,0.9,0.1,1.5c0,2.4-0.9,3.5-3,3.4c-2,0.1-3-0.9-3.2-3.2c-0.1-0.5-0.1-1,0-1.4
	c-3.4,0.2-6.9,0.2-10.3,0.2c0.1,0.5,0.1,1,0.1,1.6c-0.2,2.4-1.1,3.4-3.2,3.3c-2,0-3-1.1-3-3.4c-0.1-0.6,0-1.1,0.1-1.6
	c-3.2-0.1-6.3-0.2-9.5-0.4c0.1,0.4,0,0.9-0.1,1.4c-0.3,2.4-1.3,3.3-3.3,3.1c-2-0.1-2.9-1.2-2.9-3.6c0-0.6,0-1,0.2-1.4
	c-2.3-0.2-4.7-0.4-7.1-0.7c-0.3,0-1.2-0.9-0.9-0.8c24.3,2.6,47.6,2.1,71.7-2.7C85.7,35.6,84.9,37,84.6,37z"/>
</svg>
