<?xml version="1.0" encoding="utf-8"?>
<!-- Generator: Adobe Illustrator 16.0.4, SVG Export Plug-In . SVG Version: 6.00 Build 0)  -->
<!DOCTYPE svg PUBLIC "-//W3C//DTD SVG 1.1//EN" "http://www.w3.org/Graphics/SVG/1.1/DTD/svg11.dtd">
<svg version="1.1" id="Layer_1" xmlns="http://www.w3.org/2000/svg" xmlns:xlink="http://www.w3.org/1999/xlink" x="0px" y="0px"
	 width="106.6px" height="116.3px" viewBox="0 0 106.6 116.3" enable-background="new 0 0 106.6 116.3" xml:space="preserve">
<path d="M62.1,16.2c0,0-0.8-8.9-3-15c0,0-3.9,3.5-4.3,6.5c0,0-3.6-4.6-6.1-7.7c0,0-1,3.4-1.4,6.7c0,0-2.5-2.3-4.8-3.8
	c0,0,1.2,12.4,1.7,14.8C44.2,17.8,54.3,17.8,62.1,16.2z M106.4,47.9c-0.5-0.8-2-0.7-2.6-0.2c-0.4,0.3-0.8,1.1-1.3,0.9
	c-0.6-0.2-0.9-1.1-0.9-1.7c0-0.7,1-1.1,1.5-1.7c0.6-0.5,0.9-2,0.1-2.6c-0.8-0.6-2.1,0.1-2.4,0.8c-0.3,0.6-0.4,1.5-1,1.6
	c-0.9,0.2-1.9-0.4-2.3-1.1c-0.3-0.6,0.6-1.2,0.9-1.7c0.4-0.7,0.3-2.1-0.5-2.5c-0.9-0.3-2,0.6-2.1,1.4c-0.2,0.9-0.2,2-0.9,2.6
	c-0.8,0.6-1.6,1.2-2.5,1.3c-0.7,0-1-1-1.4-1.5c-0.5-0.6-2-0.9-2.7-0.1c-0.7,0.9-0.3,2.3,0.4,2.7c0.6,0.4,1.5,0.9,1.1,1.5
	c-2,3.4-4.6,6.3-7.7,8.8c-0.9-11.3-2.7-20.5-6.7-26.2c-4.6-7.1-12.2-9.1-21.6-9.5c-9.4,0.1-17,1.9-21.6,9c-4,5.8-5.8,15.5-6.7,27.5
	c-3.5-2.6-6.6-5.8-8.8-9.6c-0.4-0.6,0.5-1.1,1.1-1.5c0.7-0.4,1.1-1.8,0.4-2.7c-0.8-0.8-2.3-0.5-2.7,0.1c-0.5,0.5-0.7,1.6-1.4,1.5
	c-1,0-1.7-0.6-2.5-1.3c-0.7-0.6-0.6-1.7-0.9-2.6c-0.2-0.8-1.3-1.7-2.1-1.4c-0.9,0.4-0.9,1.8-0.5,2.5c0.3,0.6,1.1,1.1,0.9,1.7
	c-0.3,0.7-1.4,1.3-2.3,1.1c-0.6-0.1-0.7-1.1-1-1.6c-0.4-0.7-1.7-1.4-2.4-0.8c-0.7,0.6-0.4,2,0.1,2.6c0.5,0.5,1.5,0.9,1.5,1.7
	c0,0.7-0.3,1.5-0.9,1.7c-0.5,0.2-0.9-0.6-1.3-0.9c-0.6-0.5-2-0.6-2.6,0.2c-0.5,0.8,0.5,1.9,1.1,2.3c1.2,0.9,1.7,1.2,2.5,2
	c0.5,0.5,0.8,0.7,1.3,1.2c5.9,5.8,12.7,10.4,20,13.7c-0.2,13.1,0.7,23.5,5,29.5c2.8,4.1,7,6.2,12.4,7.3c-0.4,3.4-0.7,6.6-0.9,8.9
	c-2.3,0.5-4.8,2.1-3.8,3.1c0.6,0.6,7.8,0.4,8.6,0c0.8-0.4-0.2-1.6-0.6-2.1c-0.3-3.1-0.4-6.3-0.2-9.4c2.5,0.3,5.3,0.4,8.1,0.4
	c5-0.2,9.5-0.6,13.4-1.8c0.3,3.4,0.2,6.7-0.1,10c-0.4,0.6-1.4,1.8-0.6,2.1c0.8,0.4,8,0.6,8.6,0c1.1-1.1-1.5-2.6-3.8-3.1
	c-0.2-2.7-0.5-6.3-1-10.1c3-1.3,5.4-3.2,7.3-5.9c4.4-6,5.3-16.4,5.1-29.4c6.9-3.3,13.3-7.7,18.9-13.2c0.5-0.5,0.9-0.7,1.3-1.2
	c0.8-0.8,1.3-1.1,2.5-2C106,49.7,106.9,48.7,106.4,47.9z M44.8,32.5c6.4,0.3,6.5,7,5.5,6.5c-0.5-0.3-2.1-3.2-5-3.1
	c-2.9,0.1-4.4,2.9-5.6,3.1C38.1,39.5,38.4,32.5,44.8,32.5z M50.1,79.8c1.6,1.6,1.8,5.5,0.9,7.6c-0.9,2.1-9.8,1.9-10.9,0.8
	c-1.1-1.1-0.5-2,0.5-3c1-1,6.7,0.5,6.7-2.1c0-4.1-6.1-4.2-6.4-5.5c-0.5-1.8,4.3-4.4,4.1-5.1c-0.5-1.5-4.5-0.4-4.5-1.7
	c0-2.2,9.2-3.7,11-1.8c1.8,1.8-6.4,5.6-6.4,7.2C45.1,77.7,48.5,78.2,50.1,79.8z M48.7,49.5h9.5c0,0,0.5,5.2-4.5,5.2
	C48.3,54.7,48.7,49.5,48.7,49.5z M60.9,76.1c0,1.6,3.4,2.1,5,3.7c1.6,1.6,1.8,5.5,0.9,7.6c-0.9,2.1-9.8,1.9-10.9,0.8
	c-1.1-1.1-0.5-2,0.5-3c1-1,6.7,0.5,6.7-2.1c0-4.1-6.1-4.2-6.4-5.5c-0.5-1.8,4.3-4.4,4.1-5.1c-0.5-1.5-4.5-0.4-4.5-1.7
	c0-2.2,9.2-3.7,11-1.8C69.1,70.7,60.9,74.5,60.9,76.1z M66.8,39c-1.1-0.3-2.7-3-5.6-3.1c-3-0.1-4.5,2.9-5,3.1
	c-1,0.4-0.9-6.3,5.5-6.5C68,32.5,68.4,39.5,66.8,39z"/>
</svg>
