<?xml version="1.0" encoding="utf-8"?>
<!-- Generator: Adobe Illustrator 16.0.4, SVG Export Plug-In . SVG Version: 6.00 Build 0)  -->
<!DOCTYPE svg PUBLIC "-//W3C//DTD SVG 1.1//EN" "http://www.w3.org/Graphics/SVG/1.1/DTD/svg11.dtd">
<svg version="1.1" id="Layer_1" xmlns="http://www.w3.org/2000/svg" xmlns:xlink="http://www.w3.org/1999/xlink" x="0px" y="0px"
	 width="159.8px" height="113.1px" viewBox="0 0 159.8 113.1" enable-background="new 0 0 159.8 113.1" xml:space="preserve">
<path d="M159.7,75.9c-0.1-1.3-0.3-1.8-0.2-2.8c0-0.6-0.1-0.9-0.1-1.6c0-1.5-0.9-3.5-1.5-4.4c-0.5-0.7-1.5-1.4-1.5-2.1
	c-0.7-8.1-11.8-23.6-21.1-29C128.1,16.5,111.9-0.8,77.5,0C44.4,0.8,29.4,17.1,23.2,35.8C14.3,42,4,57,3.3,65.2
	c-0.1,0.7-1,1.3-1.5,2.1c-0.6,0.9-1.5,2.9-1.5,4.4c0,0.7-0.1,0.9-0.1,1.6c0.1,1-0.1,1.5-0.2,2.8c-0.1,0.7,0,1.9,0.8,2.1
	c0.8,0.2,1.6-0.8,1.6-1.5c0-0.5-0.2-1.1,0.2-1.3c0.5-0.2,1.2,0.1,1.6,0.5c0.5,0.5,0.1,1.3,0.2,1.9c0,0.7,0.7,1.7,1.5,1.6
	c0.8-0.2,1.2-1.4,0.9-2c-0.2-0.5-0.7-1.2-0.4-1.6c0.4-0.6,1.4-1,2-0.8c0.5,0.2,0.4,1.1,0.6,1.6c0.2,0.6,1.1,1.5,1.9,1.1
	c0.7-0.4,0.8-1.6,0.4-2.2c-0.4-0.7-1.2-1.3-1.1-2.1c0.1-0.9,0.2-1.7,0.7-2.4c0.4-0.4,1.2,0,1.8,0c0.7,0.1,1.8-0.7,1.7-1.7
	c-0.1-1-1.3-1.5-1.9-1.4c-2.1,0.3-2.9-1-3.7-1.6c-1.2-0.9-2.6-1.2-2.7-1.7c-1.1-7,7-16.8,15.1-22c-5.4,24,1.3,49.2,1.3,49.2
	c0.6,0.6,3.6,1.1,8.3,1.6c-0.4,3.8-0.7,11,0.3,19.6h11.7c0,0-1.1-2.6-3.9-3.9c-2-0.9-1-10.2-0.3-15.1c5.6,0.4,12.3,0.6,19.6,0.8
	c-0.3,4-0.5,10.5,0.5,18.1h11.7c0,0-1.1-2.6-3.9-3.9c-1.9-0.9-1.1-9-0.5-14.1c8.7,0.2,17.9,0.2,26.7,0.1c-0.3,4-0.5,10.4,0.5,17.9
	H105c0,0-1.1-2.6-3.9-3.9c-1.9-0.9-1.1-9-0.5-14.1c7.2-0.2,14-0.4,19.8-0.8c-0.3,3.9-0.6,10.8,0.4,18.8h11.7c0,0-1.1-2.6-3.9-3.9
	c-2.1-1-0.9-10.9-0.3-15.6c5.9-0.6,9.9-1.5,11-2.6c0,0,4.5-24.8-1.9-48.5c8.5,5,17.2,15.7,16.2,22c-0.1,0.5-1.5,0.7-2.7,1.7
	c-0.8,0.6-1.6,1.9-3.7,1.6c-0.7-0.1-1.8,0.4-1.9,1.4c-0.1,1,1,1.7,1.7,1.7c0.6,0,1.4-0.5,1.8,0c0.6,0.6,0.6,1.5,0.7,2.4
	c0.1,0.8-0.7,1.4-1.1,2.1c-0.4,0.6-0.3,1.8,0.4,2.2c0.8,0.3,1.7-0.5,1.9-1.1c0.2-0.5,0-1.4,0.6-1.6c0.6-0.2,1.6,0.1,2,0.8
	c0.3,0.5-0.2,1.1-0.4,1.6c-0.2,0.6,0.1,1.9,0.9,2c0.8,0.1,1.5-0.9,1.5-1.6c0-0.7-0.3-1.5,0.2-1.9c0.4-0.4,1.1-0.7,1.6-0.5
	c0.4,0.2,0.1,0.9,0.2,1.3c0,0.7,0.8,1.7,1.6,1.5C159.7,77.7,159.8,76.6,159.7,75.9z M96,33.4c0.3-4,4.8-6.1,13.4-6
	c8.7-0.2,13.1,1.9,13.3,6.1c0.8,4.2-3.6,6.2-13.3,5.9C99.7,39.4,95.2,37.4,96,33.4z M118.8,61.7l-1.2-1.4l-2.3,1l0.5,1.6
	c-1.3,0.3-2.9,0.5-4.7,0.5c-0.5,0-1,0-1.4,0l-0.3-1.7l-2.5-0.1l-0.4,1.2c-5.5-1.9-5.3-14.1-5.3-14.1l0.2-0.5c0,0,1.5,0.1,3.7,0.1
	l-0.2,2.8l3.4,0.2l0.6-3c2.2-0.1,4.6-0.2,7-0.5l0.5,2l2.3-0.4l-0.4-2c1.6-0.3,3.1-0.7,4.5-1.2C122.8,46.2,124.1,58.8,118.8,61.7z
	 M117,35.2c1.1,0,1.9-0.7,1.8-1.8c0-1.1-0.7-1.9-1.8-1.8c-1.1,0-1.9,0.7-1.8,1.8C115.2,34.6,115.9,35.3,117,35.2z M104.9,31
	c-1.5,0-2.5,0.9-2.4,2.4c0,1.5,0.9,2.5,2.4,2.4c1.5,0,2.5-0.9,2.4-2.4C107.4,31.9,106.4,30.9,104.9,31z"/>
</svg>
