<?xml version="1.0" encoding="utf-8"?>
<!-- Generator: Adobe Illustrator 16.0.4, SVG Export Plug-In . SVG Version: 6.00 Build 0)  -->
<!DOCTYPE svg PUBLIC "-//W3C//DTD SVG 1.1//EN" "http://www.w3.org/Graphics/SVG/1.1/DTD/svg11.dtd">
<svg version="1.1" id="Layer_1" xmlns="http://www.w3.org/2000/svg" xmlns:xlink="http://www.w3.org/1999/xlink" x="0px" y="0px"
	 width="116.5px" height="105.3px" viewBox="0 0 116.5 105.3" enable-background="new 0 0 116.5 105.3" xml:space="preserve">
<g>
	<path d="M116.1,47.2c-1.7-3-5.8,2.1-8.2,2.1c-2.4,0-32.6-2-35.2-3c-2.6-0.9,2.1-30.5,1.5-34.3C73.7,8.2,74,2.3,61.1,0.2
		C48.1-1.9,39.5,11.6,30.7,28.4c-8.9,16.7-6.6,34.5-5.5,34.2c1.1-0.3,8.3-20.5,10.4-25.6c2.1-5.1,13.2-22.1,15.6-20.1
		c2.4,2-10,16-8,17.3c2,1.3,8.9-9.8,10.8-10.8c2-1,3.8-0.8,8.9,0s5.5,11,5.9,16.6c0.3,3.4-1.3,13.3-1.5,22.7
		c-2.8,1.3-9.2,4.4-10.3,3.7c-1.3-0.8-0.6-5.7-3.2-6c-2.6-0.3-21.2,7.1-22,8.9c-0.4,1-0.1,1.5-0.4,1.8c-0.3,0.2-1.3,0.2-1.4,0.9
		c-0.1,0.7,1.4,5.8,2.1,5.9c0.7,0.1,1.2-0.5,1.9-0.6c0.7-0.1,0.7,1,1.3,1c0.6,0,10.8-3.4,11.6-3c0.8,0.4,2.7,6.5,3.9,7
		c1.1,0.5,8.2-1.6,8.2-2.5s-1.7-4.4-1.3-5.6c0.3-0.9,6.8-1.1,10.1-1.3c0.4,2.2,0.9,4,1.7,5.5c1.1,2,3.3,3.3,6,4
		c-1.1,4.1-2,11.1-0.2,18.1c-5.2,0.7-5.1,3.8-5,4.6c0,0.1,0.1,0.2,0.2,0.2l10.8-0.3c0.1,0,0.2-0.1,0.2-0.2c0-0.6,0.1-2.5-1.2-3.6
		c-2.5-8.4-1.4-13.6-0.6-18.1c4.5,0.3,9.6-0.2,14-1.2c-1.1,4.1-2,11-0.2,18.1c-5.2,0.7-5.1,3.8-5,4.6c0,0.1,0.1,0.2,0.2,0.2
		l10.8-0.3c0.1,0,0.2-0.1,0.2-0.2c0-0.6,0.1-2.5-1.2-3.6c-2.9-9.5-1-15-0.3-19.9c2.3-0.7,4.2-1.5,5.2-2.3c4.9-3.7,8.3-20.3,9.1-22.7
		C113.5,53.4,117.8,50.2,116.1,47.2z M61.4,17.9c-3.5,0-5.3-2.1-5.3-5.4c0-3.3,1.9-5.4,5.3-5.4c3.5,0,5.3,2.1,5.3,5.4
		C66.8,15.8,64.9,17.9,61.4,17.9z M92.3,78c-0.8,0.1-0.8-3.1-1.5-3.2c-0.6-0.1-1.7,3.8-2.4,3.7c-0.7-0.1-1-3.5-1.4-3.7
		c-0.4-0.3-1.9,4.5-2.7,4c-0.8-0.5,0-6.6-0.8-7.3c-0.8-0.7-3.7,2-4.2,1.2c-1.2-1.7,5.3-6,6.4-8.7c1.2-3.2-2.4-6.9,0.5-9.8
		c3-2.8,8,4.7,8,11.6C94.3,71.9,93.1,77.9,92.3,78z"/>
	<path d="M15.3,67.5c-0.2,0.3,1.8,5,0.8,6.2c-1,1.3-5.2,0.4-5.5,1.1c-0.3,0.7,3,2.8,2.5,3.3C12.7,78.5-0.3,85.8,0,86.5
		c0.3,0.8,14.4-4,15.1-4.1c0.6-0.1,0,3.8,0.7,4.1c0.7,0.3,2.9-3.4,4.5-3.3c1.6,0.1,3.7,4.8,4.1,4.8s4.1-8.4,1.9-13.1
		C24.1,70.3,15.5,67.3,15.3,67.5z M16.8,79.6c-0.2-0.6,4.1-5.8,5.4-3.2C23.6,79.3,16.9,80.2,16.8,79.6z"/>
	<path d="M59.6,12.6c0,2.1,4.1,2.6,4.1,0C63.7,10,59.6,9.9,59.6,12.6z"/>
</g>
</svg>
