<?xml version="1.0" encoding="utf-8"?>
<!-- Generator: Adobe Illustrator 16.0.4, SVG Export Plug-In . SVG Version: 6.00 Build 0)  -->
<!DOCTYPE svg PUBLIC "-//W3C//DTD SVG 1.1//EN" "http://www.w3.org/Graphics/SVG/1.1/DTD/svg11.dtd">
<svg version="1.1" id="Layer_1" xmlns="http://www.w3.org/2000/svg" xmlns:xlink="http://www.w3.org/1999/xlink" x="0px" y="0px"
	 width="62px" height="70px" viewBox="0 0 62 70" enable-background="new 0 0 62 70" xml:space="preserve">
<g>
	<path d="M21.8,34.1c4.1,1.9,11.8,1.4,10.7-4.5C29.9,32,26.1,33.3,21.8,34.1z M8.7,28.7c2.4,2.9,9,3.3,12,1c1.6-1.1,3.5-5.3,1-8.2
		c-1-1.2-4.1-2.5-6.8-2.4c-1.4,0.1-2.7,0.3-3.5,0.7C8.8,21,5.9,25.2,8.7,28.7z M58.3,34.8c1.3,0.4,4,1.2,3.7,2.9
		c-0.4,2.1-3-0.3-3.7-0.6c-4-1.8-11.1-2.3-16.9-2c0.3,5.4-0.2,10.6-2.2,14.8c-1.5,3.2-4.4,5.6-5.1,8.8c-0.9,4.1,1.1,7.2,4.3,7.6
		c0.4,0.1,1.8-0.3,2.4,0.2c0.8,0.7,0.6,3.3-0.6,3.5c-1.3,0.2-1.4-0.9-1.7-1.8c-5.3-0.5-7.9-6.4-5.7-11.8c-2.3-1.2-4.3-1.6-6.8-2.5
		c-0.6-0.2-1.8-0.8-2.3-0.8c-1,0.1-2.2,2-2.8,2.9c-1.6,2.4-2.7,4.5-3.2,8c-0.2,1.5-0.3,4.1-1,4.6c-2.5,1.5-4.3-2.2-1-2.3
		c0.8-5.6,2.3-9.5,5.1-12.7c0.8-0.9,1.9-1.5,2.7-2.5c2.3-2.9,4.1-6.7,4-11.8c-3.4,2.8-8.8,5.6-15.5,5.1c-1.7-0.1-4.5-0.8-4.9-2.2
		c-0.2-1.1,0.4-1.8,1-1.8c0.8,0,1,0.8,1.7,1.1c0.8,0.4,1.9,0.6,2.8,0.7c5.4,0.4,10.6-2,13.7-4.6C12.6,39.2,0.9,33.2,1.9,18.9
		c0.1-1,0.8-2.2,0.7-3.4c-0.2-1.7-2.9-2.4-2.6-4.7c0.3-2,3.3-2.1,5-1.2c4-7.9,18.7-12.4,29.1-6.9c1.1-0.5,2.3-2.2,3.9-2.6
		c4.3-1,2.6,4.2,1.9,6.6c1.8,2,3.8,4.5,4.4,7.7c1.3,6.8-1.2,12.5-4.7,15.9c0.4,0.9,0.9,1.7,1,2.9C46.8,32.1,53.2,33.3,58.3,34.8z
		 M30.1,27.2c2.3-0.1,4-2,4-4.1c0-2.4-2-3.4-4.5-3.2c-1.8,0.1-3,1-3.4,1.9C24.8,24.9,27.4,27.4,30.1,27.2z"/>
	<path fill="#FFFFFF" d="M21.8,34.1c4.3-0.8,8-2.1,10.7-4.5C33.6,35.5,25.9,36,21.8,34.1z"/>
	<path fill="#46E0C6" d="M30.1,27.2c-2.7,0.1-5.3-2.4-3.9-5.4c0.4-0.9,1.7-1.8,3.4-1.9c2.5-0.2,4.4,0.9,4.5,3.2
		C34.1,25.2,32.4,27.1,30.1,27.2z"/>
	<path fill="#46E0C6" d="M20.7,29.7c-3,2.2-9.6,1.9-12-1c-2.8-3.4,0.1-7.7,2.8-8.8c0.9-0.4,2.1-0.6,3.5-0.7c2.7-0.2,5.8,1.2,6.8,2.4
		C24.1,24.5,22.2,28.6,20.7,29.7z"/>
</g>
</svg>
