<?xml version="1.0" encoding="utf-8"?>
<!-- Generator: Adobe Illustrator 16.0.4, SVG Export Plug-In . SVG Version: 6.00 Build 0)  -->
<!DOCTYPE svg PUBLIC "-//W3C//DTD SVG 1.1//EN" "http://www.w3.org/Graphics/SVG/1.1/DTD/svg11.dtd">
<svg version="1.1" id="Layer_1" xmlns="http://www.w3.org/2000/svg" xmlns:xlink="http://www.w3.org/1999/xlink" x="0px" y="0px"
	 width="109.9px" height="76px" viewBox="0 0 109.9 76" enable-background="new 0 0 109.9 76" xml:space="preserve">
<path d="M102.3,35.5c-1.9,0.2-3.2,1.5-3.3,3.2c-0.1,1.7,1.2,3,3.3,3.2c2.1,0.3,3.4-1,3.2-3.2C105.5,36.5,104.2,35.2,102.3,35.5z
	 M109.9,38.3c-0.5-7.8-7.8-16.3-19.1-21.4C86.5,6,80.4,4.4,78.9,5.7c-1.5,1.3-2,2.7-1.7,6.7c-2.1-0.5-4.2-0.9-6.4-1.2
	C66.4,0.9,61-0.9,59.5,0.4c-1.7,1.4-1.9,3.9-1.2,10.1c-2.8,0.2-5.5,0.6-8,1.2C45.8,4.6,41.3,3.1,40,4.1c-1.9,1.5-1.6,4.4-0.5,11.9
	c-5.4,3.2-9.3,7.8-11.5,13.6c-8.9-2.8-24.8-7-26.5-1.9c-2.4,7,5.2,7.2,5.2,7.2s-7.1,1.4-6.7,6.7c0.5,5.3,6.7,3.9,6.7,3.9
	s-7.1,3.9-4.4,9.4c1.9,3.9,16.9-1.8,25.7-5.5c1.9,4.4,5.2,8,9.7,10.6c-1.8,7.5-2.4,10.3-0.4,11.8c1.3,1,6.4-0.5,11.6-7.5
	c2.7,0.6,5.6,1,8.6,1.3c-1,6.2-0.8,8.6,1,10.1c1.7,1.3,7.8-0.5,12.4-10.6c2.4-0.3,4.6-0.7,6.8-1.2c-0.3,4,0.3,5.4,2,6.7
	c1.7,1.2,8.4-0.2,12.2-11.1C103.6,54.5,110.2,46.1,109.9,38.3z M58.8,39.2c-0.5,5.3-4.8,8.6-9.8,8c-5-0.6-9.4-3.9-9.7-8.1
	c-0.3-4.2,4-8.7,9.8-9.2C54.9,29.3,59.3,33.9,58.8,39.2z M86.9,38.3c-0.6,6.8-6.1,11-12.5,10.2c-6.4-0.8-12-5-12.4-10.4
	c-0.4-5.3,5.1-11.1,12.5-11.8C81.9,25.7,87.5,31.5,86.9,38.3z M106.9,39.1c-0.4,4.5-4.1,7.3-8.3,6.8c-4.3-0.5-8-3.3-8.3-6.9
	c-0.3-3.6,3.4-7.4,8.3-7.9C103.5,30.7,107.3,34.6,106.9,39.1z M52.5,33.9c-2.8,0.3-4.7,2.2-4.9,4.8c-0.2,2.6,1.8,4.5,4.9,4.8
	c3.1,0.4,5-1.5,4.8-4.8C57.2,35.5,55.3,33.5,52.5,33.9z M79.8,31.7c-3.3,0.3-5.7,2.7-5.9,5.8c-0.2,3.1,2.1,5.5,5.9,5.8
	c3.8,0.5,6.1-1.8,5.8-5.8C85.5,33.6,83.2,31.3,79.8,31.7z"/>
</svg>
