<?xml version="1.0" encoding="utf-8"?>
<!-- Generator: Adobe Illustrator 16.0.4, SVG Export Plug-In . SVG Version: 6.00 Build 0)  -->
<!DOCTYPE svg PUBLIC "-//W3C//DTD SVG 1.1//EN" "http://www.w3.org/Graphics/SVG/1.1/DTD/svg11.dtd">
<svg version="1.1" id="Layer_1" xmlns="http://www.w3.org/2000/svg" xmlns:xlink="http://www.w3.org/1999/xlink" x="0px" y="0px"
	 width="129.4px" height="106.1px" viewBox="0 0 129.4 106.1" enable-background="new 0 0 129.4 106.1" xml:space="preserve">
<path d="M127.3,21.4c-4.6-7.9-17.4,0.9-24.9,8.7c-1.5-4.9-3.8-9.3-7.2-12.9c2.7-1,4.6-3.3,5.4-6.6c1.3-5.1-1.5-9.2-6.8-10.3
	c-5.4-1.2-9.5,1.5-10.3,6.8c-0.1,0.8-0.2,1.5-0.2,2.2c-5-1.9-11.1-2.9-18.4-2.9c-10.6,0-18.5,2.1-24.5,5.9c0-0.2-0.1-0.5-0.1-0.7
	c-0.8-5.3-4.9-8-10.3-6.8C24.7,5.8,22,9.9,23.3,15c1,4.2,3.9,6.8,7.8,7c-1.9,3.3-3.3,6.9-4.2,10.9C19.4,25.1,6.6,16.4,2,24.3
	c-6.9,12,6.3,5.8,7.3,3.7c0,0-4.8,10.4,4.8,3.5c0,0-2,7.1,4,2.9c0,0,4,2.6,7.7,4.7c-0.2,1.7-0.3,3.5-0.4,5.3
	C24.8,63.1,29.8,72,38.9,76.1c-3.6,7.5-6.6,18.5-6.4,21.4c-3,0.6-11,6.2-9.6,8.2c0.9,1.1,19.1,0.2,20.1-0.3c1-0.5-0.1-5.3-0.6-6.2
	c-0.6-3.3-1.2-15.4,1.8-21.3c5.8,1.4,12.8,1.5,20.7,1.4c8.5,0,16.1-0.3,22.5-2.1c3.1,5.9,2.4,18.2,1.8,21.5
	c-0.5,0.8-1.6,5.6-0.6,6.2c1,0.5,19.3,1.4,20.1,0.3c1.5-2-6.6-7.6-9.6-8.2c0.2-2.9-2.9-14.3-6.6-21.7c9-4.3,13.8-13.1,11.9-30.8
	c-0.1-2.9-0.3-5.7-0.8-8.4c3.6-2.1,7.4-4.5,7.4-4.5c6,4.1,4-2.9,4-2.9c9.5,6.9,4.8-3.5,4.8-3.5C121.1,27.2,134.3,33.3,127.3,21.4z
	 M63.9,58.7C45.5,59,33.7,57.5,34.6,40.6c0.6-11.3,7.7-19.8,29.3-19.8c21.6,0,28.9,8.8,29.3,19.8C95.7,57.1,82.3,58.8,63.9,58.7z
	 M52.5,32.6c-2.4,0.5-3.6,2.3-3,4.6c0.5,2.3,2.3,3.5,4.6,3c2.2-0.4,3.5-2.2,3-4.6C56.7,33.2,54.8,32,52.5,32.6z M72.9,32.6
	c-2.4,0.5-3.6,2.3-3,4.6c0.5,2.3,2.3,3.5,4.6,3c2.2-0.4,3.5-2.2,3-4.6C77.1,33.2,75.3,32,72.9,32.6z M58.7,44.9c0,0-0.9,4,4,4
	c4.9,0,3.7-4.5,3.7-4.5L58.7,44.9z"/>
</svg>
