<?xml version="1.0" encoding="utf-8"?>
<!-- Generator: Adobe Illustrator 16.0.4, SVG Export Plug-In . SVG Version: 6.00 Build 0)  -->
<!DOCTYPE svg PUBLIC "-//W3C//DTD SVG 1.1//EN" "http://www.w3.org/Graphics/SVG/1.1/DTD/svg11.dtd">
<svg version="1.1" id="Layer_1" xmlns="http://www.w3.org/2000/svg" xmlns:xlink="http://www.w3.org/1999/xlink" x="0px" y="0px"
	 width="135.5px" height="97.9px" viewBox="0 0 135.5 97.9" enable-background="new 0 0 135.5 97.9" xml:space="preserve">
<path d="M135.3,54.4c-1.3-1.3-14.7,7.8-26,3.4C100,54.2,99,32.3,73.9,24.2c2.6-4.6,5.3-10.8,6.7-10.8c2.3,0,6.6,5.1,7.7,4.1
	c1.4-1.4-4.2-8.8-3.8-9.7c1-2.3,9.7,1,9.7-0.8c0-1.9-12.9-8.8-15.1-6.6c-1.5,1.5-7,14.8-9.1,22.7c-4.4-1.1-9.5-1.7-15.4-1.9
	c-3.3-0.1-6.4,0-9.4,0.3c-2.3-8-7.2-19.7-8.7-21.2c-2.2-2.2-15.1,4.7-15.1,6.6c0,1.8,8.7-1.5,9.7,0.8c0.4,0.9-5.3,8.3-3.8,9.7
	c1,1,5.4-4.1,7.7-4.1c1.2,0,3.4,4.5,5.6,8.7C7.4,26.9-2.7,50.7,0.6,56c0.7,1.1,3.6,0.9,8.1,0.2c1.3,3,3.6,6,4.3,6.3
	c0.7,0.1,1.1-3.7,1.9-7.5c1.8-0.4,3.6-0.8,5.6-1.3c1.3,3,3.5,5.9,4.2,6.1c0.7,0.1,1.1-3.7,1.9-7.5c2-0.5,3.9-0.9,6-1.4
	c1.2,3.2,3.7,6.6,4.5,6.9c0.7,0.1,1.2-4.3,2-8.3c1.7-0.4,3.5-0.7,5.2-1c1.2,3.1,3.7,6.4,4.4,6.6c0.7,0.1,1.1-3.8,1.9-7.7
	c2.3-0.3,4.6-0.6,6.8-0.8c1.2,3.1,3.6,6.2,4.4,6.4c0.6,0.1,1-3.2,1.7-6.8c1.8,0,3.5,0,5.2,0.2c1.3,2.9,3.4,5.6,4.1,5.9
	c0.5,0.1,0.9-2.1,1.4-4.8c4.5,1.4,7.5,4.1,8.1,8.7c0.9,6.7-2.3,11.2-8,14.1c-1.1-2.6-2-4.7-2.5-4.5c-0.6,0.4-2.1,3.5-2.7,6.6
	c-1.6,0.5-3.3,0.9-5,1.3c-1.4-3.3-2.6-6.3-3.2-6.1c-0.7,0.4-2.2,3.8-2.8,7c-2.3,0.3-4.6,0.5-7,0.6c-1.6-3.5-2.9-7-3.5-6.7
	c-0.7,0.4-2.2,3.8-2.8,7c-1.9,0-3.8,0.1-5.7,0c-1.6-3.6-3-7.3-3.6-7c-0.7,0.4-2.2,3.7-2.8,6.9c-2.3-0.1-4.5-0.1-6.7-0.2
	c-1.4-3.2-2.5-6.2-3.1-5.9c-0.6,0.3-1.8,2.9-2.5,5.7c-2.4-0.1-4.6-0.2-6.7-0.3c-1.3-3-2.4-5.7-2.9-5.5c-0.6,0.3-1.7,2.7-2.4,5.4
	c-2.5,0.1-4.2,0.3-4.7,0.8c-4.1,4.1,4.7,28.6,45.3,21.1c47-8.6,44.6-20.9,46.7-20.9c2.1,0,10.8,2.5,23.7-3.4
	C132.5,66.1,136.5,55.7,135.3,54.4z M28.5,41.3c-2.5,0.3-3.9-0.9-4.1-3.4c-0.3-2.5,0.9-3.9,3.4-4.1c2.5-0.3,3.9,0.9,4.1,3.4
	C32.2,39.7,31,41.1,28.5,41.3z M40,39.8c-3.2-1.1-4.3-3.3-3-6.5c1.1-3.2,3.3-4.3,6.5-3c3.2,1.1,4.3,3.3,3,6.5
	C45.4,40,43.2,41.1,40,39.8z M52.1,33.9c-0.9-2.1-0.2-3.6,1.9-4.4c2.1-0.9,3.6-0.2,4.4,1.9c0.9,2.1,0.2,3.6-1.9,4.4
	C54.5,36.7,52.9,36,52.1,33.9z"/>
</svg>
