<?xml version="1.0" encoding="utf-8"?>
<!-- Generator: Adobe Illustrator 16.0.4, SVG Export Plug-In . SVG Version: 6.00 Build 0)  -->
<!DOCTYPE svg PUBLIC "-//W3C//DTD SVG 1.1//EN" "http://www.w3.org/Graphics/SVG/1.1/DTD/svg11.dtd">
<svg version="1.1" id="Layer_1" xmlns="http://www.w3.org/2000/svg" xmlns:xlink="http://www.w3.org/1999/xlink" x="0px" y="0px"
	 width="95.9px" height="54.8px" viewBox="0 0 95.9 54.8" enable-background="new 0 0 95.9 54.8" xml:space="preserve">
<path d="M94.6,8.9c-2.9-5-10.8,0.2-15.7,5.1c-5.2-6.4-17.5-15-33.3-13.9c-16.1,1.1-24.9,10-27.9,14.7C12.9,9.6,4.3,3.7,1.3,8.9
	c-4.5,7.8,4.1,3.8,4.7,2.4c0,0-3.1,6.8,3.1,2.3c0,0-1.3,4.6,2.6,1.9c0,0,2.2,1.4,4.4,2.7c-1,4-1.2,10-2.2,11
	c-1.2,1.2-10,7.9-10,10.7C4,42.7,17,40.8,17,42.7c0,1.9-9.8,3.3-9.8,5c0,1.7,12.7,3.4,13.8,4.5c0,0,2.1,2.6,4.5,2.6
	s55.2,0.1,56.7-0.3c4.2-1.3,2.2-30.1-1-37c1.7-1,3-1.9,3-1.9c3.9,2.7,2.6-1.9,2.6-1.9c6.2,4.5,3.1-2.3,3.1-2.3
	C90.5,12.7,99.2,16.7,94.6,8.9z M26,34.2c-2.7,0-4.3-1.9-4.2-4.9c0-3,1.6-4.9,4.2-4.9c2.6-0.1,4.2,1.8,4.2,4.9
	C30.3,32.4,28.7,34.3,26,34.2z M38.3,32c-2.2,0-3.6-1.1-3.5-2.9c0-1.8,1.3-2.9,3.5-2.9c2.2-0.1,3.5,1.1,3.5,2.9
	C41.9,30.9,40.5,32.1,38.3,32z"/>
</svg>
