<?xml version="1.0" encoding="utf-8"?>
<!-- Generator: Adobe Illustrator 16.0.4, SVG Export Plug-In . SVG Version: 6.00 Build 0)  -->
<!DOCTYPE svg PUBLIC "-//W3C//DTD SVG 1.1//EN" "http://www.w3.org/Graphics/SVG/1.1/DTD/svg11.dtd">
<svg version="1.1" id="Layer_1" xmlns="http://www.w3.org/2000/svg" xmlns:xlink="http://www.w3.org/1999/xlink" x="0px" y="0px"
	 width="62.2px" height="89px" viewBox="0 0 62.2 89" enable-background="new 0 0 62.2 89" xml:space="preserve">
<path d="M54.4,11.4c1.3-3.4,0.4-9.8,0.4-9.8c-0.9,2.2-3.9,4.8-5.8,6.3c-4.2-1.9-9.7-3.1-16.7-3.1c-6.7,0-12.1,1.1-16.3,2.9
	C12.9,4.4,10.1,0,10.1,0c-1,4.2,0.1,7.9,1.2,10.3C-4.7,21.4,1,45.5,1,45.5h15.5c0,0,0.1,3,4.3,5.1c-0.6,1.4-1.2,3-1.9,4.8
	c-1.7-0.6-3.3-1.6-4.7-2.8c-1-0.9-2.6-1-3.8-0.2c-1.2,0.8-1.1,2.7,0.3,3.9c1.9,1.6,4.1,2.8,6.4,3.6c-3,7.8-6,16.3-5.2,17.1
	c0.6,0.6,5.5,1,11.8,1.1c-0.3,3,0.1,6,1.1,8.8c0.6,1.8,2.3,2.5,3.4,1.8c1.1-0.7,1.4-2.3,1-3.5c-0.7-2.3-0.9-4.7-0.6-7
	c2.5,0,5.2,0,7.7-0.1c0.4,2.4,0.2,4.8-0.6,7.1c-0.4,1.2,0,2.8,1,3.5c1.1,0.7,2.7,0,3.4-1.8c1-2.9,1.4-5.9,1.1-8.9
	c6.1-0.3,10.9-0.8,11.7-1.6c1.3-1.3-2.2-9.6-5.9-17.1c2.5-0.8,4.8-2.1,6.8-3.8c1.5-1.2,1.5-3.1,0.3-3.9c-1.2-0.8-2.8-0.6-3.8,0.2
	c-1.6,1.4-3.5,2.5-5.6,3.1c-0.8-1.4-1.5-2.8-2.1-3.9c5.3-2.5,4.8-6.8,4.8-6.8h12.6C60.2,44.2,67.3,22.6,54.4,11.4z M18.4,27.9
	c-1.6,0.4-1.3-6.6,5.1-6.5c6.4,0.3,6.5,7,5.5,6.5c-0.5-0.3-2.1-3.2-5-3.1C21.1,24.9,19.6,27.6,18.4,27.9z M37,38.3
	c0,0,0.5,5.2-4.5,5.2c-5.4,0-5.1-5.2-5.1-5.2H37z M31.1,68.3c0,0-9-4.8-6.1-7.7c2.9-2.9,6,0.5,6,0.5s1.2-3.7,5.6-1.2
	C41,62.4,31.1,68.3,31.1,68.3z M45.5,27.9c-1.1-0.2-2.7-3-5.5-3.1c-3-0.1-4.5,2.9-5,3.1c-1,0.4-0.9-6.3,5.5-6.5
	C46.8,21.3,47.1,28.3,45.5,27.9z"/>
</svg>
