<?xml version="1.0" encoding="utf-8"?>
<!-- Generator: Adobe Illustrator 16.0.4, SVG Export Plug-In . SVG Version: 6.00 Build 0)  -->
<!DOCTYPE svg PUBLIC "-//W3C//DTD SVG 1.1//EN" "http://www.w3.org/Graphics/SVG/1.1/DTD/svg11.dtd">
<svg version="1.1" id="Layer_1" xmlns="http://www.w3.org/2000/svg" xmlns:xlink="http://www.w3.org/1999/xlink" x="0px" y="0px"
	 width="129.7px" height="148.4px" viewBox="0 0 129.7 148.4" enable-background="new 0 0 129.7 148.4" xml:space="preserve">
<path d="M106.2,97.7c-7.6,3.9-19.7,4.4-25.5-2.4l2.1-1.8c2.7,3.8,9.8,4.8,15.3,3.6c5.9-1.3,11.6-5.9,14.1-9.5
	c-2.8-4.2,4.1-7.1,5.2-3.4C118.8,89.7,109.3,96.1,106.2,97.7z"/>
<path d="M119.1,24.3c0-3-3.7-6-6.9-5.3c-1,0.2-1.7,0.6-2,1.6C108.4,26.9,119,29.2,119.1,24.3z M101.2,32.8
	c1.2,7.2,3.6,19.9,11.3,19.2c4.4-0.4,3-13.5,5.5-16C111.5,36.6,104.9,35.7,101.2,32.8z M73.7,25.1c2.4,7.5,17.7,13.8,24.3,4.8
	c7.7-10.4-2.6-20.2-13.1-19.4C77.3,11,70.8,15.9,73.7,25.1z M56.7,85.4c-1.4-0.2-2.8-0.5-4.2-0.8l0.5-2c1.5,0.3,3,0.5,4.4,0.4
	c3.6-0.3,4.9-3.4,8.3-4.3c-11.9-7.2-23.5-19.3-22.4-38.8c0.5-8.8,3.6-14.7,7.7-20.6c-16-6.2-16.8,14.5-27.5,14.8
	c-4,0.1-7.7-2.4-11.5-1.4c-2.8,0.8-6.1,7-10.3,4.2c-4.4-3.1,0.9-9.5,3.4-10.7c2.6-1.3,6.7-1.4,9.7-0.8c3.7,0.8,6.1,3.2,9.3,2.6
	c4-0.8,7-8.3,10.5-10.7c4.9-3.4,13.5-4.3,18.8-0.8c4.9-3.7,9.4-7.7,16.2-9.5c-0.5-1.3-2.7-3.3-4.8-3.6c-4.9-0.6-7.2,4.2-12.1,5.3
	c-5,1.2-8.9-3.3-13.3-2.6c-5.6,1-7.2,8.7-12.5,10.5c-3.5,1.2-8.9-0.1-8.3-4.2c0.5-3.3,3.4-1.6,6.3-2c1.8-0.2,3.7-3.1,5.1-4.6
	c2.6-2.6,5.1-5.4,10.9-4.8c3.8,0.4,5.8,3.6,9.9,3.6c5.9,0,10.9-7.9,18.4-3.6c1.7,1,2.8,2.7,4.3,4.4C97.2,1.2,116,11.5,124,27
	c2.3,4.4,4.7,8.9,5.3,13.7c1.2,8.7-1,18.2-5.3,24.1c-8,11-22.7,18.3-42.8,17c1.5,2.1,0.1,7,0.6,9.5c0.2,0.8,0.5,1.5,1,2.2l-2.1,1.8
	c-1.4,4.6-3.4,9-6.1,12.7c-1.3,1.7-3.4,3-4.6,4.8c-4.7,7.2-6,17.7-10.3,24.7c-1.4,2.2-4.5,4.3-5.3,6.3c-0.9,2.1-0.1,4.2-2.4,4.5
	c-2.5,0.3-4.2-2.6-3.4-5.2c0.6-1.7,2.6-2,4.1-3c8.3-5.4,9.1-20,13.9-28.7c-7.6-1-12.7-4.4-15-10.7c-3.3,6.2-2.3,20.3,0.4,27.9
	c0.5,1.3,1.6,2.5,1.4,4c-0.8,5.3-10.6,2.2-4.8-2.2C42.2,114.6,47.5,94.4,56.7,85.4z"/>
<path d="M52.5,84.6c-7-1.6-13.6-5-17.5-10.3c-3-4.1-6.2-10.7-5.5-17.2c0.4-3.4,2.1-7.8,6.3-6.3c1.2,2.6-1.6,4-3,5.2
	c-1.6,7.8,1.8,14.1,6.1,18.8c3,3.3,8.8,6.7,14,7.9L52.5,84.6z"/>
</svg>
