<?xml version="1.0" encoding="utf-8"?>
<!-- Generator: Adobe Illustrator 16.0.4, SVG Export Plug-In . SVG Version: 6.00 Build 0)  -->
<!DOCTYPE svg PUBLIC "-//W3C//DTD SVG 1.1//EN" "http://www.w3.org/Graphics/SVG/1.1/DTD/svg11.dtd">
<svg version="1.1" id="Layer_1" xmlns="http://www.w3.org/2000/svg" xmlns:xlink="http://www.w3.org/1999/xlink" x="0px" y="0px"
	 width="59.1px" height="110.8px" viewBox="0 0 59.1 110.8" enable-background="new 0 0 59.1 110.8" xml:space="preserve">
<path d="M58.8,90c-0.4-0.8-0.7-1.1-0.9-1.7c-0.1-0.4-0.3-0.6-0.5-1c-2.6-6.4-6.7-12-11.7-16.4c-0.4-5.2-2.7-6-2.7-13.6
	c0-8.3,12.1-15.2,12.1-23.4c0-13.6-4-33.8-27.6-33.8C12.7,0,4.4,12.8,4.4,27.1c0,14.3,13.4,18.6,13.4,26.9c0,7.3-4.2,11.4-5.2,17.5
	c-4.7,4.3-8.5,9.7-11,15.8c-0.2,0.4-0.3,0.6-0.5,1c-0.2,0.7-0.5,1-0.9,1.7c-0.2,0.4-0.5,1.2,0,1.6c0.5,0.3,1.3-0.1,1.5-0.5
	c0.2-0.3,0.2-0.8,0.5-0.8c0.4,0,0.7,0.4,0.9,0.7c0.2,0.4-0.3,0.9-0.4,1.3c-0.2,0.4,0,1.3,0.6,1.5c0.6,0.1,1.1-0.6,1.2-1
	c0-0.4-0.1-0.9,0.2-1.2c0.4-0.3,1.2-0.3,1.5,0.1c0.3,0.3,0,0.8-0.1,1.2C6,93.2,6.4,94,6.9,94c0.6,0,0.9-0.8,0.9-1.3
	c-0.1-0.5-0.4-1.2-0.2-1.6c0.3-0.5,0.6-1.1,1.1-1.3c0.4-0.2,0.8,0.3,1.2,0.5c0.4,0.2,1.3,0,1.6-0.6c0.2-0.7-0.4-1.3-0.9-1.4
	c-0.4-0.1-1-0.1-1-0.6c0.4-3.4,1.7-6.5,3.7-9.4c1.6,3.5,4.9,6.4,9.3,8.1c-0.5,6-0.7,19.4-0.9,21.6c-1.8,0.4-3.8,1.6-3,2.5
	c0.5,0.5,6.2,0.3,6.8,0c0.6-0.3-0.2-1.2-0.5-1.7c-0.3-3-0.3-15,0-21.6c2,0.5,4.2,0.8,6.5,0.8c0.8,0,1.5-0.1,2.2-0.2
	c0.3,6.7,0.3,18,0,20.9c-0.3,0.5-1.1,1.4-0.5,1.7c0.6,0.3,6.3,0.5,6.8,0c0.8-0.8-1.2-2-3-2.5c-0.1-2.1-0.4-14.4-0.8-20.8
	c4.5-1.7,7.4-5.7,8.7-9.9c2.4,3.1,4,6.6,4.4,10.3c0.1,0.4-0.5,0.5-1,0.6c-0.5,0.1-1.1,0.7-0.9,1.4c0.2,0.7,1.1,0.8,1.6,0.6
	c0.4-0.2,0.8-0.7,1.2-0.5c0.5,0.2,0.8,0.8,1.1,1.3c0.3,0.5-0.1,1.1-0.1,1.6c-0.1,0.5,0.3,1.3,0.9,1.3c0.6,0,1-0.8,0.9-1.3
	c0-0.4-0.4-0.9-0.1-1.2c0.4-0.3,1.1-0.4,1.5-0.1c0.3,0.2,0.1,0.8,0.2,1.2c0,0.5,0.6,1.2,1.2,1c0.6-0.1,0.7-1,0.6-1.5
	c-0.2-0.4-0.6-0.9-0.4-1.3c0.1-0.4,0.5-0.8,0.9-0.7c0.3,0,0.3,0.5,0.5,0.8c0.2,0.4,1,0.8,1.5,0.5C59.3,91.2,59,90.4,58.8,90z
	 M29.6,16.9c-7.6,0-11.2-1.5-10.5-4.7c0.2-3.2,3.7-4.8,10.5-4.7c6.8-0.2,10.3,1.5,10.5,4.8C40.7,15.6,37.2,17.1,29.6,16.9z M26,10.3
	c-1.2,0-1.9,0.7-1.9,1.9c0,1.2,0.7,1.9,1.9,1.9c1.2,0,1.9-0.7,1.9-1.9C28,11,27.2,10.3,26,10.3z M35.6,10.8c-0.9,0-1.5,0.5-1.4,1.4
	c0,0.9,0.5,1.5,1.4,1.4c0.9,0,1.5-0.5,1.4-1.4C37,11.3,36.5,10.8,35.6,10.8z"/>
</svg>
