<?xml version="1.0" encoding="utf-8"?>
<!-- Generator: Adobe Illustrator 16.0.4, SVG Export Plug-In . SVG Version: 6.00 Build 0)  -->
<!DOCTYPE svg PUBLIC "-//W3C//DTD SVG 1.1//EN" "http://www.w3.org/Graphics/SVG/1.1/DTD/svg11.dtd">
<svg version="1.1" id="Layer_1" xmlns="http://www.w3.org/2000/svg" xmlns:xlink="http://www.w3.org/1999/xlink" x="0px" y="0px"
	 width="109px" height="179.7px" viewBox="0 0 109 179.7" enable-background="new 0 0 109 179.7" xml:space="preserve">
<g>
	<path d="M95.1,174.6c0-5.7,2.7-10.6,1-11.3c-2.1-0.9-7.2,0.9-7.8,0c-0.6-0.9-1-5.7-1.4-5.5c-0.4,0.2-1.4,9.3-0.6,9.5
		c0.8,0.2,4.5-1.7,5.1-1.3c0.7,0.4,2,5.2,0.3,7.5c-0.3,0.4-0.6,0.7-0.9,1c-4.2-0.2-8.8-0.5-13.1-1.3c-0.4-9.9,6.4-18.4,3.7-19.9
		c-2.8-1.7-10.4-0.1-11.1-1.4c-0.6-1.3-0.3-8.4-0.9-8.1c-0.6,0.2-3.7,12.9-2.7,13.3c1,0.4,6.8-1.5,7.5-0.9c0.9,0.7,1.9,7.7-0.9,10.8
		c-1.7,1.8-4.5,2.6-6.5,3c-0.5-0.3-1.1-0.6-1.6-0.9c-12.3-7.5-4.1-37.4-0.4-47.5c16-0.5,31.5-1.6,31.9-2.4
		c0.9-1.7,8.1-67.3,5.1-70.6c-0.1-0.2-0.4-0.3-0.9-0.4c0.7-3.8,2.3-14.3,1.3-15.3c-1.3-1.3-6.9,1.7-7.6,1.2
		c-0.4-0.3-0.8-2.5-1.3-4.6c1.3-0.1,2.3-0.3,2.8-0.5c2-1,0.3-5.7-1.5-8.5c-1.8-2.8-8.9-8-10.4-10.7c-1.5-2.7-0.2-9-0.7-9.5
		c-0.5-0.5-4.4,1.5-4.8,6.1c-0.4,4.5,2.2,5.1,3.4,11c1.2,5.9-4.7,8-1.9,10.4c1.2,1,3.7,1.5,6.4,1.8c0.7,3.6,1.8,9.2,2.7,9.2
		c1.3,0,8-1.5,9.1-1.2c0.8,0.2,0.2,7.2-0.2,10.5C82.1,47.4,19,56.2,18.3,57.9c-1.4,3.3,8.5,58.4,10.8,62c1,1.6,14.6,2,29.4,1.7
		c-11.9,15.2-19.2,40.9-17.3,46.4c1.3,3.5-3.6,3.5-8.5,3.7c-1.2,0.1-3.7,0.1-6.9,0.2c-0.7-0.6-1.5-1.4-2.2-2.6
		c-2.1-3.6-0.6-10.2,0.3-10.5c1.4-0.6,7.2,2.5,8.3,2.4c1.1-0.1,0.9-13.2,0.4-13.6c-0.5-0.4-1.8,6.5-2.7,7.7c-0.9,1.2-8-2.1-11.1-1.1
		c-3,0.9,0.3,8.6-2.5,18c-8,0.3-15.8,1.1-16.3,2.7c-0.7,2.4,66.4,5.7,95.6,4.5c7.9-0.3,13.1-1,13.3-2.1
		C109.5,175,103.3,174.9,95.1,174.6z M86.5,52.2c3.9-0.1,7.2,2.3,7.3,6.4c0.1,4.1-3,6.7-6.9,6.9c-3.9,0.1-7.1-1.5-7.3-6.6
		C79.5,54.7,83.3,52.3,86.5,52.2z M27.5,66.3c-0.1-3.2,2.2-5.2,5.1-5.2c2.9-0.1,5.3,1.2,5.4,5.1c0.1,3.2-2.7,5.1-5.1,5.1
		C30,71.3,27.6,69.4,27.5,66.3z M57,113.6c0-3.1-0.2-6.7-1.2-7.8c-1.5-1.9-8.9-2.6-10-1c-0.9,1.3-1.4,3.9-1.6,6.3
		C32.7,105.6,34,91.9,33.6,77.2c0-1.1,2.8-2.3,7.3-3.3c0.4,2.9,1,6.6,2.4,8.3c1.3,1.7,8.6,1.3,10-0.6c1-1.4,0.7-6.4,0.4-9.9
		c4.8-0.6,10-1.1,14.9-1.3c0.3,3.1,1,7.4,2.5,9.4c1.3,1.7,8.6,1.3,10-0.6c0.9-1.3,0.8-5.6,0.5-9c4.6,0.2,7.6,0.9,7.8,2.1
		c1.5,13.8,5.4,27.3-4.6,34.9c-0.6-2.8-1.5-5.5-2.5-6.1c-1.8-1.2-8.8,1.5-9.5,3.6c-0.7,1.9-0.5,4.8-0.1,7.5
		c-2.3,0.5-4.8,0.8-7.7,1.1C61.9,113.5,59.3,113.6,57,113.6z M48.2,169.9c-1.6-4.5,5.7-5.9,5.7-2C53.9,171.2,49.3,173,48.2,169.9z"
		/>
	<path d="M88.5,59.3c-0.1-3.2-5.7-3.1-5.6,0.2C83,62.8,88.6,62.6,88.5,59.3z"/>
	<path d="M31.4,65.7c0.1,2.5,4.2,2.4,4.1-0.1C35.5,63.1,31.4,63.2,31.4,65.7z"/>
</g>
</svg>
