<?xml version="1.0" encoding="utf-8"?>
<!-- Generator: Adobe Illustrator 16.0.4, SVG Export Plug-In . SVG Version: 6.00 Build 0)  -->
<!DOCTYPE svg PUBLIC "-//W3C//DTD SVG 1.1//EN" "http://www.w3.org/Graphics/SVG/1.1/DTD/svg11.dtd">
<svg version="1.1" id="Layer_1" xmlns="http://www.w3.org/2000/svg" xmlns:xlink="http://www.w3.org/1999/xlink" x="0px" y="0px"
	 width="119.6px" height="144px" viewBox="0 0 119.6 144" enable-background="new 0 0 119.6 144" xml:space="preserve">
<g>
	<path fill="#46E0C6" d="M75.6,57c6.4-0.9,9.3,8,4.2,10.3C71.5,71,68,58.1,75.6,57z"/>
	<path fill="#46E0C6" d="M53.4,70.1C47.6,72,39.8,70,37.6,64.7c-3.9-9,2.7-16.1,9.5-17.2c5.2-0.9,10.7,1.7,12.5,4.2
		C64,57.9,60,67.9,53.4,70.1z"/>
	<path d="M37.6,64.7c2.2,5.3,10,7.3,15.8,5.3C60,67.9,64,57.9,59.6,51.7c-1.8-2.5-7.2-5-12.5-4.2C40.3,48.6,33.7,55.7,37.6,64.7z
		 M102.7,81c10.4,2,19.2,8.7,16.4,21.2c-0.8,3.4-2.8,7.8-5.7,8.7c-8,2.6-8-9.9-0.6-5.5c7.3-8.2,0.2-20.6-10.1-20.6
		c-1.1,10.9-0.9,25.3-0.4,38.2c0.2,6.1,2.3,13.9-1,17.2c-3.7,3.7-26.4,6.1-27.1-2c-0.2-2.6,1.3-3.7,2.6-5.1c-6.4,0-11.8,0.9-18,1
		c3.1,11.1-23,12.9-25.7,5.5c-1.8-4.9,3.3-7.7,5.7-9.9c-1.3-11-3.8-20.8-5.5-31.3c-2.7,3.7-5.4,8.2-10.5,9.1
		c-8.4,1.4-12.6-4.6-14.5-10.9l2.5-0.5c1.2,3.6,4.3,7.3,6.9,8.1c7.6,2.5,12.4-5.5,13.7-9.5c1.2-3.8-0.6-8.6-1.4-12.5
		c-3.2-15.6-4.9-37.3,1.8-50.1c1-2,3.4-3.9,3.6-5.3c0.2-1.7-1.8-4.9-2-6.7C32.1,9.1,39,0.7,46.7,0c3.6-0.3,9.4,1.7,9.3,5.7
		c-0.2,5.3-9.3,3.6-4.8-1C39.8,0.7,33.9,14,38.4,23.6c9-8.2,33.2-14.3,46.7-5.3c1.1-12,20.8-20.5,31.3-12.7c2.5,1.9,4.2,8.2-0.8,9.1
		c-4,0.8-5.7-4.2-1.2-4.4c-0.4-2.4-2.8-3.5-4.8-3.8c-10.8-1.7-19.1,5.3-20.4,13.9c7.5,6,14.1,14.8,14.8,27.5
		C104.7,58.1,102.7,69.7,102.7,81z M79.7,67.3C84.9,65,82,56.1,75.6,57C68,58.1,71.5,71,79.7,67.3z M76.4,74.6
		c-6.2-0.6-12.7,0.1-18.4,0.6C59.4,84.1,75.6,84.1,76.4,74.6z"/>
	<path d="M8.1,96c-5,0.1-11.2-6.8-6.3-10.9c0.7-0.6,2-1.1,3.4-0.8c-0.2-2-2.9-9.8,0.2-10.1c3.2-0.3,2.5,10.7,3.6,13.1
		c0.2-1,8.2-5,8.5-1.4c0.2,1.9-3,2.2-4,2.8c-1.1,0.7-2.9,2-3.2,3.2c-0.2,1.3,0,2.7,0.4,4.2l-2.5,0.5C8.2,96.4,8.1,96.2,8.1,96z"/>
</g>
</svg>
