<?xml version="1.0" encoding="utf-8"?>
<!-- Generator: Adobe Illustrator 16.0.4, SVG Export Plug-In . SVG Version: 6.00 Build 0)  -->
<!DOCTYPE svg PUBLIC "-//W3C//DTD SVG 1.1//EN" "http://www.w3.org/Graphics/SVG/1.1/DTD/svg11.dtd">
<svg version="1.1" id="Layer_1" xmlns="http://www.w3.org/2000/svg" xmlns:xlink="http://www.w3.org/1999/xlink" x="0px" y="0px"
	 width="97.2px" height="65.5px" viewBox="0 0 97.2 65.5" enable-background="new 0 0 97.2 65.5" xml:space="preserve">
<path d="M67,6.5c-0.9,0.2-1.3,0.9-1,1.8c0.2,0.9,0.9,1.3,1.8,1c0.9-0.2,1.3-0.9,1-1.8C68.5,6.6,67.8,6.2,67,6.5z M27.9,11.8
	c-0.7,0-1.1,0.4-1.1,1.1c0,0.7,0.4,1.1,1.1,1.1c0.7,0,1.1-0.4,1.1-1.1C29,12.2,28.5,11.8,27.9,11.8z M20.7,11.6
	c-0.9,0-1.4,0.6-1.4,1.5c0,0.9,0.6,1.4,1.5,1.4c0.9,0,1.4-0.6,1.4-1.5C22.2,12.2,21.6,11.6,20.7,11.6z M60.1,8.7
	c-0.7,0.2-1,0.7-0.8,1.3c0.2,0.7,0.7,1,1.3,0.8c0.7-0.2,1-0.7,0.8-1.3C61.3,8.8,60.8,8.5,60.1,8.7z M66.3,0
	C48.5,0.4,54.2,13.4,45.2,13.6c-9,0.2-8.5-8.6-24.5-8.2C4.7,5.8-4.4,38.7,2.2,45c2,1.9,4.9,3.5,8.5,4.6c0.5,4.4,0.4,8.7,0,13
	c-0.5,0.7-1.6,2-0.7,2.5c0.9,0.4,9.1,0.7,9.9,0c1.2-1.2-1.7-3-4.3-3.6c-0.2-2.9-0.5-6.7-1.1-10.9c3.7,0.8,8.1,1.3,13,1.5
	c0.2,3.5,0.1,7-0.2,10.5c-0.5,0.7-1.6,2-0.7,2.5c0.9,0.4,9.1,0.7,9.9,0c1.2-1.2-1.7-3-4.3-3.6c-0.2-2.5-0.4-5.7-0.9-9.2
	c4.5,0.1,9.5-0.1,14.8-0.5c0.3,3.7,0.2,7.3-0.2,10.8c-0.5,0.7-1.6,2-0.7,2.5c0.9,0.4,9.1,0.7,9.9,0c1.2-1.2-1.7-3-4.3-3.6
	c-0.2-2.7-0.5-6.2-1-10c6.8-0.4,12.6-0.7,17.7-1.3c-0.4,4.4-0.6,8.9-0.8,11.2c-2.6,0.6-5.5,2.4-4.3,3.6c0.7,0.7,8.9,0.4,9.9,0
	c0.9-0.4-0.2-1.8-0.7-2.5c-0.3-3.3-0.4-8.3-0.2-12.9c4.7-0.8,9-1.9,13.2-4c-0.6,5.5-1,12.7-1.2,15.8c-2.6,0.6-5.5,2.4-4.3,3.6
	c0.7,0.7,8.9,0.4,9.9,0c0.9-0.4-0.2-1.8-0.7-2.5c-0.5-4.9-0.5-13.4,0.2-19.1c1.6-1,3.3-2.2,5-3.6C106.8,28.9,82-0.4,66.3,0z
	 M23.5,16.5c-5.7,0.2-8.4-0.9-8-3.3c0.1-2.4,2.7-3.7,7.8-3.8c5.1-0.2,7.8,0.9,8,3.4C31.8,15.3,29.2,16.5,23.5,16.5z M65.7,11.9
	c-5.5,1.6-8.3,1.2-8.5-1.3c-0.5-2.4,1.7-4.3,6.7-5.5c4.9-1.4,7.8-0.9,8.6,1.4C73.5,8.7,71.2,10.5,65.7,11.9z"/>
</svg>
