<?xml version="1.0" encoding="utf-8"?>
<!-- Generator: Adobe Illustrator 16.0.4, SVG Export Plug-In . SVG Version: 6.00 Build 0)  -->
<!DOCTYPE svg PUBLIC "-//W3C//DTD SVG 1.1//EN" "http://www.w3.org/Graphics/SVG/1.1/DTD/svg11.dtd">
<svg version="1.1" id="Layer_1" xmlns="http://www.w3.org/2000/svg" xmlns:xlink="http://www.w3.org/1999/xlink" x="0px" y="0px"
	 width="124.1px" height="137.8px" viewBox="0 0 124.1 137.8" enable-background="new 0 0 124.1 137.8" xml:space="preserve">
<path d="M90.4,3.3c0,0-4.6,2.7-5.6,5.6c0,0-2.6-5.3-4.5-8.9c0,0-1.7,3.1-2.7,6.4c0,0-2.1-2.8-4-4.7c0,0-1.3,12.5-1.3,15.1
	c0,0,10,2,18.1,2C90.4,18.8,91.4,9.8,90.4,3.3z M113,63c-2,0.5-11.5,7.5-18.4,13.6c-1.1-6.9-1.8-14,1.7-17.6
	c6-6,14.9-10.3,14.9-12.6c0-2.4-1.4-25.7-33.6-24.6c-27.4,1-45.4,31.4-50.2,49.7C20.8,65.9,13,60.1,11.1,59.7
	C7.7,58.8-1,73.1,0.1,75c1,1.8,7.7-6.6,10-4.9c1,0.7-0.4,11.2,1.9,11.8c1.6,0.4,2.9-7.2,5.2-8.5c1.1-0.6,5,1.8,9.1,4.4
	c-0.1,0.7-0.1,1.3-0.1,1.9c0,12.7,6.2,33.7,26.5,39.7c-0.3,3.1-0.5,6.2-2.8,7.9c-0.8,0.6-2.1,0.2-3.1,0.1c-1.2-0.2-2.3,0.4-2.6,1.9
	c-0.3,1.5,0.7,2.3,1.9,2.3c1.1,0.1,2.4-0.2,3.1,0.6c0.6,0.7,0.7,1.9,0.7,2.8c-0.1,1.7,0.4,2.8,2,2.7c1.6-0.1,2.3-1.5,2.2-2.9
	c0-0.8-0.1-1.8,0.5-2.3c0.6-0.5,1.6-0.3,2.3-0.3c1.3,0.1,2.1-0.4,2.1-1.6c0-1.1-0.6-1.7-1.7-1.8c-0.7-0.1-2-0.2-2.5-0.8
	c-1.7-2.1-0.6-5,0.8-7.8c2.8,0.6,5.8,0.9,9,0.9c2.9,0,5.5-0.2,7.8-0.6c1.3,2.7,2.3,5.4,0.6,7.5c-0.4,0.6-1.8,0.7-2.5,0.8
	c-1.2,0.2-1.7,0.7-1.7,1.8c0,1.1,0.9,1.6,2.1,1.6c0.8,0,1.8-0.2,2.3,0.3c0.6,0.5,0.5,1.5,0.5,2.3c-0.1,1.5,0.6,2.9,2.2,2.9
	c1.6,0.1,2.1-1,2-2.7c0-0.9,0.1-2.1,0.7-2.8c0.7-0.8,2-0.6,3.1-0.6c1.3-0.1,2.2-0.8,1.9-2.3c-0.3-1.5-1.4-2.1-2.6-1.9
	c-1,0.1-2.3,0.5-3.1-0.1c-2.2-1.6-2.5-4.5-2.8-7.4c19.7-4.9,20.7-23.2,20.7-30.5c0-2-0.3-4.3-0.7-6.8c4.8-2.9,10.1-6.5,11.4-5.8
	c2.3,1.3,3.6,8.9,5.2,8.5c2.3-0.6,0.9-11.1,1.9-11.8c2.4-1.7,9,6.7,10,4.9C125.1,76.5,116.4,62.2,113,63z M67.9,37.1
	c-1.8,0-2.9-1.1-2.9-2.9c0-1.8,1.1-2.9,2.9-2.9c1.8,0,2.9,1.1,2.9,2.9C70.8,36,69.7,37.1,67.9,37.1z M81,39.1c-2.5,0-4-1.5-4-4
	c0-2.5,1.5-4,4-4c2.5,0,4,1.5,4,4C84.9,37.6,83.4,39.2,81,39.1z M92.4,34.2c0-1.8,1.1-2.9,2.9-2.9c1.8,0,2.9,1.1,2.9,2.9
	c0,1.8-1.1,2.9-2.9,2.9C93.5,37.1,92.3,36,92.4,34.2z"/>
</svg>
