<?xml version="1.0" encoding="utf-8"?>
<!-- Generator: Adobe Illustrator 16.0.4, SVG Export Plug-In . SVG Version: 6.00 Build 0)  -->
<!DOCTYPE svg PUBLIC "-//W3C//DTD SVG 1.1//EN" "http://www.w3.org/Graphics/SVG/1.1/DTD/svg11.dtd">
<svg version="1.1" id="Layer_1" xmlns="http://www.w3.org/2000/svg" xmlns:xlink="http://www.w3.org/1999/xlink" x="0px" y="0px"
	 width="136.3px" height="89.2px" viewBox="0 0 136.3 89.2" enable-background="new 0 0 136.3 89.2" xml:space="preserve">
<path d="M133.6,4c-6.3-10.9-24.7,2.4-34.1,13c-7.1-7-17.7-11.9-33-11.1C52.4,6.7,43.1,11.2,37,17.3C27.7,6.7,9-6.9,2.6,4
	c-9.1,15.7,8.2,7.6,9.6,4.8c0,0-6.3,13.6,6.3,4.6c0,0-2.7,9.3,5.3,3.8c0,0,4.4,2.8,8.9,5.4c-8.3,12.8-6.3,28.8-4.5,31.9
	c1.2,2.2,6.3,3.6,13.5,4.4c-0.3,4.9,0.3,10.1-3.2,13.1c-1.1,0.9-2.9,0.5-4.2,0.4c-1.6-0.1-3.2,0.8-3.4,2.9c-0.2,2.1,1.1,3.1,2.9,3
	c1.5,0,3.3-0.5,4.3,0.6c0.9,0.9,1.2,2.6,1.2,3.8c0.1,2.3,0.9,3.8,3.1,3.6c2.2-0.3,3-2.2,2.8-4.3c-0.1-1.1-0.3-2.4,0.5-3.2
	c0.7-0.8,2.2-0.6,3.2-0.6c1.8,0,2.9-0.8,2.8-2.4c-0.1-1.6-0.9-2.3-2.6-2.4c-1-0.1-2.8-0.1-3.5-0.9c-3-3.3-0.7-8.3,1.2-13
	c5.7,0.4,12.2,0.6,18.8,0.5c0.3,5.5,2.6,11.5-0.7,15.5c-0.9,1.1-2.7,0.9-4.1,1.1c-1.6,0.2-3,1.4-2.8,3.4c0.1,2.1,1.7,2.8,3.4,2.5
	c1.4-0.3,3.2-1,4.4-0.2c1,0.7,1.6,2.4,1.8,3.6c0.5,2.3,1.5,3.6,3.6,3c2.1-0.6,2.6-2.7,2-4.7c-0.3-1.1-0.7-2.4-0.1-3.3
	c0.6-0.9,2-1,3.1-1.2c1.7-0.3,2.8-1.3,2.4-2.8c-0.4-1.5-1.3-2.1-2.9-1.9c-1,0.1-2.8,0.3-3.6-0.3c-3.9-3.1-1.7-9.5-0.7-14.8
	c6.4-0.2,12.8-0.5,18.5-1.1c1.7,5.1,5.3,10.2,3.2,14.9c-0.6,1.3-2.4,1.6-3.7,2.1c-1.5,0.6-2.5,2.1-1.9,4c0.6,2,2.3,2.3,3.9,1.5
	c1.3-0.6,2.8-1.8,4.2-1.3c1.1,0.4,2.1,1.9,2.7,3c1,2.1,2.4,3.1,4.3,1.9c1.9-1.2,1.8-3.3,0.7-5.1c-0.6-1-1.3-2.1-0.9-3.2
	c0.3-1,1.7-1.5,2.7-1.9c1.6-0.8,2.3-2,1.6-3.3c-0.8-1.4-1.8-1.7-3.3-1.1c-0.9,0.4-2.6,1.1-3.6,0.7c-4.2-1.8-4.1-7.7-4.4-12.9
	c8-0.9,13.9-2.2,15.2-3.5c3-3,2.8-19.4-6.3-32.4c4.3-2.5,8.4-5.2,8.4-5.2c7.9,5.4,5.3-3.8,5.3-3.8c12.5,9,6.3-4.6,6.3-4.6
	C125.4,11.6,142.7,19.8,133.6,4z M68.9,32.5c-15.6,0-22.9-3.1-21.7-9.6c0.4-6.5,7.7-9.8,21.7-9.8c14-0.3,21.2,3,21.6,9.8
	C91.7,29.8,84.6,32.9,68.9,32.5z M61.3,20c-0.5-0.5-1.6,0-2.8,1.2c-1.4-1.1-2.5-1.4-2.9-0.9c-0.5,0.5,0,1.6,1.2,2.8
	c-1.1,1.4-1.4,2.5-0.9,2.9c0.5,0.5,1.6,0,2.8-1.2c1.4,1.1,2.5,1.4,2.9,0.9c0.5-0.5,0-1.6-1.2-2.8C61.5,21.6,61.9,20.5,61.3,20z
	 M79.1,20c-1.9,0-3,1.1-3,3c0,1.8,1.1,3,3,3c1.8,0,3-1.1,3-3C82.1,21.1,80.9,19.9,79.1,20z"/>
</svg>
