<?xml version="1.0" encoding="utf-8"?>
<!-- Generator: Adobe Illustrator 16.0.4, SVG Export Plug-In . SVG Version: 6.00 Build 0)  -->
<!DOCTYPE svg PUBLIC "-//W3C//DTD SVG 1.1//EN" "http://www.w3.org/Graphics/SVG/1.1/DTD/svg11.dtd">
<svg version="1.1" id="Layer_1" xmlns="http://www.w3.org/2000/svg" xmlns:xlink="http://www.w3.org/1999/xlink" x="0px" y="0px"
	 width="128.5px" height="74.1px" viewBox="0 0 128.5 74.1" enable-background="new 0 0 128.5 74.1" xml:space="preserve">
<g>
	<path d="M0,42.8c0.3,2.4,12.9,15.4,21.8,16.6c8.9,1.1,29.1,2.6,33-1c3.9-3.6,2.4-4.5,3.8-5.3c0.6-0.3,2.1,0.8,4.4,2.2
		c-2.6,2.9-0.7,7.6-2.7,8.9c-4.1,2.6-5.7,8.7-1,9.8c3.5,0.8,2.5-4.1,4.9-4.6c2.6-0.4,2.1,5,5.1,2.7c5.1-3.9-2.8-9.5-3.9-9.9
		c-0.8-0.3-0.3-3.4,0.4-5.5c3,1.5,6.8,3,11.1,3c2.2,0,7.1-1.2,12-2.1c0.8,2,1.3,4.4,0.6,4.7c-1.1,0.5-8.5,6.7-3,10.2
		c3.1,2,2.2-3.4,4.8-3.2c2.4,0.2,1.8,5.2,5.2,4.1c4.6-1.5,2.5-7.4-1.8-9.6c-1.7-0.9-1.1-4.1-2.2-6.7c3.4-0.4,6.4-0.4,8.3,0.6
		c4.4,2.3,5,11.8,11.7,14.5c6.8,2.7,13.8-0.7,15.2-3.7c1.4-3,1.2-8.7,0-8.8c-1.2-0.2-0.8,4.2-3,6.1c-3.4,2.9-7.7-0.5-8.1-4.3
		c-0.5-3.8,1.8-16.7-0.7-20.4c-2.6-3.7-6-5.7-6.6-6.4c-0.6-0.7,1.5-3.8-0.8-5.9c-2.3-2.1-6.6-1.9-8-3.4c-1.4-1.5-1.1-4.5-2.4-5.3
		c-1.4-0.7-6.6-0.9-7.8-1.5c-1.2-0.6-3-3.3-4.7-3.6c-3.6-0.6-5.5,1.8-7.3,1.7c-1.8-0.1-0.7-3.7-3.3-3.7c-2.6,0-8.4,3.2-10.6,2.4
		C62,14.9,65.2,5,61.3,1.2C57.4-2.5,31.4,3,24.6,8C17.9,13,1.6,25.6,0.8,34.1c-0.4,4.1,8.5-1.5,8.5,5.1C9.3,44.6-0.3,40.4,0,42.8z
		 M73.1,39.9c-0.2-2.7-8.2-4.2-6.8-6.5s7.4,0.1,9.9-0.9c2.5-1,4.3-8.2,6.9-7.6c2.6,0.6,0.5,6.5,2.2,8.6c1.7,2,8.6,4.5,8.8,7.2
		c0.2,2.7-7.3,0.7-8.7,2.9c-1.4,2.3,1,7.8-1.5,8.8c-2.5,1-4.1-5.9-6.7-6.5c-2.6-0.6-6.8,3.3-8.5,1.3C67,45.2,73.3,42.5,73.1,39.9z
		 M33.2,18.3c8.3-0.8,15.6,4,16.4,12.9c0.8,8.8-5.4,14.9-13.8,15.7c-6.8,0.6-15.5-3.5-16.3-12.5C18.5,23.3,24.9,19.1,33.2,18.3z"/>
	<path d="M29.8,32.2c0.4,4.5-6.1,5.1-6.5,0.6C22.9,28.3,29.4,27.7,29.8,32.2z"/>
</g>
</svg>
