<?xml version="1.0" encoding="utf-8"?>
<!-- Generator: Adobe Illustrator 16.0.4, SVG Export Plug-In . SVG Version: 6.00 Build 0)  -->
<!DOCTYPE svg PUBLIC "-//W3C//DTD SVG 1.1//EN" "http://www.w3.org/Graphics/SVG/1.1/DTD/svg11.dtd">
<svg version="1.1" id="Layer_1" xmlns="http://www.w3.org/2000/svg" xmlns:xlink="http://www.w3.org/1999/xlink" x="0px" y="0px"
	 width="89.8px" height="79.5px" viewBox="0 0 89.8 79.5" enable-background="new 0 0 89.8 79.5" xml:space="preserve">
<g>
	<path fill="#09B39C" d="M32.3,40.2c-2.1-0.2-3.3,1-3.5,3c-0.2,2,0.8,3.4,2.9,3.6c2.1,0.2,3.3-1,3.5-3
		C35.4,41.7,34.4,40.3,32.3,40.2z"/>
	<path fill="#09B39C" d="M89.8,5.4c-0.2-0.9-2.3-0.1-3-0.7c-0.7-0.7,0.7-2.9-0.2-3.1c-1-0.2-1.6,1.7-2.5,2.1c-0.8,0.3-3.2-1-3.7-0.2
		C80,4,81.7,4.8,82.1,5.6c-1.4,0.3-3.2,0.4-4.7-0.7c-2.8-2.2-4.2-6.2-10.3-4.5c-4.3,1.3-4.3,6.5-3.9,9.3C59.5,8.3,55.6,7,55.1,7
		c-0.7,0-1.8,3.1-2.4,5c-13-3.8-29.7-3.1-37.8,3.8C3,25.9-5.3,49.8,4,63.1c9.3,13.3,36,23.4,59.9,10.4C80,64.7,77.3,31.4,67,19.9
		c1.5-2.4,3.4-5.7,3.3-6.5c-0.1-0.5-1.7-1.4-3.8-2.3c-0.4-1.8-0.5-6.4,2.7-7.4c3.5-1.1,4.7,3.6,8.5,4.5c1.7,0.4,3.2,0,4.4-0.6
		c-0.1,0.8-0.2,1.6,0.1,2c0.7,0.7,1.8-1.5,2.8-1.3c0.9,0.2,1.9,2.1,2.8,1.8c0.8-0.3-0.7-2.4-0.3-3.1C87.9,6.3,90,6.2,89.8,5.4z
		 M44.9,69.5c-1.2,0.8-3.5-2.6-3.9-2.6s-6.4,0-7.6,0c-1.2,0-5.7-0.4-6.3,0.2c-0.6,0.6-4,3.5-4.6,2.4c-0.8-1.3,2.2-1.7,2.3-3.6
		c0.1-1.4-2.6-3.4-1.1-4.4c1-0.7,3,3.2,3.8,3.5s3.8,0.2,6.4,0.4c2.6,0.2,6.6,0,6.9-0.5c0.3-0.5,2.7-4.8,4.2-3.5
		c1.1,0.9-1.6,2.4-1.8,4.1C43,67.3,46.4,68.5,44.9,69.5z M46.3,53.3c-2.9-0.6-5.9-2-6.8-6.3c-1.8,3.5-5.9,7.4-10.7,7
		c-6.8-0.6-10.1-5.1-9.6-11.6c0.5-6.5,4.6-10.5,11.4-9.8c5.9,0.6,7.8,4.9,9,8.7c1.7-3,3.7-4.3,8-4.2c5.3,0.1,7.8,4.4,7.8,8.5
		C55.4,50.3,49.7,53.9,46.3,53.3z"/>
	<path fill="#09B39C" d="M46.6,41.4c-2.1-0.2-3.3,1-3.5,3c-0.2,2,0.8,3.4,2.9,3.6c2.1,0.2,3.3-1,3.5-3
		C49.7,42.9,48.7,41.5,46.6,41.4z"/>
</g>
</svg>
