<?xml version="1.0" encoding="utf-8"?>
<!-- Generator: Adobe Illustrator 16.0.4, SVG Export Plug-In . SVG Version: 6.00 Build 0)  -->
<!DOCTYPE svg PUBLIC "-//W3C//DTD SVG 1.1//EN" "http://www.w3.org/Graphics/SVG/1.1/DTD/svg11.dtd">
<svg version="1.1" id="Layer_1" xmlns="http://www.w3.org/2000/svg" xmlns:xlink="http://www.w3.org/1999/xlink" x="0px" y="0px"
	 width="112px" height="97.3px" viewBox="0 0 112 97.3" enable-background="new 0 0 112 97.3" xml:space="preserve">
<path d="M101.3,43.5c0,0,7.8-5,3.7-8.7c-1.9-1.8-7.4,0.2-12.7,3.4c-0.1-4-0.7-7.3-2-9.7c-2-3.8-6.6-7.8-12.4-11.3
	c0.5-0.6,0.9-1.4,1.4-2.3c2-3.7,2-6.1,0-6.9c-1.9-1.1-3.7,0.3-5.6,4.1c-0.4,0.8-0.8,1.6-1,2.3C69.3,12.6,65.6,11,62,9.8
	c0.5-0.7,1-1.5,1.5-2.5c2-3.7,2-6.1,0-6.9c-1.9-1.1-3.7,0.3-5.6,4.1c-0.8,1.4-1.2,2.7-1.4,3.7C48.5,6,41.4,5.6,37.7,8.1
	C19,20.4,10.9,48.3,12.4,67.5c-2.4,0.4-5.7,1.7-8.6,4.3C-0.7,75.9-0.9,82,1.7,83.7c2.6,1.7,5.5-1.6,8.6-6.6c1-1.6,2-3.1,2.8-4.4
	c0.7,3.4,1.7,6.3,3,8.7c-1.5,0.4-3.3,1.2-5,2.6c-3.2,2.7-3.4,6.7-1.6,7.9c1.8,1.2,3.7-1,5.9-4.3c0.9-1.4,1.8-2.6,2.5-3.6
	c10.6,13.8,35.4,17.6,51.5,7.7c1.7-1,3.3-2.4,4.9-4c0.3,0.9,0.7,1.8,1,2.9c1.2,3.7,2.5,6.4,4.6,5.7c2-0.6,2.9-4.6,0.5-8
	c-1-1.5-2.3-2.7-3.5-3.5c1.7-2.2,3.4-4.6,4.9-7.3c0.4,1.3,0.9,2.7,1.3,4.3c1.7,5.6,3.5,9.6,6.5,8.6c3-0.9,4.4-6.8,1.1-11.9
	c-1.8-2.9-4.3-4.9-6.4-6.1c2.2-4.8,4.1-9.9,5.4-15.1c6.7,3.6,16.2,8.3,18.6,6.7c4.7-3-5.8-9-5.8-9s9.1,0.3,9.5-5.2
	C112.5,44.4,101.3,43.5,101.3,43.5z M58.5,24.9c0.2-1.6,1.4-2.4,3-2.1c1.6,0.2,2.4,1.4,2.1,3c-0.2,1.6-1.4,2.4-3,2.1
	C59.1,27.7,58.3,26.5,58.5,24.9z M63.2,40.9c0.3-2,1.7-3,3.7-2.6c2,0.3,3,1.7,2.6,3.7c-0.3,2-1.7,3-3.7,2.6
	C63.8,44.2,62.8,42.8,63.2,40.9z M62.3,37.2c-0.7,4.3-3.8,6.6-8.1,5.8c-4.3-0.7-6.6-3.8-5.8-8.1c0.7-4.3,3.8-6.6,8.1-5.8
	C60.8,29.8,63.1,32.9,62.3,37.2z M44.7,20.4c0.7-4.1,3.7-6.3,7.8-5.5c4.1,0.6,6.3,3.7,5.5,7.8c-0.7,4.1-3.7,6.3-7.8,5.5
	C46.1,27.5,43.9,24.5,44.7,20.4z M37.1,19.5c0.3-2.1,1.9-3.2,4-2.8c2.1,0.3,3.2,1.9,2.8,3.9c-0.3,2.1-1.9,3.2-4,2.8
	C37.8,23.1,36.7,21.6,37.1,19.5z M30.7,31.5c0.8-5,4.4-7.6,9.4-6.7c5,0.8,7.6,4.4,6.6,9.4c-0.8,5-4.4,7.6-9.4,6.7
	C32.3,40.1,29.8,36.5,30.7,31.5z M61.3,76.1c-0.5-2.9-0.7-6.3-3.4-6.3c-4.1,0-3.5,5.5-3.6,8.4c-2.1,0.3-4.5,0.4-6.9,0.3
	c-3,0-5.7-0.4-8.2-1c-0.4-3,0.3-7.4-3.5-7.4c-2.3,0-2.4,2.4-3,4.9c-6-3.4-9.2-4.2-8.6-11.4c0.4-6.7,3.6-7.4,8.8-10.9
	c0.7,2.2,0.2,4.1,2.8,4.1c3.8,0,3-4,3.5-6.9c2.5-0.7,5.3-1.2,8.3-1.2c2.5-0.1,4.8,0.1,7,0.5c0.2,3,0.3,8.1,3.6,8.1
	c3.5,0,2.6-2.9,3.2-5.5c5.7,3.3,9.1,4.4,9.5,12C71.3,71.7,67.8,72.9,61.3,76.1z M76.4,32.5c-0.6,4-3.5,6-7.5,5.3
	c-4-0.6-6-3.5-5.3-7.5c0.6-4,3.5-6,7.5-5.3C75.1,25.6,77.2,28.5,76.4,32.5z M65.3,42.3c0.7,0.1,1.2-0.2,1.3-0.9
	c0.1-0.7-0.2-1.2-0.9-1.3c-0.7-0.1-1.2,0.2-1.3,0.9C64.3,41.7,64.7,42.2,65.3,42.3z M40.5,35.9c1.7,0.3,2.9-0.6,3.2-2.3
	c0.3-1.7-0.6-3-2.3-3.2c-1.7-0.3-2.9,0.6-3.2,2.3C37.9,34.4,38.8,35.6,40.5,35.9z M68.3,28.8c-1.3-0.3-2.3,0.4-2.6,1.8
	c-0.3,1.4,0.4,2.4,1.8,2.6c1.4,0.3,2.3-0.4,2.6-1.8C70.4,30,69.7,29,68.3,28.8z M61.2,26.3c0.5,0.1,0.9-0.2,1-0.7
	c0.1-0.5-0.2-0.9-0.7-1c-0.5-0.1-0.9,0.2-1,0.7C60.4,25.8,60.6,26.2,61.2,26.3z M40.6,21.2c0.7,0.1,1.2-0.2,1.3-1
	c0.1-0.7-0.2-1.2-0.9-1.4c-0.7-0.1-1.2,0.2-1.4,1C39.5,20.6,39.9,21.1,40.6,21.2z M55.6,33.3c-1.5-0.3-2.6,0.5-2.8,2
	c-0.3,1.5,0.5,2.6,2,2.8c1.5,0.3,2.6-0.5,2.8-2C57.8,34.7,57,33.6,55.6,33.3z M51.4,25.1c1.4,0.3,2.4-0.5,2.7-1.9
	c0.3-1.4-0.5-2.5-1.9-2.7c-1.4-0.3-2.4,0.5-2.7,1.9C49.2,23.8,50,24.9,51.4,25.1z"/>
</svg>
