<?xml version="1.0" encoding="utf-8"?>
<!-- Generator: Adobe Illustrator 16.0.4, SVG Export Plug-In . SVG Version: 6.00 Build 0)  -->
<!DOCTYPE svg PUBLIC "-//W3C//DTD SVG 1.1//EN" "http://www.w3.org/Graphics/SVG/1.1/DTD/svg11.dtd">
<svg version="1.1" id="Layer_1" xmlns="http://www.w3.org/2000/svg" xmlns:xlink="http://www.w3.org/1999/xlink" x="0px" y="0px"
	 width="82.5px" height="84.3px" viewBox="0 0 82.5 84.3" enable-background="new 0 0 82.5 84.3" xml:space="preserve">
<path d="M39.3,0C-2.8,0-3.7,51.7,3.2,51.7c5.4,0,6-4.2,7.8-6c-0.8,9.7-7.1,19.4-3.9,29.2c0.5,1.7,2.4,2.5,3.6,1.7
	c1.3-0.8,1.6-2.6,1.1-4c-3.1-8.9,2.8-17.8,2.9-26.8c1.3,1.8,1,5.7,3.4,5.7c2.7,0,3.3-4.8,5.1-6.3c1.5,11.2-7.5,22.5-3.8,33.8
	c0.5,1.7,2.4,2.5,3.6,1.7c1.3-0.8,1.6-2.6,1.1-4c-3.5-10.1,4.6-20.2,2.6-30.5c1.9,1.9,3.8,5,6,5c2.8,0,2.8-4.4,5.5-5.5
	c-1.3,10.9,4.6,22.7-0.4,33c-0.8,1.7-0.7,3.9,0.7,5c1.4,1.1,3.7,0.4,4.6-1.5c5.1-11.1-0.6-23.4-0.4-34.9c1.4,1.8,2.3,4.4,5.4,4.4
	c4.1,0,3.9-5,5.9-6.6c-2.4,10.4,6.1,20.7,2.5,31c-0.5,1.5-0.2,3.3,1.1,4c1.3,0.8,3.1,0,3.6-1.7c3.6-11.1-4.9-22.1-3.9-33
	c2.1,1.8,3.3,6.2,7.3,6.2c4.5,0,3-6.5,5.6-7.8c-1,9.7,6.2,19.3,2.8,28.9c-0.5,1.5-0.2,3.3,1.1,4c1.3,0.8,3.1,0,3.6-1.7
	c3.3-10.1-3.5-20.1-4-30c2.9,3.1,5.4,9.6,8,4.1C82.9,47.3,86.7,0,39.3,0z M38.2,6.6c-0.3,2-1.9,3.4-3.7,3.3
	c-1.8-0.1-3.5-1.5-3.7-3.3c-0.2-1.8,1.4-3.6,3.8-3.6C36.8,3,38.5,4.7,38.2,6.6z M49,6.6c-0.3,2-1.9,3.4-3.8,3.3
	c-1.8-0.1-3.5-1.5-3.7-3.3c-0.2-1.8,1.4-3.6,3.8-3.6S49.2,4.7,49,6.6z"/>
</svg>
