<?xml version="1.0" encoding="utf-8"?>
<!-- Generator: Adobe Illustrator 16.0.4, SVG Export Plug-In . SVG Version: 6.00 Build 0)  -->
<!DOCTYPE svg PUBLIC "-//W3C//DTD SVG 1.1//EN" "http://www.w3.org/Graphics/SVG/1.1/DTD/svg11.dtd">
<svg version="1.1" id="Layer_1" xmlns="http://www.w3.org/2000/svg" xmlns:xlink="http://www.w3.org/1999/xlink" x="0px" y="0px"
	 width="138.8px" height="173.9px" viewBox="0 0 138.8 173.9" enable-background="new 0 0 138.8 173.9" xml:space="preserve">
<g>
	<path d="M127.9,61.8l7-9.6c-1.2-3.3-5.7-4.3-5.7-4.3l-12.6,12.7c-7,4.9-6.7,11.6-6.7,11.6c0.5,0.5,2,3.2,2.5,3.7
		c-1.4,4.3-1.1,8.9-5,14c-3.2,4.2-14.1,13.6-18.8,16.4c-0.9,0.5-1.6,1-2.3,1.5c-0.4-1.2-0.9-2-1.2-2.4c-2-1.9-10-1-11.2-1.7
		c-1.1-0.7-1.8-9.4-1.9-11.2c13.7-1.2,17.7-3.5,20.1-8.6c2.6-5.7,0.5-22.3-1.2-24.1c-1.7-1.8-22.4,3-23,2.4c-0.6-0.6-1.7-9.7-1-10.6
		c0.6-0.9,22.1-0.6,22.6-2.3c0.5-1.7-1.8-7.3-2.9-7.9c-1.1-0.7-19.8,2.3-20.7,1.7c-0.9-0.6-1.6-8.2-1.1-9.3
		c0.5-1.1,20.2-0.8,20.9-1.1c0.8-0.3,1.9-6.4,0.1-7.9c-1.8-1.5-19.4,2.7-21,2.4c-1.5-0.3-1.9-3.8-0.3-6.1c1.6-2.3,21.2-0.3,20.6-3.2
		c-0.5-2.9-11-19.7-27.9-17.3C40.4,2.6,34.1,12.8,33,19.9c-0.7,4.6,14.4-1.7,19.7,1.2c1.7,0.9,1.9,7.4,0.9,7.6
		C52.6,28.9,34,29,33.1,30c-0.9,1-0.7,5.2,0,6.3c0.7,1.1,21.2-2,22-1.2c0.8,0.9,1.7,7.5,0.8,9.2c-0.9,1.7-20.4,2.9-21.7,3.9
		c-1.3,1-1.6,9.5,0.8,9.7c2.4,0.2,18.7-4.7,20.8-4c2.1,0.8,1.5,8.8,0.6,9.5c-0.9,0.7-21.7,1.2-23.3,2.8c-1.5,1.6,1.8,15.6,4.2,19.9
		c2.1,3.8,10.3,7,24.7,6.8c0.2,2.9,0.9,12.5-0.1,13.3c-1.1,1-11.2,0.2-14.2,2.9c-0.7,0.7-1,2.4-1.1,4.7c-0.4,0-0.8-0.1-1-0.1
		c-0.5-0.1-3.1,0-4-0.2l-17.6-1.2c-2.3-2.6-1.7-3.5-2.6-6.7c-0.9-3.2-1.3-9-1.1-12.4c0.4-0.2,5.6-2.9,6-3.1
		c-0.1-2.6-2.8-6.9-3.1-7.5c0,0,0,0,0,0v0c-1.7-3.5-5.2-7.4-7.2-6.7C11.9,77.3,3.6,83.3,0,86.3c0,0,2.5,8,6.8,14
		c0,0,4.9-2.6,5.3-2.7c0.2,1,0.1,3.8,0.2,4.8c0.3,2.4,0.4,4.2,1.1,6.6c0.6,2.2,2.5,6.6,4,8.4c1.4,1.8,20.9,1,23.7,0.8
		c0.9-0.1,4.4-0.5,5.8-0.7c0.5,6.9,2.5,15.6,3.7,17.1c0.4,0.4,2,0.8,4.3,1.2c-1.4,5.5-3.7,16.4-3.8,17.8c-0.2,3.4,3.6,10.9,3.6,10.9
		s-7.2,6.4-7.7,7.6c-0.5,1.1-0.1,2,1,2l20.1,0c1.2,0,1.1-0.8,0.8-1.9c-1.7-6.4-9.9-16.4-10-18.8c-0.1-1.6,0.4-11.2,0.9-17.1
		c6.9,0.4,16.1,0.2,22.3-1.1c1,6.2,3.7,15.7,3.7,17.2c-0.1,2.4-7.2,13.4-9,19.8c-0.3,1.1-0.3,1.9,0.8,1.9l20.1,0c1.2,0,1.5-0.9,1-2
		c-0.5-1.2-7.8-7.6-7.8-7.6s2.8-8.5,2.6-11.9c-0.1-1.4-4.9-13.2-6.5-19c1-0.5,1.6-1.1,1.9-1.8c1.5-3.8,0.5-12.1-0.9-18.4
		c2.9-1.4,4.9-2.5,8.9-5c3.2-1.9,13.2-10.9,15.9-13.4c2.7-2.5,6.4-6.6,8.5-9.4c1-1.3,1.6-2.4,4.8-0.1c0.5,0.4,0.9,0.6,0.9,0.6
		c10-6.5,11.7-12.7,11.7-12.7C135.9,66.3,127.9,61.8,127.9,61.8z M17.6,92l-0.3-0.2c-0.3-0.2-0.6-0.5-0.8-0.7
		c-0.3-0.2-0.5-0.5-0.8-0.7c-0.3-0.2-0.5-0.5-0.8-0.7c-0.2-0.2-0.4-0.4-0.6-0.6l-8.5,2.1l0.8-0.5l4.4-1.3c-0.2-0.2-0.4-0.5-0.5-0.7
		c-0.2-0.4-0.4-0.7-0.6-1.1c-0.1-0.4-0.2-0.7-0.3-1.1c-0.1-0.4-0.1-0.7,0-1.1l0.1,0c0,0.4,0.1,0.7,0.3,1.1c0.1,0.3,0.3,0.7,0.5,1
		c0.2,0.3,0.4,0.6,0.7,0.9c0.2,0.3,0.5,0.5,0.7,0.7l1.8-0.6l0.4-0.3l1-0.6l-1.4-3.3l0.1,0l2.2,2.8l3.7-2.1l-4.1,3.7
		c0.1,0.1,0.2,0.2,0.4,0.4c0.3,0.2,0.5,0.5,0.7,0.8c0.3,0.3,0.5,0.5,0.7,0.8c0.2,0.2,0.4,0.4,0.5,0.6l3.5-0.5l-3.4,1.2L17.6,92z
		 M70.3,120.9c-0.5,0.5-1.7,0.3-2.1-0.1c-0.4-0.4-1.3-8.5-0.6-9c0.7-0.5,1.5,0.1,1.9,1.3C69.9,114.4,70.8,120.4,70.3,120.9z M56,80
		c-0.6-3.5,3.4-5,12.1-7.5c7.8-2.2,13.3,0.3,13.7,3.8c0.6,3.5-4.1,7.1-12.1,7.5C60.8,84.3,56.3,83.6,56,80z M68.9,131.9
		c-11.1,0-13.3-6.6-12.9-9c0.3-1.6,3-6.2,5.9-7.1c1.5-0.4,2.7,0.5,2.8,1.3c0.1,0.8-5.8,2.2-5.4,6.3c0.1,1.3,4.2,5,9.5,4.9
		c5.4-0.1,8.2-3.9,8.4-6.4c0.1-2.5-3.1-4.7-3.4-5.4c-0.3-0.7,0.8-2.2,2.9-1.4c2.1,0.9,4,5,4,8.4C80.7,126.9,75.6,131.9,68.9,131.9z
		 M131.6,79.3l-8.2-6c-0.3,0.2-0.7,0.4-1,0.5c-0.4,0.2-0.9,0.5-1.4,0.7c-0.5,0.2-0.9,0.4-1.4,0.6c-0.5,0.2-0.9,0.4-1.4,0.6l-0.5,0.2
		l-0.2-0.2l-3.8-3.7l4.2,2.6c0.3-0.2,0.6-0.4,1-0.6c0.4-0.3,0.9-0.5,1.3-0.8c0.4-0.3,0.9-0.5,1.3-0.7c0.2-0.1,0.4-0.2,0.6-0.3
		l-3.6-7.8l3.7,5.2l4.1-3.1l0.1,0.1l-3.4,4.2l1,1.4l0.4,0.6l2,1.9c0.4-0.2,0.9-0.4,1.3-0.6c0.5-0.3,0.9-0.6,1.3-1
		c0.4-0.4,0.8-0.8,1.1-1.3c0.3-0.5,0.6-0.9,0.8-1.5l0.1,0c-0.1,0.6-0.3,1.1-0.6,1.6c-0.2,0.5-0.5,1-0.9,1.5
		c-0.4,0.5-0.8,0.9-1.2,1.4c-0.3,0.3-0.6,0.5-1,0.8L131.6,79.3L131.6,79.3z"/>
	<path d="M76.9,76.5c0-0.5-3.3,0.2-8.8,1c-5.5,0.8-8.9,1-8.8,1.5c0,0.5,3.5,0.9,9,0.1C73.8,78.3,77,76.9,76.9,76.5z"/>
</g>
</svg>
