<?xml version="1.0" encoding="utf-8"?>
<!-- Generator: Adobe Illustrator 16.0.4, SVG Export Plug-In . SVG Version: 6.00 Build 0)  -->
<!DOCTYPE svg PUBLIC "-//W3C//DTD SVG 1.1//EN" "http://www.w3.org/Graphics/SVG/1.1/DTD/svg11.dtd">
<svg version="1.1" id="Layer_1" xmlns="http://www.w3.org/2000/svg" xmlns:xlink="http://www.w3.org/1999/xlink" x="0px" y="0px"
	 width="80.7px" height="128.6px" viewBox="0 0 80.7 128.6" enable-background="new 0 0 80.7 128.6" xml:space="preserve">
<path d="M80.4,49c-2.5-20.3-16.1-31.5-31.8-33.3c2.2-2.4,2.9-9.8,2-14c0,0-4.1,4.5-7.3,6.6c0,0-1.3-5.2-3.5-8.3c0,0-2.7,4.6-4,8.9
	c0,0-2.8-0.7-6-4.3c0,0,0.4,9.9,3.3,11.8c-27,5.1-35.5,25.6-32.5,43c2.8,16.9,15.8,23.6,30.2,25.9c-2.7,3-9.6,11.4-6.5,16.7
	c0.7,1.2,2.3,2.3,4.4,3.1c-0.2,1-1.4,7.8-1.5,10.5c-0.1,3.1,0,7.5-0.2,8c-0.1,0.3-7.5,3.3-6.6,4.3c0.2,0.2,0.5,0.2,1,0.2l9.3,0.2
	c0.8,0,1.1,0,1.3-0.2c0.1-0.2-1-4.2-1.3-12.4c-0.1-3.1,0.2-8.1,0.3-9.9c5.4,1.6,12.9,2.2,18.5,1.8c0.2,2.3,0.5,5.8,0.5,8.1
	c0,8.2-1.1,12.2-0.9,12.4c0.2,0.2,0.5,0.2,1.3,0.2l9.3-0.5c0.5,0,0.9-0.1,1-0.3c0.9-1-6.6-3.8-6.7-4.1c-0.2-0.5-0.3-5-0.5-8
	c-0.1-1.9-0.8-5.6-1.3-8.1c2.9-0.4,5-1.2,5.3-2.3c2.1-7.6-2.4-14.1-3.9-20.3C69,80.9,82.8,67.9,80.4,49z M17.7,62.6
	c-2.8,0-4.3-4.2-4.3-10.6c0-6.4,1.5-10.6,4.3-10.6S22,45.7,22,52C22,58.4,20.5,62.6,17.7,62.6z M40.3,80c-8,0-9.4-8.4-8.7-8.6
	c0.7-0.2,16.6-0.2,17.3,0C49.7,71.6,48.3,80,40.3,80z M63.3,60.2c-3.2,0-5-3.7-5-9.3c0-5.6,1.7-9.3,5-9.3c3.2,0,5,3.7,5,9.3
	C68.3,56.5,66.5,60.2,63.3,60.2z"/>
</svg>
