<?xml version="1.0" encoding="utf-8"?>
<!-- Generator: Adobe Illustrator 16.0.4, SVG Export Plug-In . SVG Version: 6.00 Build 0)  -->
<!DOCTYPE svg PUBLIC "-//W3C//DTD SVG 1.1//EN" "http://www.w3.org/Graphics/SVG/1.1/DTD/svg11.dtd">
<svg version="1.1" id="Layer_1" xmlns="http://www.w3.org/2000/svg" xmlns:xlink="http://www.w3.org/1999/xlink" x="0px" y="0px"
	 width="107.3px" height="116.4px" viewBox="0 0 107.3 116.4" enable-background="new 0 0 107.3 116.4" xml:space="preserve">
<path d="M104.7,44.4c-6.4-11-25.2,2.8-34.5,13.4c-0.7-1-1.4-2-2.1-2.8c-6.6-8.3-2.8-28-2.8-33.6c0-5.5,0-11.5-9.9-18.4
	C45.5-3.8,4.6,2.4,4.6,7.9c0,2.3,1.5,2.9,3.6,3.1c0,0,0,0.1,0,0.1c0,1.3,0.7,2.3,1.6,2.3c0.9,0,1.6-1,1.6-2.3c0,0,0-0.1,0-0.1
	c0.8,0,1.7-0.1,2.5,0c0,0.1,0,0.1,0,0.2c0,1.3,0.7,2.3,1.6,2.3c0.8,0,1.5-1,1.6-2.2c3,0.7,5.3,2.6,5.3,7.9c0,2.2-1.9,2.8-4.4,2.8
	c0-0.1,0-0.1,0-0.2c0-1.3-0.7-2.3-1.6-2.3c-0.9,0-1.6,1-1.6,2.3c0,0,0,0,0,0.1c-1.2-0.1-2.4-0.2-3.6-0.2c0-0.2,0-0.3,0-0.5
	c0-1.3-0.7-2.3-1.6-2.3c-0.9,0-1.6,1-1.6,2.3c0,0.2,0,0.4,0.1,0.6c-2.5,0.3-4.4,1.2-4.4,4c0,5.5,18.2,2.5,22.5,4.4
	c4.2,1.8,8.2,15.6,8.5,25.2C24.9,45.1,8.5,34.3,2.6,44.4c-9.1,15.7,8.2,7.6,9.6,4.8c0,0-6.3,13.6,6.3,4.6c0,0-2.7,9.3,5.3,3.8
	c0,0,4.9,3.2,9.7,5.9c-2.5,8.6-7.4,18.6-2.6,26.8c1.8,3.1,6.5,5,12.3,5.8c1.5,3.6,4,7.7,1.7,10.4c-0.5,0.6-1.8,0.7-2.5,0.7
	c-1.2,0.1-1.7,0.7-1.8,1.8c0,1.1,0.8,1.6,2.1,1.6c0.8,0,1.8-0.2,2.3,0.4c0.6,0.6,0.5,1.5,0.5,2.3c-0.1,1.5,0.5,2.9,2.1,3
	c1.6,0.1,2.1-1,2.1-2.7c0-0.9,0.1-2.1,0.7-2.8c0.7-0.8,2-0.5,3.1-0.5c1.3,0,2.2-0.8,2-2.3c-0.2-1.5-1.4-2.1-2.5-2
	c-1,0.1-2.3,0.5-3.1-0.1c-2.6-2.1-2.4-5.9-2.7-9.5c6.4,0.3,13.6-0.4,19.5-1.9c-0.3,3.5-0.1,7.2-2.7,9.1c-0.8,0.6-2.1,0.2-3.1,0.1
	c-1.2-0.1-2.3,0.5-2.5,2c-0.2,1.5,0.7,2.2,2,2.3c1.1,0,2.4-0.2,3.1,0.5c0.6,0.6,0.8,1.9,0.7,2.8c0,1.7,0.5,2.8,2.1,2.7
	c1.6-0.1,2.2-1.5,2.1-3c0-0.8-0.1-1.8,0.5-2.3c0.5-0.5,1.6-0.4,2.3-0.4c1.3,0,2.1-0.5,2.1-1.6c0-1.1-0.6-1.7-1.8-1.8
	c-0.7-0.1-2-0.2-2.5-0.7c-2.4-2.8,0.4-7.2,1.9-10.9l-0.2,0c4.3-1.6,7.4-3.6,8.3-6c2.1-5.6-1-15.4-5.6-23.7c4.8-2.8,9.8-6,9.8-6
	c7.9,5.4,5.3-3.8,5.3-3.8c12.5,9,6.3-4.6,6.3-4.6C96.4,52,113.8,60.1,104.7,44.4z M38.6,14.1c-2,3.9-5.7,5-9.5,2.9
	c-3.9-2-5-5.7-2.9-9.5c2-3.9,5.7-5,9.5-2.9C39.6,6.6,40.7,10.3,38.6,14.1z M53.5,14.1c-1.8,3.6-5.3,4.6-8.8,2.7
	c-3.6-1.8-4.6-5.2-2.6-8.8c1.9-3.6,5.3-4.6,8.8-2.7C54.5,7.2,55.5,10.6,53.5,14.1z M47,8c-1.2-0.7-2.4-0.3-3,0.9
	c-0.7,1.2-0.3,2.4,0.9,3c1.2,0.7,2.4,0.3,3-0.9C48.6,9.8,48.2,8.7,47,8z M33.5,8.3c-1.3-0.7-2.6-0.3-3.3,1c-0.7,1.3-0.4,2.6,1,3.3
	c1.3,0.7,2.6,0.3,3.3-1C35.2,10.3,34.8,9,33.5,8.3z"/>
</svg>
