<?xml version="1.0" encoding="utf-8"?>
<!-- Generator: Adobe Illustrator 16.0.4, SVG Export Plug-In . SVG Version: 6.00 Build 0)  -->
<!DOCTYPE svg PUBLIC "-//W3C//DTD SVG 1.1//EN" "http://www.w3.org/Graphics/SVG/1.1/DTD/svg11.dtd">
<svg version="1.1" id="Layer_1" xmlns="http://www.w3.org/2000/svg" xmlns:xlink="http://www.w3.org/1999/xlink" x="0px" y="0px"
	 width="93.6px" height="83.3px" viewBox="0 0 93.6 83.3" enable-background="new 0 0 93.6 83.3" xml:space="preserve">
<g>
	<path d="M29.2,14.4c0.5,1.3,3.1,0.5,2.5-0.9C31,12.1,28.4,12.6,29.2,14.4z"/>
	<path d="M66,30.5c-5.2,3.1-14.3,22.6-25.6,17.2c-4-1.9,0.7-18.8,1.4-20.4c0.7-1.6,5.7-1,7.3-1.7c1.6-0.7,1.3-22.6,0-24.3
		c-2.6-3.2-45.3-0.4-48.6,7C-1.3,12.6,2,27.5,4.4,29.1c1.8,1.1,6.8,0.1,7.7,1.6C12.9,32-3,68.9,2.7,77.9c4.5,7.1,86.9,6.1,87,3.4
		c0.1-1.1-1.7-1.8-4.7-2.3c0.1-2.1-0.2-5.1-2.7-4.9c-2,0.1-2.3,2.5-2.3,4.4c-2.7-0.2-5.8-0.3-9.1-0.4c0-1.9-0.6-4.2-2.8-4
		c-1.9,0.1-2.3,2.2-2.3,4c-3.8-0.1-7.7-0.1-11.6-0.2c-0.1-1.9-0.7-3.9-2.8-3.8c-1.8,0.1-2.2,2-2.3,3.7c-3.9-0.1-7.6-0.3-10.8-0.6
		c-0.2-1.6-0.9-3.1-2.7-3c-1.3,0.1-1.9,1.1-2.1,2.4c-4.2-0.8-6.7-2-6.4-3.9c0.1-1.1,6.3-1.4,14-1.7c0.4,1.8,1.4,3.7,4.1,3.1
		c1.9-0.4,2.4-1.9,2.4-3.4c2.8-0.1,5.7-0.3,8.4-0.5c0.6,1.3,1.7,2.2,3.7,1.8c1.5-0.3,2.1-1.2,2.3-2.3c1.9-0.2,3.7-0.5,5.3-0.8
		c2.2-0.5,4.3-1.1,6.4-1.8c0.8,1.5,2.2,2.7,4.5,1.7c1.9-0.9,1.9-2.6,1.5-4.2c2.2-1,4.1-2.2,5.9-3.3c0.9,0.9,2,1.3,3.4,0.5
		c1.5-0.8,1.4-2.3,1-3.7c1.4-1.2,2.3-2.3,2.7-3.2C97.1,43.6,86,18.5,66,30.5z M11.1,18.4c-1.4-8.3,11-9.5,10.9-1.7
		C22,23.2,12.1,24.1,11.1,18.4z M26.4,14.1c-0.8-6.7,11.2-8.2,11,0.2C37.3,20,27.2,20.6,26.4,14.1z"/>
	<path d="M16.8,16.9c-0.4,1.5,2.3,1.9,2.6,0.6C19.8,15.5,17.2,15.4,16.8,16.9z"/>
</g>
</svg>
