<?xml version="1.0" encoding="utf-8"?>
<!-- Generator: Adobe Illustrator 16.0.4, SVG Export Plug-In . SVG Version: 6.00 Build 0)  -->
<!DOCTYPE svg PUBLIC "-//W3C//DTD SVG 1.1//EN" "http://www.w3.org/Graphics/SVG/1.1/DTD/svg11.dtd">
<svg version="1.1" id="Layer_1" xmlns="http://www.w3.org/2000/svg" xmlns:xlink="http://www.w3.org/1999/xlink" x="0px" y="0px"
	 width="71.1px" height="127.7px" viewBox="0 0 71.1 127.7" enable-background="new 0 0 71.1 127.7" xml:space="preserve">
<g>
	<path d="M44.4,34.5c0,3.7,4.7,3.9,4.7,0.2S44.4,30.8,44.4,34.5z"/>
	<path d="M15,1.6c-1.7,4.3,19.5,13.9,15,39.5c-0.8,4.3-1.8,7.9-2.9,11.1c1.3,0.3,2.3,0.6,2.5,0.9c0.8,1-1.3,4.6,2.4,5.1
		s2.1-3.7,3.4-3.7c1.3,0,4.3-0.1,5.3,0s-1.3,4.5,2.1,4.4c3.4-0.1,2.7-3.6,3.7-4.1c1-0.5,5.8-0.6,6.6,0c0.8,0.6-7.4,14.8-8.7,14.5
		c-1.3-0.3-2.2-4.1-4-3.8c-1.8,0.3-0.9,4.2-1.9,4.6c-1,0.5-8.8,0.6-9.3,0s0.8-4.3-1.9-4.8c-2.7-0.5-2.6,2.9-3.7,2.9
		c-0.7,0-2.8-1.7-4.6-3.5C10,72.6-0.1,69.3,0,71c0.3,4.3,12.6,9.9,26.9,11c0,1.3,0.1,3.4,0.2,5.8c-3.1,1-7.7,3.9-7.6,5.4
		c0.1,1.4,3.5,4.7,5.3,6.2c-0.3,0.5-0.3,1.2,0,1.8c0.6,1,2.8,1.3,3.2,0c0.5-1.2-0.3-3.8-2.3-2.8c-0.2,0.1-0.4,0.3-0.6,0.5
		c-1.3-1.8-3.8-5.2-3.5-6c0.2-0.8,3.7-2.4,5.6-3.2c0.4,5.8,1.2,12.5,3.1,13.9c0.4,0.3,0.7,0.5,1.1,0.7c-0.2,3.6-0.7,12.5-0.7,13.2
		c-0.1,0.8-0.2,7.4-0.2,7.4s-2.8,0.2-3.7,0.5c-0.7,0.3-3.9,1.4-4,1.7c-0.1,0.3-0.3,0.5,0,0.5l10.8-0.3c0.3,0,0.3-0.2,0.2-0.5
		c-0.4-1.6-0.8-8.8-0.8-9.4c0-0.8,0.1-8.8,0.1-12.4c1.8,0.6,3.7,0.6,5.4-0.2c0.2,3.7,0.5,11.6,0.5,12.4c0,0.6-0.1,7.8-0.4,9.4
		c-0.1,0.3-0.1,0.5,0.2,0.5l10.8-0.1c0.3,0,0.1-0.3,0-0.5c-0.1-0.3-3.3-1.3-4-1.6c-0.9-0.3-3.7-0.4-3.7-0.4s-0.4-6.6-0.5-7.4
		c-0.1-0.7-0.9-9.8-1.2-13.3c0.1-0.1,0.2-0.2,0.3-0.2c1.7-1.4,2-8.4,2-14.3c0.9,0.4,6.4,2.8,6.6,3.8c0.2,0.8-2.4,4.1-3.7,5.9
		c-0.2-0.2-0.4-0.4-0.6-0.5c-1.9-1.1-2.8,1.4-2.4,2.7c0.4,1.3,2.6,1.1,3.2,0.1c0.3-0.6,0.3-1.2,0.1-1.8c1.8-1.4,5.3-4.7,5.5-6
		c0.2-1.7-5.8-5.6-8.7-6c0-2.7-0.1-5-0.2-6.1C56,78.9,68.4,70.6,70.7,51.5C76.3,5.6,17.3-4.4,15,1.6z M46.3,42.8c-4.4,0-8-2.9-8-7.6
		c0-4.7,3.6-7.6,8-7.6s8,1.9,8,7.8C54.3,40.2,49.9,42.8,46.3,42.8z"/>
</g>
</svg>
