<?xml version="1.0" encoding="utf-8"?>
<!-- Generator: Adobe Illustrator 16.0.4, SVG Export Plug-In . SVG Version: 6.00 Build 0)  -->
<!DOCTYPE svg PUBLIC "-//W3C//DTD SVG 1.1//EN" "http://www.w3.org/Graphics/SVG/1.1/DTD/svg11.dtd">
<svg version="1.1" id="Layer_1" xmlns="http://www.w3.org/2000/svg" xmlns:xlink="http://www.w3.org/1999/xlink" x="0px" y="0px"
	 width="86.9px" height="122.9px" viewBox="0 0 86.9 122.9" enable-background="new 0 0 86.9 122.9" xml:space="preserve">
<path d="M34.2,25.1c0,0-0.7-6.5-0.1-8.6c0.6-2.1,5-5.3,4.7-7.5C38.5,5.8,29.6,0,29.6,0s4.2,6.3,3.9,8.7c-0.2,2.3-5.1,5.2-5.1,7.5
	C28.4,18.8,34.2,25.1,34.2,25.1z M48,26.9c0,0-0.4-4.2,0-5.6c0.4-1.4,3.2-3.4,3.1-4.9c-0.2-2.1-6-5.8-6-5.8s2.7,4.1,2.6,5.6
	c-0.1,1.5-3.3,3.4-3.3,4.9C44.3,22.8,48,26.9,48,26.9z M68,50.1c-0.7-8.5-1.8-15-3.3-16.5c-5.2-5.2-60.2-2.4-62.8,3
	c-3,6-2.1,66.3,1.2,69.6c1.1,1.1,8.2,1.8,17.4,2.1c0,4,0,8.4-0.1,9.8c-3.2,0.8-8.3,2.9-6.9,4.4c0.4,0.4,11.4,0.5,12.5,0
	c1.1-0.5,0.6-2.1,0.2-3c-0.8-2-1.2-6.8-1.4-11.1c7.4,0.2,15.6,0.1,22.9-0.1c0,4,0,8.3-0.1,9.8c-3.2,0.8-8.3,2.9-6.9,4.4
	c0.4,0.4,11.4,0.5,12.5,0c1.1-0.5,0.6-2.1,0.2-3c-0.8-2-1.2-7-1.4-11.3c8.2-0.4,14.4-1.1,15.3-2c1-1,1.6-8.5,1.8-18.4
	c7.1-0.2,17.8-2.7,17.8-17C86.9,56.1,75.3,51.5,68,50.1z M21.7,57.5c-4.6,0.2-7,4.6-8.9,5C10.2,63.1,10.8,52,21.1,52
	c10.2,0.4,10.4,11.1,8.7,10.4C28.9,62,26.5,57.3,21.7,57.5z M35.4,82.7c-8.7,0-8.1-8.3-8.1-8.3h15.2C42.5,74.4,43.2,82.7,35.4,82.7z
	 M56.1,62.4c-1.8-0.4-4.3-4.8-8.9-5c-4.7-0.2-7.2,4.6-8,5c-1.6,0.7-1.4-10,8.7-10.4C58.2,52,58.8,63.1,56.1,62.4z M69.1,77.2
	c0-5.7-0.2-11.6-0.5-17.2c4.4,0.7,10.2,3,10.2,10.2C78.9,77,73.6,77.7,69.1,77.2z M20.6,26.9c0,0-0.4-4.2,0-5.6
	c0.4-1.4,3.2-3.4,3.1-4.9c-0.2-2.1-6-5.8-6-5.8s2.7,4.1,2.6,5.6c-0.1,1.5-3.3,3.4-3.3,4.9C16.9,22.8,20.6,26.9,20.6,26.9z"/>
</svg>
