<?xml version="1.0" encoding="utf-8"?>
<!-- Generator: Adobe Illustrator 16.0.4, SVG Export Plug-In . SVG Version: 6.00 Build 0)  -->
<!DOCTYPE svg PUBLIC "-//W3C//DTD SVG 1.1//EN" "http://www.w3.org/Graphics/SVG/1.1/DTD/svg11.dtd">
<svg version="1.1" id="Layer_1" xmlns="http://www.w3.org/2000/svg" xmlns:xlink="http://www.w3.org/1999/xlink" x="0px" y="0px"
	 width="49.7px" height="122.2px" viewBox="0 0 49.7 122.2" enable-background="new 0 0 49.7 122.2" xml:space="preserve">
<path d="M49.4,25c2.1-11.2-7.2-25-24.1-25C9.3,0,7.4,11.7,7.4,20.7c0,9,13.4,19.5,12.4,29.8c-1,10.3-15.2,19.7-15.2,31
	c0,6.4,2,10.2,5,12.4c-1.3,8.3-2,16.2-2.4,21.9c-4.1,1-8.7,3.8-6.8,5.7c1.2,1.2,14.2,0.7,15.6,0c1.4-0.7-0.4-2.8-1.1-3.9
	c-0.7-7-0.7-14.1,0.1-21.3c2.9,0.7,6,0.8,8.9,0.8c2.8,0,5.6,0.2,8.1,0.1c0.7,6.9,0.7,13.7,0,20.5c-0.8,1.1-2.6,3.2-1.1,3.9
	c1.5,0.7,14.4,1.2,15.6,0c1.9-1.9-2.7-4.7-6.8-5.7c-0.3-5.2-1-12.4-2.1-20.1C40.3,94.2,42,91,42,84.6c0-14.7-11-25.5-11-35
	C31,40.2,47.4,36.2,49.4,25z M38.3,12.3c7,0.7,6.5,8.4,4.8,7.7c-1.2-0.4-2.5-3.6-5.7-4.1c-3.2-0.5-5.3,2.6-5.9,2.8
	C30.4,19.1,31.3,11.8,38.3,12.3z M13.6,16.7C11.7,17,13,9.4,20,10.2c6.9,1.1,6.2,8.4,5.2,7.8c-0.5-0.4-1.9-3.8-5.1-4
	C16.8,13.8,14.8,16.6,13.6,16.7z M31.3,77.5c0.4,1.4-4,1.1-4.4,2.5c-0.5,1.4,2.5,3.6,1.3,4.4c-1.2,0.8-2.9-1.8-4.3-1.8
	c-1.4,0-3.3,3.4-4.4,2.5c-1.2-0.9,0.9-3.4,0.4-4.8c-0.4-1.4-4.6-1.4-4.2-2.7c0.5-1.4,4.4-1.7,5.6-2.5c1.2-0.8,0.9-4.2,2.3-4.2
	c1.4,0,1.4,4,2.6,4.9C27.3,76.5,30.8,76.1,31.3,77.5z M27.4,32.2c-6-0.7-4.9-6.3-4.9-6.3l10.4,1.2C32.9,27.1,32.8,32.8,27.4,32.2z"
	/>
</svg>
