<?xml version="1.0" encoding="utf-8"?>
<!-- Generator: Adobe Illustrator 16.0.4, SVG Export Plug-In . SVG Version: 6.00 Build 0)  -->
<!DOCTYPE svg PUBLIC "-//W3C//DTD SVG 1.1//EN" "http://www.w3.org/Graphics/SVG/1.1/DTD/svg11.dtd">
<svg version="1.1" id="Layer_1" xmlns="http://www.w3.org/2000/svg" xmlns:xlink="http://www.w3.org/1999/xlink" x="0px" y="0px"
	 width="167.3px" height="113.9px" viewBox="0 0 167.3 113.9" enable-background="new 0 0 167.3 113.9" xml:space="preserve">
<path d="M164.4,69.6c-1.3-0.6-3-1.6-3.5-2.9c-0.6-1.5,0.6-3.3,1.3-4.8c0.8-1.8,0.4-3.7-1.9-4.4c-2.3-0.7-3.9,0.5-4.5,2.3
	c-0.5,1.5-0.8,3.5-2.2,4.3c-4.4,2.2-9.4-0.3-14.4-2.2c0-0.5-0.1-0.9-0.1-1.4c-1.3-14.9-9.7-26.7-22.7-33.6c2.4-4.9,7.3-8.8,9.5-10.3
	c3.2,0.5,15.6,2.1,14.9-3.7c-0.7-6.7-8.1-5.5-8.1-5.5s2.3-5.9-6-7.3c-7.3-1.2-3,12.4-1.8,15.6c-2,2.3-7.4,7.5-10.3,10.2
	c-8.5-4.1-18.9-6.1-30.5-5.7c-11.7,0.2-22.1,2.6-30.7,6.9c-3-2.8-8-7.6-9.8-9.8c1.1-3.3,5.4-16.9-1.8-15.6c-8.2,1.4-6,7.3-6,7.3
	s-7.4-1.3-8.1,5.5c-0.6,5.8,11.7,4.3,14.9,3.7c2.1,1.5,6.8,5.1,9.2,9.8c-13.1,7-21.6,18.5-23,32.4c-0.1,0.5-0.1,0.9-0.1,1.4
	c-5.2,1.9-10.3,4.6-14.8,2.3c-1.4-0.7-1.7-2.8-2.3-4.3c-0.6-1.8-2.2-2.9-4.5-2.3c-2.3,0.7-2.7,2.5-1.9,4.4c0.7,1.5,1.9,3.2,1.3,4.8
	C5.8,68,4.1,69,2.9,69.6c-2.4,1.1-3.6,2.6-2.4,4.8c1.2,2.2,3.7,2.2,5.7,1c1.1-0.6,2.4-1.3,3.6-0.9c1.1,0.4,1.6,2,2.1,3.1
	c0.8,1.8,2.1,2.7,3.7,1.9c1.6-0.8,2-2,1.4-3.7c-0.4-1.1-1.1-3-0.6-4.1c1.9-4,7-4.4,12.2-4.4c1,11.4,8.5,20.5,21,26.2
	c-0.2,5.4,0.5,10.9,1.9,16c1,3.7,3.8,5.3,5.5,3.8c1.8-1.5,2.4-4.7,1.7-7.3c-0.8-3.1-1.2-6.3-1.2-9.5c3.6,1.1,7.6,2,11.8,2.6
	c0.3,3.5,0.8,7.1,1.8,10.4c1,3.7,3.8,5.3,5.5,3.8c1.8-1.5,2.4-4.7,1.7-7.3c-0.5-2-0.8-4-1-6c2.2,0.2,4.4,0.2,6.6,0.3
	c3.2,0.1,6.3,0.1,9.3-0.1c-0.2,2-0.5,3.9-1,5.8c-0.6,2.6-0.1,5.8,1.7,7.3c1.8,1.5,4.5-0.1,5.5-3.8c0.9-3.3,1.5-6.7,1.8-10.1
	c3.6-0.5,7-1.2,10.1-2.2c-0.1,3-0.4,5.9-1.2,8.7c-0.6,2.6-0.1,5.8,1.7,7.3c1.8,1.5,4.5-0.1,5.5-3.8c1.4-4.9,2-10.1,1.9-15.3
	c12-5.6,19.1-15,19.8-26.9c5,0.1,9.9,0.5,11.7,4.4c0.5,1-0.2,3-0.6,4.1c-0.6,1.8-0.2,2.9,1.4,3.7c1.6,0.8,2.9-0.1,3.7-1.9
	c0.5-1.1,1-2.7,2.1-3.1c1.2-0.4,2.5,0.3,3.6,0.9c2.1,1.1,4.5,1.2,5.7-1C168.1,72.2,166.8,70.7,164.4,69.6z M84.8,82.5
	c-8.9,0-8.3-8.5-8.3-8.5h15.6C92.1,74,92.9,82.5,84.8,82.5z M85.2,63.2c-19.5,0.4-28.4-3.5-26.8-12c0.5-8.4,9.4-12.6,26.8-12.2
	c17.4,0,26.5,4.1,27,12.2C113.8,59.3,104.7,63.2,85.2,63.2z M95,45.5c-3.5-0.1-5.8,2.2-5.6,5.6c0.1,3.4,2.3,5.7,5.6,5.6
	c3.3,0,5.5-2.3,5.6-5.6C100.8,47.8,98.6,45.5,95,45.5z M72.6,47.5c-2.3,0-3.7,1.4-3.7,3.7c0,2.3,1.4,3.7,3.7,3.7
	c2.3,0,3.7-1.4,3.7-3.7C76.3,48.9,74.9,47.5,72.6,47.5z"/>
</svg>
