<?xml version="1.0" encoding="utf-8"?>
<!-- Generator: Adobe Illustrator 16.0.4, SVG Export Plug-In . SVG Version: 6.00 Build 0)  -->
<!DOCTYPE svg PUBLIC "-//W3C//DTD SVG 1.1//EN" "http://www.w3.org/Graphics/SVG/1.1/DTD/svg11.dtd">
<svg version="1.1" id="Layer_1" xmlns="http://www.w3.org/2000/svg" xmlns:xlink="http://www.w3.org/1999/xlink" x="0px" y="0px"
	 width="108.3px" height="128.5px" viewBox="0 0 108.3 128.5" enable-background="new 0 0 108.3 128.5" xml:space="preserve">
<g>
	<path d="M57.2,28.9c-1.5,0-1.6,1.6-1.6,3.7c0,2.1,0,3.7,1.5,3.7c1.5,0,1.6-1.6,1.6-3.7C58.8,30.5,58.7,28.9,57.2,28.9z"/>
	<path d="M51.3,28.9c-1.5,0.1-1.4,1.7-1.3,3.8s0.3,3.7,1.8,3.6c1.5-0.1,1.4-1.7,1.3-3.8C53,30.4,52.8,28.8,51.3,28.9z"/>
	<path d="M45.9,28.9c-1.5,0-1.5,1.6-1.5,3.7c0,2.1,0.1,3.7,1.6,3.7c1.5,0,1.5-1.6,1.5-3.7C47.4,30.5,47.4,28.9,45.9,28.9z"/>
	<path d="M69.4,19c0-5.1-4.7-7.5-15.4-7.4c-10.7,0-15.4,2.5-15.4,7.4c0,4.9,4.7,7.4,15.4,7.4C64.7,26.5,69.4,24.1,69.4,19z
		 M48.6,22.2c-2,0-3.1-1.2-3.1-3.2s1.1-3.2,3.1-3.2c2,0,3.1,1.2,3.1,3.2S50.6,22.2,48.6,22.2z M59.2,21.7c-1.7,0-2.7-1-2.7-2.7
		c0-1.7,1.1-2.6,2.8-2.6c1.7,0,2.7,1,2.7,2.7C62,20.8,60.9,21.7,59.2,21.7z"/>
	<path d="M62.1,28.9c-1.5,0.1-1.4,1.7-1.3,3.8s0.3,3.7,1.8,3.6c1.5-0.1,1.4-1.7,1.3-3.8C63.7,30.4,63.6,28.8,62.1,28.9z"/>
	<path d="M100.4,59.8c13.2-3.3,8.1-15.1-2.7-14.9c-8.6,0.2-24.2,7.2-29.9,11.1c-1.2-4.9-3.3-8.9-6.2-11.5
		c4.6-1.2,14.6-5.6,14.9-20.5C76.8,4.7,61.9,0,54.1,0C46.3,0,32.1,2.7,31,20.6C30.2,34.2,40.3,42,45.1,44.8
		c-2.4,2.4-4.1,5.9-5.1,10.3C34.4,50.8,19.5,43,11.1,42.3C0.3,41.4-5.5,52.9,7.5,57c10.3,3.3,25.6,3,31.9,1.7
		c-0.2,1.8-0.4,3.7-0.4,5.6c-5.7-0.3-24.5,3.6-32,8.9c-8.8,6.3-5.9,18.8,6.7,13.5c9.9-4.1,21.2-14,25.3-19.1c0.4,8.2,3.4,14.5,8,18
		c0.4,4.4-2.7,24.4-3.2,24.9c-0.5,0.5-4.7-0.4-5.9-0.1c-1.1,0.3,1,11.8-0.5,13.8c-1.4,2-5,2.2-4.7,3.3c0.3,1.1,17.2,1.1,18,0.4
		c0.8-0.7,1.4-17.2,1.4-17.9c0-0.6-4.7,0.4-5.2,0.1c-0.5-0.3,2.2-17.4,2.9-22.8c1.8,0.8,3.8,1.2,5.9,1.2c1.8,0,3.4-0.3,4.8-0.9
		c0.8,5.1,3.7,22.6,3.3,22.9c-0.5,0.3-5.2-0.7-5.2,0c0,0.6,0.9,16.8,1.7,17.4c0.8,0.7,17.7,0.5,18-0.6c0.3-1.1-3.2-1.3-4.7-3.2
		c-1.5-1.9,0.4-13-0.7-13.4c-1.1-0.3-5.4,0.6-5.8,0.2c-0.5-0.5-4.1-22.3-3.5-25.4c3.3-3.3,4.8-9,5.1-16.4
		c4.2,5.5,14.4,15.4,23.6,19.9c12.3,6,16-6.3,7.6-13.1c-7-5.7-25-10.6-31.1-10.9c0-2-0.2-3.9-0.4-5.7
		C74.7,61.2,89.9,62.5,100.4,59.8z M53.8,41c-10.5,0-18-8.4-18-18s6.4-15.1,18-15.1c13.6,0,18.7,6.2,18.7,15.8
		C72.5,33.2,66.7,40.9,53.8,41z"/>
</g>
</svg>
