<?xml version="1.0" encoding="utf-8"?>
<!-- Generator: Adobe Illustrator 16.0.4, SVG Export Plug-In . SVG Version: 6.00 Build 0)  -->
<!DOCTYPE svg PUBLIC "-//W3C//DTD SVG 1.1//EN" "http://www.w3.org/Graphics/SVG/1.1/DTD/svg11.dtd">
<svg version="1.1" id="Layer_1" xmlns="http://www.w3.org/2000/svg" xmlns:xlink="http://www.w3.org/1999/xlink" x="0px" y="0px"
	 width="124.5px" height="116.4px" viewBox="0 0 124.5 116.4" enable-background="new 0 0 124.5 116.4" xml:space="preserve">
<path d="M123.8,87.3c-1.1-1.1-2.3-0.9-3.2-0.1c-0.7,0.7-1.5,1.7-2.5,1.7c-3.7-0.1-5.8-4-8.6-6.8c5.3-13.7,4.7-33.4-0.1-44
	c-6.7-14.5-24-19.9-26-21.8c-2-2-0.9-16.3-20.9-16.3c-17.9,0-17,10.1-20.9,14c-3.9,3.9-16.4,4.5-26.2,23.4
	c-5.5,10.6-4.9,30.6-0.1,44.4c-2.9,2.7-5.1,6.9-8.8,7c-1,0-1.8-1-2.5-1.7c-0.9-0.8-2.1-1-3.2,0.1c-1.1,1-0.8,2.2,0.2,3
	c0.8,0.7,2,1.2,2.2,2.3c0.1,0.9-0.5,2-1.1,2.7c-1,1.3-1.3,2.5,0.1,3.4c1.4,0.9,2.7,0.1,3.5-1.1c0.4-0.7,1-1.5,1.8-1.6
	c0.8-0.1,1.5,0.6,2.1,1.1c1,0.8,2,0.9,2.7,0c0.6-0.9,0.5-1.7-0.4-2.5c-0.5-0.5-1.5-1.4-1.6-2.1c-0.2-3.2,3.4-5,6.6-6.7
	c1.4,3.1,3.1,5.8,5,7.7c2.5,2.5,7.8,4.6,14.4,6c-0.1,7.9-0.2,13.5-0.3,14.2c-3.5,0.5-7.5,1.7-5.9,2.6c1,0.5,12.2,0.3,13.5,0
	c1.2-0.3-0.3-1.3-1-1.8c-0.2-0.9-0.3-6.4-0.4-13.9c5.2,0.8,10.9,1.2,16.7,1.3c-0.1,6.9-0.2,11.7-0.4,12.6c-0.7,0.5-2.2,1.5-1,1.8
	c1.3,0.3,12.5,0.5,13.5,0c1.6-0.9-2.3-2.1-5.9-2.6c-0.1-0.6-0.2-5.2-0.3-11.8c6.2-0.1,12.3-0.6,17.9-1.5c-0.1,7.6-0.2,13.1-0.4,14.1
	c-0.7,0.5-2.2,1.5-1,1.8c1.3,0.3,12.5,0.5,13.5,0c1.6-0.9-2.3-2.1-5.9-2.6c-0.1-0.7-0.2-6.4-0.3-14.4c5.2-1.2,9.6-2.9,12.6-5
	c2.7-2,5-4.8,6.8-8.3c3.2,1.7,6.6,3.5,6.5,6.6c0,0.7-1,1.6-1.6,2.1c-0.9,0.8-1,1.6-0.4,2.5c0.7,0.9,1.7,0.8,2.7,0
	c0.6-0.5,1.3-1.2,2.1-1.1c0.8,0.1,1.3,0.9,1.8,1.6c0.8,1.2,2.1,2,3.5,1.1c1.4-0.9,1.1-2.1,0.1-3.4c-0.5-0.7-1.2-1.8-1.1-2.7
	c0.1-1.1,1.3-1.6,2.2-2.3C124.6,89.5,124.9,88.3,123.8,87.3z M49.7,10.3c0.3-3.8,4.6-5.8,12.8-5.8c8.3-0.2,12.5,1.8,12.8,5.8
	c0.7,4-3.5,5.9-12.8,5.7C53.3,16,48.9,14.2,49.7,10.3z M79.7,51.1L78,47.5l-6.2,1.4l0.4,5.5c-1.1,0.3-2.3,0.6-3.5,0.8
	c-4.6,0.8-8.5,0.9-12,0.5l0.3-5.1l-6.3-2l-2.2,5c-14.9-6.6-15-24.9-15-24.9c3.8,0.9,7.8,1.3,11.9,1.5l0.3,6.5l5.9,0.1l0-6.6
	c6.2-0.2,12.3-0.8,17.7-1.7l3.3,9.1l8.4-2.3l-2.2-8.5c5.5-1.2,9.1-2.2,9.1-2.2l0.7,1.4C88.4,26,92.2,42.7,79.7,51.1z M68.5,12.1
	c1.1,0,1.8-0.7,1.8-1.8c0-1.1-0.7-1.8-1.8-1.8c-1.1,0-1.8,0.7-1.8,1.8C66.8,11.4,67.4,12.1,68.5,12.1z M54.8,12.2
	c0.3,0.3,0.9,0,1.7-0.7c0.8,0.6,1.5,0.8,1.7,0.5c0.3-0.3,0-0.9-0.7-1.7c0.6-0.8,0.8-1.5,0.5-1.7c-0.3-0.3-0.9,0-1.7,0.7
	c-0.8-0.6-1.5-0.8-1.7-0.5c-0.3,0.3,0,0.9,0.7,1.7C54.6,11.3,54.4,11.9,54.8,12.2z"/>
</svg>
