<?xml version="1.0" encoding="utf-8"?>
<!-- Generator: Adobe Illustrator 16.0.4, SVG Export Plug-In . SVG Version: 6.00 Build 0)  -->
<!DOCTYPE svg PUBLIC "-//W3C//DTD SVG 1.1//EN" "http://www.w3.org/Graphics/SVG/1.1/DTD/svg11.dtd">
<svg version="1.1" id="Layer_1" xmlns="http://www.w3.org/2000/svg" xmlns:xlink="http://www.w3.org/1999/xlink" x="0px" y="0px"
	 width="84.5px" height="137.8px" viewBox="0 0 84.5 137.8" enable-background="new 0 0 84.5 137.8" xml:space="preserve">
<path fill="#1D1D1B" d="M84.5,48.7c0-8-2.2-14.9-6.4-20.4c1-6.4,2.4-27.4,0.7-28.3c-1.4-0.8-12.5,10.1-18.5,17
	c-4.6-1.3-9.9-2-15.8-2c-9.8,0-17.9,1.9-24.2,5.4C13.6,15.1,1.7,6.6,0.4,7.4c-1.8,1,3.6,24.5,6,29.8c-1.1,3.5-1.7,7.4-1.7,11.5
	c0,17.4,10.3,29.7,29.6,32.8c-1.5,3.1-2.6,7.9-3,12.1c-0.5,5.6,1.7,12.9-0.3,15c-6.4,6.7-8.4,23.9,2.2,28.8
	c7.4,3.3,13-13.4,4.3-29.5c-1.5-2.7-3.8-9.6-3-15c0.7-4.6,3.9-8.1,5-10.8c1.7,0.1,3.4,0.2,5.2,0.2c3.3,0,6.4-0.2,9.3-0.6
	c1.3,3.2,3.6,7.1,4.3,10.8c1,5.3-1.2,14.9-2.4,16.7c-7.4,10.9-2.6,22.2,3.6,20c9-3.3,7.2-14.9,1.9-19.5c-1.7-1.4,1-11.1,0.1-16.6
	c-0.5-3.6-1.4-8.5-2.6-12.3C75.6,76.7,84.5,64.9,84.5,48.7z M59.6,45c0,3.3-8.3,7.2-8.4-0.9C51.1,36.2,59.5,38.1,59.6,45z
	 M29.8,45.2c-0.1-9.9,11.8-13,12-1.5C41.9,55.3,29.8,50,29.8,45.2z M61,63.8c-0.1,0.2-2.3,5.4-7.4,5.1c-3.2-0.2-5.1-2.3-6-4
	c-1,1.6-3.2,4-6.8,3.8c-5.2-0.3-6.8-5.6-6.9-5.9c-0.2-1-0.1-2.2,0.7-2.5c0.9-0.4,2.8,4.4,6.4,4.6c2.6,0.1,4.5-2.2,5.7-3.3
	c0-0.2,0.1-0.4,0.2-0.6c-2-1.6-6-6.5-5.7-7.2c0.1-0.6,11.5-1,11.9-0.7c0.3,0.3-3,6.3-4.6,7.9c1.1,1.2,2.8,3.8,5.4,3.9
	c3.6,0.2,5.9-4.4,6.8-3.8C61.4,61.8,61.3,62.8,61,63.8z"/>
</svg>
