<?xml version="1.0" encoding="utf-8"?>
<!-- Generator: Adobe Illustrator 16.0.4, SVG Export Plug-In . SVG Version: 6.00 Build 0)  -->
<!DOCTYPE svg PUBLIC "-//W3C//DTD SVG 1.1//EN" "http://www.w3.org/Graphics/SVG/1.1/DTD/svg11.dtd">
<svg version="1.1" id="Layer_1" xmlns="http://www.w3.org/2000/svg" xmlns:xlink="http://www.w3.org/1999/xlink" x="0px" y="0px"
	 width="103.3px" height="70.9px" viewBox="0 0 103.3 70.9" enable-background="new 0 0 103.3 70.9" xml:space="preserve">
<g>
	<path d="M85.8,63.1c-17.2,0-30-0.801-30-12.2c0-11.4,12.9-10.4,30-10.4c6.5,0,12.4-0.1,17.199,0.3c0.201-1.8,0.301-3.5,0.301-5.399
		C103.3,14,89.701,0,64.4,0c-21.6,0-34.6,10.2-38,26.5c-10.6-6.1-23-12.3-25.1-11.1C-2.5,17.6,3,60.8,6,63.4
		c1.2,1.1,12.3-6.5,21.9-13.8C32.8,62.8,45.3,70.8,64.4,70.8c11.301,0,20.301-2.8,26.7-7.8C89.4,63.1,87.6,63.1,85.8,63.1z
		 M81.4,9.1C89.6,9.3,93.9,25.2,81.1,24.8C70.9,24.6,73.3,8.9,81.4,9.1z"/>
	<path d="M91.5,45.3c0.4,1.5,0.4,3.801,0.4,5.2c2.301,0,4.4,0,6.4,0.101c0-1.5,0-3.5,0.199-5.101C96.3,45.3,93.9,45.2,91.5,45.3z"/>
	<path d="M95.9,58.5c1-1.3,1.9-2.6,2.801-4c0-0.5-0.101-1-0.101-1.399c-2.101,0.1-4.3,0.1-6.8,0.1c-0.1,1.7-0.2,4-0.5,5.6
		C92.8,58.7,94.4,58.6,95.9,58.5z"/>
	<path d="M85.701,53.1c-1.301,0-2.601,0-3.9,0c-0.2,1.699-0.5,4.1-0.9,5.699c1.9,0,3.801,0,5.7,0c0.7,0,1.5,0,2.2,0
		C88.5,57.2,88.5,54.8,88.5,53.1C87.701,53.1,86.701,53.1,85.701,53.1z"/>
	<path d="M69.9,58.2c-0.4-1.5-0.6-3.5-0.699-5.3c-2.701-0.2-5.601,0.1-7.5,0C62.8,55.9,65.9,57.4,69.9,58.2z"/>
	<path d="M61.3,50.6c0,0.1,0,0.1,0,0.199C63.1,50.6,66,50.9,68.8,50.7c-0.1-1.2-0.1-3.6,0.199-5.2C64.4,46,61.201,47.4,61.3,50.6z"
		/>
	<path d="M72.4,53.1c0.1,1.8,0.2,4-0.1,5.399c2,0.2,4.199,0.3,6.4,0.3c-0.301-1.699-0.201-4,0-5.699C76.4,53.1,74.3,53.1,72.4,53.1z
		"/>
	<path d="M80.3,45.2C77,45.1,73.8,45.1,71,45.3c0.5,1.601,0.801,3.9,0.9,5.2c2.301-0.1,4.801-0.1,7.6-0.1
		C79.701,48.9,79.9,46.8,80.3,45.2z"/>
	<path d="M86.701,45.3c-1.301,0-2.701,0-4.101,0c0.2,1.601,0.101,3.7,0,5.2c1,0,2.101,0,3.2,0s2.1,0,3.1,0
		c0.1-1.399,0.301-3.6,0.7-5.1C88.6,45.3,87.6,45.3,86.701,45.3z"/>
</g>
</svg>
