<?xml version="1.0" encoding="utf-8"?>
<!-- Generator: Adobe Illustrator 16.0.4, SVG Export Plug-In . SVG Version: 6.00 Build 0)  -->
<!DOCTYPE svg PUBLIC "-//W3C//DTD SVG 1.1//EN" "http://www.w3.org/Graphics/SVG/1.1/DTD/svg11.dtd">
<svg version="1.1" id="Layer_1" xmlns="http://www.w3.org/2000/svg" xmlns:xlink="http://www.w3.org/1999/xlink" x="0px" y="0px"
	 width="103px" height="86.9px" viewBox="0 0 103 86.9" enable-background="new 0 0 103 86.9" xml:space="preserve">
<g>
	<path d="M72.8,42.5c0.3,4.1,7.2,3.5,6.9-0.6C79.3,37.8,72.4,38.4,72.8,42.5z"/>
	<path d="M102.1,51.3c-0.4-1.1-5.5-1.4-7.9-1.6c0.8-6.4,0-12.8-2.2-18.4c2.2-1.8,6.1-5,6.6-5.8c0.6-1.1-1.6-4.8-3.2-5
		c-1.3-0.1-4.9,3-6.8,4.4c-0.5-0.7-1.1-1.4-1.7-2.1c-3-3.4-6.7-6.1-10.8-8.3c1.3-2.4,4-7.5,3.7-8.1c-0.4-0.7-4.4-2.4-6.2-1.5
		c-1.3,0.6-2.3,4.8-2.8,7.3c-6.7-2.5-14-3.5-20.8-3.3c0.1-2.8,0.4-8.4-0.1-8.7c-0.6-0.5-5-0.3-6.2,1.3c-0.9,1.1,0,5.5,0.6,7.9
		c-5,0.7-9.6,2.2-13,4.4c-0.7,0.4-1.3,0.8-1.9,1.2c-1.8-1.8-5.9-5.9-7.5-6c-2.1-0.1-3.7,4.5-3.2,5.3c0.4,0.6,3.3,3.6,4.8,5.2
		c-5.8,5.1-10.1,11.2-12,17.9C9.6,37.2,2.9,36,0.9,37.9c-2.3,2.2,0.4,4.3,0.9,4.7c0.5,0.4,6.9,0.2,8.8-0.2c-0.2,1.7-0.2,3.5-0.1,5.2
		c0.3,4.1,1.8,8.9,4.8,13.6c-1.9,1-7.5,4-7.9,5.7c-0.4,2,3.3,3.5,4.6,4c1.1,0.4,5-3.5,6.6-5.1c3.5,4.1,8.3,7.8,14.6,10.4
		c-0.1,2.6-0.2,8.6,0.1,9.5c0.4,1.2,4.7,1.9,5.9,0.8c0.9-0.9,0.9-5.6,1.1-8c6,1.4,12.9,2,21,1.3c4.8-0.4,9.1-1.5,12.8-3
		c1.4,2.3,4.2,6.4,6.5,6.7c3.2,0.3,3-3.1,3-3.7c0-0.5-2.7-3.6-4.6-5.4c7.4-4.6,12-11.5,14.1-18.9c2.3,0.9,7.7,2.9,9.1,2.1
		C103.9,56.5,102.6,52.6,102.1,51.3z M21.5,49.4c-2.4,0.3-4.5-1-4.8-3.5c-0.3-2.5,1.4-4.3,3.8-4.6c2.4-0.3,4.4,0.5,4.8,3.6
		C25.6,47.5,23.4,49.2,21.5,49.4z M74.2,67c-4.6,0.5-4.5-3.4-6.7-3.6c-2.2-0.1-1.7,5.4-7,5.4c-6.5,0-5-3.8-8.4-3.8
		c-3.4,0-2.8,4.1-7.5,3.7c-4.6-0.3-5.1-4.4-7.3-4.9c-3.5-0.8-4,2.1-7,1.6c-3-0.5-3.7-5.4-2.5-5.7c1.5-0.4-0.1,4.2,2.7,4.5
		c2.8,0.3,3.7-2.5,7.2-2.2s3,4.9,7.5,4.9c4.5,0,2.7-3.6,7-3.6c4.3,0,3.4,3.9,8.1,3.6c4.6-0.3,4-4.8,7.5-4.8s1.6,3.4,6.1,3.1
		c4.5-0.3,4.5-4.9,5.5-4.8S78.7,66.6,74.2,67z M78.1,49.6c-4.9,0.4-8.9-1.4-9.5-7.7c-0.4-5.2,4.1-8.4,8.1-8.8c4.9-0.4,9,2.4,9.5,7.5
		C86.6,45.7,83,49.2,78.1,49.6z"/>
	<path d="M19.9,45.2c0.2,2,3.6,1.6,3.3-0.4C23,42.8,19.6,43.2,19.9,45.2z"/>
</g>
</svg>
