<?xml version="1.0" encoding="utf-8"?>
<!-- Generator: Adobe Illustrator 16.0.4, SVG Export Plug-In . SVG Version: 6.00 Build 0)  -->
<!DOCTYPE svg PUBLIC "-//W3C//DTD SVG 1.1//EN" "http://www.w3.org/Graphics/SVG/1.1/DTD/svg11.dtd">
<svg version="1.1" id="Layer_1" xmlns="http://www.w3.org/2000/svg" xmlns:xlink="http://www.w3.org/1999/xlink" x="0px" y="0px"
	 width="50px" height="50px" viewBox="0 0 50 50" enable-background="new 0 0 50 50" xml:space="preserve">
<g id="facebook_1_">
	<path fill="#09B39C" d="M23.9,4.2c-1.7,0.9-2.9,2.1-3.5,3.6c-0.6,1.4-0.9,3.4-0.9,6.1v0.9h-4.4v8.8h4.4v23.5H30V23.6h5.9v-8.8H30
		V14c0-1.7,0.3-2.1,0.4-2.2c0.2-0.2,0.8-0.4,1.5-0.4c1,0,2.2,0.1,3.3,0.4l1.3,0.3l1.5-8l-1.1-0.4C32.3,2.5,27.1,2.4,23.9,4.2z
		 M34.3,9.1c-2.5-0.4-4.8-0.2-6,1c-0.7,0.8-1.1,2.1-1.1,3.9v3.4h5.9V21h-5.9v23.5H22V21h-4.4v-3.6H22v-3.5c0-2.3,0.2-4,0.7-5.1
		c0.4-1,1.2-1.7,2.4-2.4c2.3-1.2,6.3-1.3,9.8-0.4L34.3,9.1z"/>
</g>
</svg>
