<?xml version="1.0" encoding="utf-8"?>
<!-- Generator: Adobe Illustrator 16.0.4, SVG Export Plug-In . SVG Version: 6.00 Build 0)  -->
<!DOCTYPE svg PUBLIC "-//W3C//DTD SVG 1.1//EN" "http://www.w3.org/Graphics/SVG/1.1/DTD/svg11.dtd">
<svg version="1.1" id="Layer_1" xmlns="http://www.w3.org/2000/svg" xmlns:xlink="http://www.w3.org/1999/xlink" x="0px" y="0px"
	 width="50px" height="50px" viewBox="0 0 50 50" enable-background="new 0 0 50 50" xml:space="preserve">
<g id="twitter">
	<path fill="#09B39C" d="M45.9,11.4c0.3-1.1,0-2.3-1-3c-0.5-0.4-1.1-0.6-1.8-0.6c-0.5,0-1,0.1-1.4,0.4c-0.9,0.5-1.8,0.9-2.8,1.2
		c-1.9-1.4-4.2-2.2-6.5-2.2c-5.4,0-9.9,4-10.6,9.3c-4.3-0.9-8.3-3.3-11.1-6.8c-0.5-0.7-1.3-1-2.2-1c-0.1,0-0.1,0-0.2,0
		C7.4,8.7,6.5,9.2,6.1,10c-1,1.6-1.5,3.5-1.5,5.4c0,1.3,0.2,2.5,0.6,3.7c-0.5,0.5-0.7,1.2-0.7,1.9c0,2.8,1.1,5.4,2.8,7.3
		c-0.1,0.5-0.1,1,0.1,1.5c0.6,1.9,1.7,3.6,3.2,4.8C9.7,34.9,8.7,35,7.7,35c-0.5,0-1,0-1.5-0.1c-0.1,0-0.2,0-0.3,0
		c-1.2,0-2.3,0.7-2.7,1.9c-0.4,1.2,0,2.6,1.1,3.3c4.1,2.6,8.8,4,13.6,4c15.7,0,25.1-12.6,25.2-24.9c1.3-1.1,2.4-2.3,3.3-3.7
		c0.4-0.5,0.6-1.1,0.6-1.7C47.1,12.8,46.6,11.9,45.9,11.4z M40.3,17.8c0,0.3,0,0.7,0,1c0,10.4-7.9,22.4-22.4,22.4
		c-4.4,0-8.6-1.3-12.1-3.5c0.6,0.1,1.2,0.1,1.9,0.1c3.7,0,7.1-1.3,9.8-3.4c-3.4-0.1-6.4-2.3-7.4-5.5c0.5,0.1,1,0.1,1.5,0.1
		c0.7,0,1.4-0.1,2.1-0.3c-3.6-0.7-6.3-3.9-6.3-7.7c0,0,0-0.1,0-0.1c1.1,0.6,2.3,0.9,3.6,1c-2.1-1.4-3.5-3.8-3.5-6.6
		c0-1.4,0.4-2.8,1.1-4c3.9,4.8,9.7,7.9,16.2,8.2c-0.1-0.6-0.2-1.2-0.2-1.8c0-4.3,3.5-7.9,7.9-7.9c2.3,0,4.3,1,5.7,2.5
		c1.8-0.4,3.5-1,5-1.9c-0.6,1.8-1.8,3.4-3.5,4.4c1.6-0.2,3.1-0.6,4.5-1.2C43.2,15.3,41.8,16.7,40.3,17.8z"/>
</g>
</svg>
